<svg width="24" height="26" viewBox="0 0 24 26" fill="none" xmlns="http://www.w3.org/2000/svg">
<path opacity="0.3" fill-rule="evenodd" clip-rule="evenodd" d="M6 3.51318C4.34315 3.51318 3 4.85633 3 6.51318V16.3632C3 18.02 4.34315 19.3632 6 19.3632H18.0249L20.2986 21.7657C20.9202 22.4225 22.0249 21.9826 22.0249 21.0784V16.1932L22 16.2035V6.51318C22 4.85633 20.6569 3.51318 19 3.51318H6Z" fill="black"/>
<path opacity="0.3" fill-rule="evenodd" clip-rule="evenodd" d="M7.5 13.0233C6.67157 13.0233 6 12.3136 6 11.4383C6 10.5629 6.67157 9.85327 7.5 9.85327C8.32843 9.85327 9 10.5629 9 11.4383C9 12.3136 8.32843 13.0233 7.5 13.0233ZM12.5 13.0233C11.6716 13.0233 11 12.3136 11 11.4383C11 10.5629 11.6716 9.85327 12.5 9.85327C13.3284 9.85327 14 10.5629 14 11.4383C14 12.3136 13.3284 13.0233 12.5 13.0233ZM17.5 13.0233C16.6716 13.0233 16 12.3136 16 11.4383C16 10.5629 16.6716 9.85327 17.5 9.85327C18.3284 9.85327 19 10.5629 19 11.4383C19 12.3136 18.3284 13.0233 17.5 13.0233Z" fill="black"/>
</svg>
