<svg width="32" height="40" viewBox="0 0 32 40" fill="none" xmlns="http://www.w3.org/2000/svg">
<path d="M27.875 0H4.125C3.13086 0.00111607 2.17743 0.396486 1.47436 1.09936C0.771515 1.80249 0.376143 2.75586 0.375 3.75V9.375C0.375 9.54074 0.440849 9.69978 0.558036 9.81697C0.675223 9.93415 0.834264 10 1 10H4.75C5.09514 10 5.375 9.72014 5.375 9.375C5.375 9.02986 5.09514 8.75 4.75 8.75H1.625V3.75C1.625 2.85686 2.10156 2.0315 2.875 1.58486C3.64843 1.13843 4.60157 1.13843 5.375 1.58486C6.14843 2.03156 6.625 2.85693 6.625 3.75V18.125C6.625 18.4701 6.90486 18.75 7.25 18.75C7.59514 18.75 7.875 18.4701 7.875 18.125V3.75C7.87584 2.827 7.5346 1.93636 6.91743 1.25H27.8753C28.5382 1.25 29.1741 1.51339 29.6431 1.98214C30.1119 2.45117 30.3753 3.08707 30.3753 3.75V33.75H17.2503C16.9051 33.75 16.6253 34.0299 16.6253 34.375C16.6253 34.7201 16.9051 35 17.2503 35H31.0003C31.166 35 31.3251 34.9342 31.4423 34.817C31.5594 34.6998 31.6253 34.5407 31.6253 34.375V3.75C31.6242 2.75586 31.2288 1.80243 30.5259 1.09936C29.8228 0.396514 28.8694 0.00114286 27.8753 0L27.875 0Z" fill="black"/>
<path d="M27.25 5C27.5951 5 27.875 4.72014 27.875 4.375C27.875 4.02986 27.5951 3.75 27.25 3.75H21C20.6549 3.75 20.375 4.02986 20.375 4.375C20.375 4.72014 20.6549 5 21 5H27.25Z" fill="black"/>
<path d="M17.25 7.5H27.25C27.5951 7.5 27.875 7.22014 27.875 6.875C27.875 6.52986 27.5951 6.25 27.25 6.25H17.25C16.9049 6.25 16.625 6.52986 16.625 6.875C16.625 7.22014 16.9049 7.5 17.25 7.5Z" fill="black"/>
<path d="M17.25 10H24.75C25.0951 10 25.375 9.72014 25.375 9.375C25.375 9.02986 25.0951 8.75 24.75 8.75H17.25C16.9049 8.75 16.625 9.02986 16.625 9.375C16.625 9.72014 16.9049 10 17.25 10Z" fill="black"/>
<path d="M17.25 5H18.5C18.8451 5 19.125 4.72014 19.125 4.375C19.125 4.02986 18.8451 3.75 18.5 3.75H17.25C16.9049 3.75 16.625 4.02986 16.625 4.375C16.625 4.72014 16.9049 5 17.25 5Z" fill="black"/>
<path d="M13.5 20H2.24996C1.75276 20 1.27561 20.1975 0.924107 20.5491C0.572607 20.9007 0.375 21.3778 0.375 21.875V38.125C0.375 38.6222 0.572543 39.0993 0.924107 39.4508C1.27567 39.8023 1.75282 39.9999 2.24996 39.9999H13.5C13.9972 39.9999 14.4743 39.8024 14.8258 39.4508C15.1773 39.0993 15.3749 38.6221 15.3749 38.125V21.875C15.3749 21.3778 15.1774 20.9006 14.8258 20.5491C14.4743 20.1976 13.9971 20 13.5 20ZM14.125 38.125C14.125 38.2907 14.0591 38.4498 13.9419 38.567C13.8247 38.6842 13.6657 38.75 13.5 38.75H2.24996C1.90482 38.75 1.62496 38.4701 1.62496 38.125V21.875C1.62496 21.5299 1.90482 21.25 2.24996 21.25H13.5C13.6657 21.25 13.8247 21.3158 13.9419 21.433C14.0591 21.5502 14.125 21.7093 14.125 21.875V38.125Z" fill="black"/>
<path d="M12.25 22.5H3.5C3.15486 22.5 2.875 22.7799 2.875 23.125V26.875C2.875 27.0407 2.94085 27.1998 3.05804 27.317C3.17522 27.4342 3.33426 27.5 3.5 27.5H12.25C12.4157 27.5 12.5748 27.4342 12.692 27.317C12.8092 27.1998 12.875 27.0407 12.875 26.875V23.125C12.875 22.9593 12.8092 22.8002 12.692 22.683C12.5748 22.5659 12.4157 22.5 12.25 22.5ZM11.625 26.25H4.125V23.75H11.625V26.25Z" fill="black"/>
<path d="M4.75 30H3.5C3.15486 30 2.875 30.2799 2.875 30.625C2.875 30.9701 3.15486 31.25 3.5 31.25H4.75C5.09514 31.25 5.375 30.9701 5.375 30.625C5.375 30.2799 5.09514 30 4.75 30Z" fill="black"/>
<path d="M8.5 30H7.25C6.90486 30 6.625 30.2799 6.625 30.625C6.625 30.9701 6.90486 31.25 7.25 31.25H8.5C8.84514 31.25 9.125 30.9701 9.125 30.625C9.125 30.2799 8.84514 30 8.5 30Z" fill="black"/>
<path d="M12.25 30H11C10.6549 30 10.375 30.2799 10.375 30.625C10.375 30.9701 10.6549 31.25 11 31.25H12.25C12.5951 31.25 12.875 30.9701 12.875 30.625C12.875 30.2799 12.5951 30 12.25 30Z" fill="black"/>
<path d="M4.75 32.5H3.5C3.15486 32.5 2.875 32.7799 2.875 33.125C2.875 33.4701 3.15486 33.75 3.5 33.75H4.75C5.09514 33.75 5.375 33.4701 5.375 33.125C5.375 32.7799 5.09514 32.5 4.75 32.5Z" fill="black"/>
<path d="M8.5 32.5H7.25C6.90486 32.5 6.625 32.7799 6.625 33.125C6.625 33.4701 6.90486 33.75 7.25 33.75H8.5C8.84514 33.75 9.125 33.4701 9.125 33.125C9.125 32.7799 8.84514 32.5 8.5 32.5Z" fill="black"/>
<path d="M12.25 32.5H11C10.6549 32.5 10.375 32.7799 10.375 33.125C10.375 33.4701 10.6549 33.75 11 33.75H12.25C12.5951 33.75 12.875 33.4701 12.875 33.125C12.875 32.7799 12.5951 32.5 12.25 32.5Z" fill="black"/>
<path d="M4.75 35H3.5C3.15486 35 2.875 35.2799 2.875 35.625C2.875 35.9701 3.15486 36.25 3.5 36.25H4.75C5.09514 36.25 5.375 35.9701 5.375 35.625C5.375 35.2799 5.09514 35 4.75 35Z" fill="black"/>
<path d="M8.5 35H7.25C6.90486 35 6.625 35.2799 6.625 35.625C6.625 35.9701 6.90486 36.25 7.25 36.25H8.5C8.84514 36.25 9.125 35.9701 9.125 35.625C9.125 35.2799 8.84514 35 8.5 35Z" fill="black"/>
<path d="M12.25 35H11C10.6549 35 10.375 35.2799 10.375 35.625C10.375 35.9701 10.6549 36.25 11 36.25H12.25C12.5951 36.25 12.875 35.9701 12.875 35.625C12.875 35.2799 12.5951 35 12.25 35Z" fill="black"/>
<path d="M17.25 20.625C16.9049 20.625 16.625 20.9049 16.625 21.25V31.25C16.625 31.4157 16.6908 31.5748 16.808 31.692C16.9252 31.8092 17.0843 31.875 17.25 31.875H28.5C28.8451 31.875 29.125 31.5951 29.125 31.25C29.125 30.9049 28.8451 30.625 28.5 30.625H17.875V21.25C17.875 21.0843 17.8092 20.9252 17.692 20.808C17.5748 20.6909 17.4157 20.625 17.25 20.625Z" fill="black"/>
<path d="M20.1922 29.1921L22.2502 27.1339L23.0582 27.9419V27.9421C23.3024 28.186 23.698 28.186 23.9422 27.9421L28.3172 23.5671C28.5541 23.3219 28.5504 22.9321 28.3093 22.691C28.0683 22.4499 27.6785 22.4463 27.4332 22.6832L23.5002 26.6165L22.6922 25.8085V25.8082C22.4481 25.5643 22.0524 25.5643 21.8083 25.8082L19.3083 28.3082C19.1877 28.4248 19.1191 28.5847 19.1177 28.7524C19.116 28.9201 19.1822 29.0813 19.3007 29.1996C19.419 29.3182 19.5803 29.3844 19.748 29.3827C19.9157 29.3813 20.0756 29.3126 20.1922 29.1921L20.1922 29.1921Z" fill="black"/>
<path d="M14.75 13.125C14.75 13.2907 14.8158 13.4498 14.933 13.567C15.0502 13.6842 15.2093 13.75 15.375 13.75H27.875C28.2201 13.75 28.5 13.4701 28.5 13.125C28.5 12.7799 28.2201 12.5 27.875 12.5H15.375C15.0299 12.5 14.75 12.7799 14.75 13.125Z" fill="black"/>
<path d="M10.375 16.25H27.875C28.2201 16.25 28.5 15.9701 28.5 15.625C28.5 15.2799 28.2201 15 27.875 15H10.375C10.0299 15 9.75 15.2799 9.75 15.625C9.75 15.9701 10.0299 16.25 10.375 16.25Z" fill="black"/>
<path d="M10.375 18.75H25.375C25.7201 18.75 26 18.4701 26 18.125C26 17.7799 25.7201 17.5 25.375 17.5H10.375C10.0299 17.5 9.75 17.7799 9.75 18.125C9.75 18.4701 10.0299 18.75 10.375 18.75Z" fill="black"/>
<path d="M9.75 13.125C9.75 13.2907 9.81585 13.4498 9.93304 13.567C10.0502 13.6842 10.2093 13.75 10.375 13.75H12.875C13.2201 13.75 13.5 13.4701 13.5 13.125C13.5 12.7799 13.2201 12.5 12.875 12.5H10.375C10.0299 12.5 9.75 12.7799 9.75 13.125Z" fill="black"/>
</svg>
