<svg width="16" height="18" viewBox="0 0 16 18" fill="none" xmlns="http://www.w3.org/2000/svg">
<rect y="0.31665" width="7" height="7.39667" rx="1.5" fill="black"/>
<path opacity="0.3" fill-rule="evenodd" clip-rule="evenodd" d="M9 1.81665C9 0.988223 9.67157 0.31665 10.5 0.31665H14.5C15.3284 0.31665 16 0.988223 16 1.81665V6.21332C16 7.04174 15.3284 7.71332 14.5 7.71332H10.5C9.67157 7.71332 9 7.04174 9 6.21332V1.81665ZM0 11.3267C0 10.4982 0.671573 9.82665 1.5 9.82665H5.5C6.32843 9.82665 7 10.4982 7 11.3267V15.7233C7 16.5517 6.32843 17.2233 5.5 17.2233H1.5C0.671573 17.2233 0 16.5517 0 15.7233V11.3267ZM10.5 9.82665C9.67157 9.82665 9 10.4982 9 11.3267V15.7233C9 16.5517 9.67157 17.2233 10.5 17.2233H14.5C15.3284 17.2233 16 16.5517 16 15.7233V11.3267C16 10.4982 15.3284 9.82665 14.5 9.82665H10.5Z" fill="black"/>
</svg>
