<svg width="38" height="39" viewBox="0 0 38 39" fill="none" xmlns="http://www.w3.org/2000/svg">
<path d="M31.305 26.5719H6.69426C4.43283 26.5719 2.59326 24.6956 2.59326 22.3889V5.05619C2.59326 4.6162 2.94315 4.25928 3.37455 4.25928H34.6245C35.0559 4.25928 35.4058 4.61616 35.4058 5.05619V22.3889C35.4058 24.6956 33.5663 26.5719 31.3048 26.5719H31.305ZM4.15569 5.85281V22.3885C4.15569 23.8163 5.29433 24.9777 6.69419 24.9777H31.3049C32.7048 24.9777 33.8434 23.8163 33.8434 22.3885V5.85281H4.15569Z" fill="black"/>
<path d="M28.375 29.7594H9.62504C7.47104 29.7594 5.71875 27.9721 5.71875 25.7749C5.71875 25.3349 6.06864 24.978 6.50004 24.978H31.5C31.9314 24.978 32.2813 25.3349 32.2813 25.7749C32.2813 27.972 30.5291 29.7594 28.375 29.7594ZM7.41504 26.5719C7.73758 27.4993 8.60646 28.1656 9.62489 28.1656H28.3749C29.3936 28.1656 30.2625 27.4994 30.5847 26.5719H7.41504Z" fill="black"/>
<path d="M19 38.5248C17.7075 38.5248 16.6562 37.4524 16.6562 36.1342C16.6562 34.816 17.7076 33.7437 19 33.7437C20.2923 33.7437 21.3437 34.816 21.3437 36.1342C21.3437 37.4524 20.2923 38.5248 19 38.5248ZM19 35.3373C18.5692 35.3373 18.2187 35.6948 18.2187 36.1342C18.2187 36.5737 18.5691 36.9311 19 36.9311C19.4308 36.9311 19.7813 36.5737 19.7813 36.1342C19.7813 35.6948 19.4308 35.3373 19 35.3373Z" fill="black"/>
<path d="M19 35.3374C18.5687 35.3374 18.2188 34.9806 18.2188 34.5405V28.9624C18.2188 28.5224 18.5686 28.1655 19 28.1655C19.4314 28.1655 19.7813 28.5224 19.7813 28.9624V34.5405C19.7813 34.9805 19.4314 35.3374 19 35.3374Z" fill="black"/>
<path d="M35.0158 5.85299H2.98436C1.47657 5.85299 0.25 4.60189 0.25 3.06395C0.25 1.52601 1.47657 0.274902 2.98436 0.274902H35.0158C36.5236 0.274902 37.7501 1.52601 37.7501 3.06395C37.7501 4.60189 36.5236 5.85299 35.0158 5.85299ZM2.98436 1.86858C2.33815 1.86858 1.8125 2.40476 1.8125 3.06387C1.8125 3.72298 2.33817 4.25917 2.98436 4.25917H35.0158C35.662 4.25917 36.1876 3.72298 36.1876 3.06387C36.1876 2.40476 35.662 1.86858 35.0158 1.86858H2.98436Z" fill="black"/>
<path d="M9.62504 17.0094H6.50004C6.06867 17.0094 5.71875 16.6525 5.71875 16.2124V11.4312C5.71875 10.9912 6.06864 10.6343 6.50004 10.6343H9.62504C10.0564 10.6343 10.4063 10.9912 10.4063 11.4312V16.2124C10.4063 16.6524 10.0564 17.0094 9.62504 17.0094ZM7.28132 15.4156H8.84382V12.2281H7.28132V15.4156Z" fill="black"/>
<path d="M12.75 17.0094H9.62504C9.19367 17.0094 8.84375 16.6525 8.84375 16.2124V9.83744C8.84375 9.39745 9.19364 9.04053 9.62504 9.04053H12.75C13.1814 9.04053 13.5313 9.39741 13.5313 9.83744V16.2124C13.5313 16.6524 13.1814 17.0094 12.75 17.0094ZM10.4063 15.4156H11.9688V10.6344H10.4063V15.4156Z" fill="black"/>
<path d="M15.875 17.0092H12.75C12.3187 17.0092 11.9688 16.6523 11.9688 16.2123V8.2432C11.9688 7.80321 12.3186 7.44629 12.75 7.44629H15.875C16.3064 7.44629 16.6563 7.80317 16.6563 8.2432V16.2123C16.6563 16.6523 16.3064 17.0092 15.875 17.0092ZM13.5313 15.4155H15.0938V9.04048H13.5313V15.4155Z" fill="black"/>
<path d="M26.0317 23.3843C22.5856 23.3843 19.7817 20.5243 19.7817 17.0093C19.7817 13.4942 22.5856 10.6343 26.0317 10.6343C29.4779 10.6343 32.2817 13.4942 32.2817 17.0093C32.2817 20.5243 29.4779 23.3843 26.0317 23.3843ZM26.0317 12.2284C23.4469 12.2284 21.3442 14.3732 21.3442 17.0096C21.3442 19.6461 23.447 21.7909 26.0317 21.7909C28.6165 21.7909 30.7192 19.6461 30.7192 17.0096C30.7192 14.3732 28.6165 12.2284 26.0317 12.2284Z" fill="black"/>
<path d="M31.5 17.8057H26.0313C25.5999 17.8057 25.25 17.4488 25.25 17.0088V11.4307C25.25 10.9907 25.5999 10.6338 26.0313 10.6338C26.4627 10.6338 26.8126 10.9907 26.8126 11.4307V16.212H31.5001C31.9314 16.212 32.2814 16.5688 32.2814 17.0089C32.2814 17.4489 31.9315 17.8058 31.5001 17.8058L31.5 17.8057Z" fill="black"/>
<path d="M25.7107 17.7357L20.7219 15.4478C20.3285 15.2674 20.1527 14.7955 20.3296 14.3942C20.5065 13.9927 20.9691 13.8137 21.3625 13.9941L26.3514 16.282C26.7448 16.4624 26.9206 16.9343 26.7437 17.3355C26.5668 17.7368 26.1042 17.9161 25.7107 17.7357Z" fill="black"/>
<path d="M7.28132 20.1969H6.50004C6.06867 20.1969 5.71875 19.84 5.71875 19.3999C5.71875 18.9599 6.06864 18.603 6.50004 18.603H7.28132C7.71269 18.603 8.06261 18.9599 8.06261 19.3999C8.06261 19.84 7.71272 20.1969 7.28132 20.1969Z" fill="black"/>
<path d="M14.313 20.1969H9.62552C9.19416 20.1969 8.84424 19.84 8.84424 19.3999C8.84424 18.9599 9.19412 18.603 9.62552 18.603H14.313C14.7444 18.603 15.0943 18.9599 15.0943 19.3999C15.0943 19.84 14.7444 20.1969 14.313 20.1969Z" fill="black"/>
<path d="M7.28132 23.3844H6.50004C6.06867 23.3844 5.71875 23.0275 5.71875 22.5874C5.71875 22.1474 6.06864 21.7905 6.50004 21.7905H7.28132C7.71269 21.7905 8.06261 22.1474 8.06261 22.5874C8.06261 23.0275 7.71272 23.3844 7.28132 23.3844Z" fill="black"/>
<path d="M14.313 23.3844H9.62552C9.19416 23.3844 8.84424 23.0275 8.84424 22.5874C8.84424 22.1474 9.19412 21.7905 9.62552 21.7905H14.313C14.7444 21.7905 15.0943 22.1474 15.0943 22.5874C15.0943 23.0275 14.7444 23.3844 14.313 23.3844Z" fill="black"/>
</svg>
