<svg width="154" height="22" viewBox="0 0 154 22" fill="none" xmlns="http://www.w3.org/2000/svg">
<path d="M5.9187 6.69663L0.167754 10.1162C0.116589 10.1465 0.074207 10.1896 0.0447887 10.2413C0.0153705 10.293 -6.66793e-05 10.3514 2.16493e-07 10.4109V18.2093C0.000212657 18.2695 0.0162119 18.3286 0.0464033 18.3806C0.0765947 18.4327 0.119922 18.476 0.172056 18.5061L5.92515 21.7751C5.97709 21.8043 6.03578 21.8195 6.09539 21.8191C6.155 21.8186 6.21346 21.8026 6.26497 21.7726C6.31649 21.7426 6.35927 21.6997 6.38907 21.6481C6.41887 21.5964 6.43465 21.5379 6.43486 21.4783V6.98912C6.43455 6.92893 6.41836 6.86988 6.38792 6.81795C6.35748 6.76602 6.31387 6.72305 6.2615 6.69338C6.20913 6.6637 6.14985 6.64837 6.08966 6.64894C6.02947 6.64951 5.97049 6.66596 5.9187 6.69663Z" fill="black"/>
<path d="M8.47387 0.268154L14.227 3.49419C14.2796 3.52384 14.3235 3.56694 14.3541 3.61908C14.3847 3.67121 14.401 3.73053 14.4012 3.79098V18.0952C14.4008 18.1546 14.3852 18.2129 14.3558 18.2645C14.3264 18.3161 14.2843 18.3593 14.2334 18.3899L8.48032 21.775C8.42842 21.8053 8.36948 21.8213 8.30942 21.8215C8.24937 21.8217 8.19031 21.8061 8.13821 21.7762C8.0861 21.7463 8.04279 21.7033 8.01261 21.6513C7.98243 21.5994 7.96646 21.5405 7.96631 21.4804V0.560645C7.96746 0.501711 7.98382 0.444077 8.01381 0.393331C8.0438 0.342584 8.08639 0.300453 8.13747 0.271022C8.18854 0.241591 8.24635 0.225856 8.30529 0.225354C8.36423 0.224852 8.42231 0.239597 8.47387 0.268154Z" fill="black"/>
<path d="M29.1268 12.7831H20.3757C20.4981 13.4304 20.8226 14.0223 21.3026 14.4735C21.7512 14.8805 22.338 15.1012 22.9436 15.0907C24.1322 15.0907 24.981 14.6312 25.49 13.7122L28.8666 14.4004C28.425 15.5565 27.6196 16.5377 26.5718 17.1963C25.4737 17.8416 24.2169 18.1665 22.9436 18.134C22.1182 18.1522 21.2976 18.005 20.53 17.701C19.7624 17.397 19.0635 16.9424 18.4745 16.364C17.2529 15.1811 16.6421 13.6627 16.6421 11.8088C16.6421 9.9549 17.2529 8.44081 18.4745 7.26654C19.0655 6.68317 19.7678 6.22469 20.5396 5.91839C21.3115 5.61209 22.1371 5.46423 22.9673 5.48362C23.7714 5.4645 24.5711 5.60842 25.3181 5.90671C26.0651 6.205 26.744 6.65148 27.3138 7.21923C28.4866 8.3763 29.0888 9.90615 29.1204 11.8088L29.1268 12.7831ZM21.4231 9.07312C20.9473 9.40618 20.6021 9.89429 20.4467 10.4539H25.3782C25.2444 9.8971 24.926 9.40207 24.4749 9.04947C24.0391 8.72953 23.5099 8.56244 22.9694 8.57416C22.4144 8.57429 21.8735 8.74883 21.4231 9.07312Z" fill="black"/>
<path d="M40.1834 17.2585C39.1879 17.8195 38.0677 18.1219 36.9251 18.1381C35.4196 18.1381 34.2504 17.7345 33.4173 16.9273C32.5843 16.1201 32.1685 14.9401 32.1699 13.3873V8.87082H30.0063V5.85986H32.1699V2.31982H35.9745V5.84049H39.4952V8.85146H35.9745V12.9894C35.9745 14.1465 36.5057 14.725 37.5682 14.725C38.1785 14.7225 38.7773 14.5585 39.3038 14.2497L40.1834 17.2585Z" fill="black"/>
<path d="M50.7176 17.2585C49.7221 17.8195 48.6018 18.1219 47.4593 18.1381C45.9538 18.1381 44.7846 17.7345 43.9515 16.9273C43.1185 16.1201 42.7027 14.9401 42.7041 13.3873V8.87082H40.5405V5.85986H42.7041V2.31982H46.5087V5.84049H50.0294V8.85146H46.5087V12.9894C46.5087 14.1465 47.0399 14.725 48.1023 14.725C48.7127 14.7225 49.3115 14.5585 49.838 14.2497L50.7176 17.2585Z" fill="black"/>
<path d="M58.3268 21.8202H54.2125L56.1482 17.3747L51.1865 5.81689H55.2728L58.1031 12.783L61.1141 5.81689H65.2004L58.3268 21.8202Z" fill="black"/>
<path d="M93.6732 6.85148C94.5234 7.76194 94.9478 8.96274 94.9464 10.4539V17.7662H91.1655V11.2625C91.1922 10.6445 90.9891 10.0385 90.5955 9.56135C90.4133 9.35052 90.1863 9.18313 89.931 9.07149C89.6757 8.95984 89.3986 8.90677 89.1201 8.91615C88.7735 8.89958 88.4279 8.96538 88.1116 9.10819C87.7954 9.251 87.5174 9.46674 87.3007 9.73771C86.8705 10.284 86.6555 11.1199 86.6555 12.2454V17.7856H82.8423V5.84926H86.6469V6.98912C87.5975 5.98547 88.8162 5.48364 90.303 5.48364C91.7038 5.48364 92.8272 5.93959 93.6732 6.85148Z" fill="black"/>
<path d="M110.33 17.7771H106.523V16.8286C105.559 17.7018 104.322 18.1377 102.814 18.1363C102.04 18.1476 101.273 17.9959 100.562 17.6909C99.8516 17.3859 99.2131 16.9345 98.6885 16.3662C97.5558 15.1833 96.9887 13.665 96.9873 11.8111C96.9859 9.95718 97.5529 8.44309 98.6885 7.26882C99.2112 6.69719 99.849 6.24276 100.56 5.93545C101.271 5.62815 102.039 5.47494 102.814 5.4859C104.322 5.4859 105.559 5.92178 106.523 6.79352V5.84291H110.33V17.7771ZM105.659 14.0327C106.216 13.4289 106.526 12.6372 106.526 11.8154C106.526 10.9936 106.216 10.2019 105.659 9.59802C105.395 9.31753 105.076 9.09462 104.722 8.94325C104.367 8.79189 103.986 8.71532 103.601 8.71838C103.214 8.70567 102.83 8.77588 102.473 8.92427C102.116 9.07267 101.795 9.2958 101.532 9.57866C101.009 10.2041 100.723 10.993 100.723 11.8079C100.723 12.6227 101.009 13.4116 101.532 14.037C101.796 14.3191 102.117 14.5417 102.474 14.6901C102.83 14.8384 103.215 14.909 103.601 14.8973C103.985 14.9013 104.365 14.8266 104.719 14.6779C105.073 14.5292 105.393 14.3097 105.659 14.0327Z" fill="black"/>
<path d="M124.159 6.85148C125.007 7.76194 125.43 8.96274 125.43 10.4539V17.7662H121.649V11.2625C121.677 10.6444 121.474 10.038 121.079 9.56135C120.897 9.35052 120.67 9.18313 120.415 9.07149C120.16 8.95984 119.883 8.90677 119.604 8.91615C119.257 8.89958 118.912 8.96538 118.596 9.10819C118.279 9.251 118.001 9.46674 117.785 9.73771C117.354 10.284 117.139 11.1199 117.139 12.2454V17.7856H113.326V5.84926H117.131V6.98912C118.083 5.98547 119.302 5.48364 120.787 5.48364C122.188 5.48364 123.312 5.93959 124.159 6.85148Z" fill="black"/>
<path d="M136.584 12.7121L140.079 13.4735C139.803 14.8259 139.037 16.0285 137.928 16.8501C136.794 17.7114 135.403 18.166 133.979 18.1405C132.265 18.1823 130.604 17.5462 129.355 16.3705C128.092 15.1876 127.462 13.6692 127.465 11.8153C127.468 9.96142 128.098 8.44734 129.355 7.27306C130.6 6.09017 132.263 5.44902 133.979 5.49014C135.383 5.46691 136.756 5.91016 137.881 6.75045C138.987 7.56072 139.763 8.74284 140.068 10.0797L136.5 10.94C136.39 10.3246 136.071 9.76609 135.597 9.35923C135.137 8.99664 134.565 8.8071 133.979 8.82371C133.594 8.8084 133.21 8.87571 132.853 9.02113C132.497 9.16655 132.175 9.3867 131.91 9.66678C131.403 10.2716 131.125 11.0357 131.125 11.825C131.125 12.6143 131.403 13.3784 131.91 13.9832C132.177 14.2606 132.499 14.4782 132.855 14.6217C133.212 14.7652 133.595 14.8312 133.979 14.8155C135.318 14.8084 136.187 14.1072 136.584 12.7121Z" fill="black"/>
<path d="M153.99 12.783H145.238C145.36 13.4306 145.685 14.0227 146.165 14.4734C146.614 14.8804 147.201 15.1011 147.806 15.0906C148.995 15.0906 149.843 14.6311 150.351 13.7121L153.727 14.4003C153.286 15.5568 152.481 16.5382 151.432 17.1962C150.335 17.8418 149.079 18.1666 147.806 18.1339C146.981 18.1519 146.16 18.0046 145.392 17.7007C144.624 17.3967 143.925 16.9422 143.335 16.3639C142.122 15.181 141.516 13.6626 141.516 11.8087C141.516 9.9548 142.126 8.44072 143.346 7.26644C143.937 6.68302 144.64 6.22452 145.412 5.91822C146.184 5.61192 147.01 5.46409 147.841 5.48353C148.646 5.46353 149.447 5.60703 150.195 5.90534C150.943 6.20366 151.623 6.65059 152.194 7.21913C153.365 8.3762 153.967 9.90605 154 11.8087L153.99 12.783ZM146.284 9.07303C145.808 9.40618 145.464 9.89435 145.309 10.4538H150.232C150.099 9.89701 149.78 9.40198 149.329 9.04937C148.893 8.72972 148.364 8.56266 147.824 8.57406C147.271 8.57626 146.733 8.75067 146.284 9.07303Z" fill="black"/>
<path d="M71.8139 5.84068V5.07934C71.8016 4.87399 71.8347 4.66844 71.9109 4.47736C71.9871 4.28627 72.1045 4.11436 72.2548 3.97389C72.5755 3.70158 72.9874 3.56094 73.4076 3.58031C73.7282 3.5984 74.0464 3.64592 74.3582 3.72226L75.0593 0.726352C74.3686 0.46144 73.6355 0.32443 72.8957 0.322021C71.4204 0.322021 70.2432 0.738538 69.3643 1.57157C68.4854 2.4046 68.0452 3.51794 68.0438 4.91159V5.84068H66.3232V8.85165H68.0438V17.7684H71.8247V8.87101H73.5453V5.86004L71.8139 5.84068Z" fill="black"/>
<path d="M79.6703 5.84058H75.8657V17.7791H79.6703V5.84058Z" fill="black"/>
</svg>
