<svg width="34" height="40" viewBox="0 0 34 40" fill="none" xmlns="http://www.w3.org/2000/svg">
<path d="M17.215 6.57653C10.617 6.57653 5.24426 11.9448 5.24426 18.5472C5.24426 22.6695 7.32433 26.4501 10.8148 28.6608C11.9053 29.3514 12.5453 30.4083 12.6591 31.6544C12.0908 31.7216 11.6485 32.1976 11.6485 32.7827V35.5701C11.6485 36.1973 12.158 36.7113 12.7898 36.7113H12.874V37.4357C12.874 38.6062 13.8255 39.5579 14.9962 39.5579H19.7625C20.933 39.5579 21.8847 38.6065 21.8847 37.4357V36.6862C22.3983 36.5769 22.7856 36.1179 22.7856 35.5705V32.7831C22.7856 32.1977 22.3434 31.722 21.775 31.6547C21.8886 30.4042 22.5287 29.3515 23.6193 28.6612C27.1057 26.4505 29.1899 22.6695 29.1899 18.5476C29.1851 11.9455 23.8168 6.57689 17.2149 6.57689L17.215 6.57653ZM12.8695 35.4901V32.867H21.5603V35.4901H12.8695ZM20.6588 37.4396C20.6588 37.9365 20.2545 38.3405 19.7579 38.3405H14.9956C14.4987 38.3405 14.0947 37.9362 14.0947 37.4396V36.7152H20.6588V37.4396ZM22.9618 27.6289C21.5302 28.534 20.6672 29.9827 20.545 31.6456H13.8923C13.7701 29.9865 12.9029 28.5382 11.4755 27.6289C8.34298 25.6456 6.47326 22.2477 6.47326 18.5467C6.47326 12.6226 11.2944 7.80174 17.2183 7.80174C23.1421 7.80174 27.9633 12.6229 27.9633 18.5467C27.9635 22.2476 26.0941 25.6413 22.9613 27.6289H22.9618ZM16.1703 3.56603V1.05239C16.1703 0.715616 16.444 0.441895 16.7808 0.441895C17.1175 0.441895 17.3912 0.715609 17.3912 1.05239V3.56603C17.3912 3.9028 17.1175 4.17652 16.7808 4.17652C16.444 4.17652 16.1703 3.90281 16.1703 3.56603ZM24.3895 5.20803L25.6443 3.0311C25.8128 2.74064 26.1875 2.63964 26.478 2.80789C26.7684 2.97642 26.8694 3.35114 26.7012 3.6416L25.4465 5.81853C25.3329 6.01635 25.1264 6.12601 24.9161 6.12601C24.8109 6.12601 24.7054 6.10062 24.6128 6.04593C24.322 5.87322 24.221 5.49845 24.3895 5.20803ZM33.476 10.5387L31.299 11.7934C31.2022 11.8481 31.097 11.8735 30.9958 11.8735C30.7851 11.8735 30.5789 11.7641 30.4653 11.566C30.2968 11.2755 30.3981 10.9008 30.6886 10.7323L32.8655 9.47756C33.1559 9.30903 33.5307 9.41032 33.6992 9.70077C33.8677 9.9996 33.7664 10.3702 33.476 10.5387ZM6.97955 4.07553C6.81102 3.78507 6.9123 3.41035 7.20276 3.24182C7.49741 3.07329 7.86794 3.17457 8.03648 3.46503L9.29119 5.64196C9.45972 5.93242 9.35843 6.30714 9.06798 6.47567C8.97115 6.53036 8.86597 6.55575 8.76468 6.55575C8.55403 6.55575 8.34783 6.44638 8.23427 6.24827L6.97955 4.07553ZM3.53505 12.3241C3.42149 12.5219 3.21501 12.6316 3.00463 12.6316C2.89944 12.6316 2.79398 12.6062 2.70134 12.5515L0.524412 11.2968C0.233955 11.1283 0.132948 10.7535 0.301198 10.4631C0.469726 10.1726 0.844447 10.0716 1.13491 10.2399L3.31184 11.4946C3.60676 11.6589 3.70776 12.0295 3.53505 12.3241Z" fill="black"/>
</svg>
