<svg width="464" height="139" viewBox="0 0 464 139" fill="none" xmlns="http://www.w3.org/2000/svg">
<mask id="mask0_43_324" style="mask-type:alpha" maskUnits="userSpaceOnUse" x="123" y="22" width="219" height="41">
<path d="M139.35 62.624C137.409 62.624 135.606 62.2773 133.942 61.584C132.313 60.856 130.995 59.7987 129.99 58.412L130.718 56.8V62H123.438V22.636H131.238V39.016L130.042 37.456C130.978 36.0347 132.243 34.9427 133.838 34.18C135.467 33.3827 137.322 32.984 139.402 32.984C142.106 32.984 144.55 33.6427 146.734 34.96C148.918 36.2773 150.651 38.0627 151.934 40.316C153.217 42.5347 153.858 45.0307 153.858 47.804C153.858 50.5427 153.217 53.0387 151.934 55.292C150.686 57.5453 148.97 59.3307 146.786 60.648C144.602 61.9653 142.123 62.624 139.35 62.624ZM138.414 55.604C139.87 55.604 141.153 55.2747 142.262 54.616C143.371 53.9573 144.238 53.0387 144.862 51.86C145.486 50.6813 145.798 49.3293 145.798 47.804C145.798 46.2787 145.486 44.944 144.862 43.8C144.238 42.6213 143.371 41.7027 142.262 41.044C141.153 40.3507 139.87 40.004 138.414 40.004C137.027 40.004 135.779 40.3333 134.67 40.992C133.595 41.6507 132.746 42.5693 132.122 43.748C131.533 44.9267 131.238 46.2787 131.238 47.804C131.238 49.3293 131.533 50.6813 132.122 51.86C132.746 53.0387 133.595 53.9573 134.67 54.616C135.779 55.2747 137.027 55.604 138.414 55.604ZM168.618 62.624C166.33 62.624 164.371 62.1387 162.742 61.168C161.147 60.1627 159.934 58.776 159.102 57.008C158.27 55.24 157.854 53.1773 157.854 50.82V33.608H165.654V50.196C165.654 51.2707 165.862 52.224 166.278 53.056C166.729 53.8533 167.353 54.4773 168.15 54.928C168.947 55.3787 169.849 55.604 170.854 55.604C171.894 55.604 172.795 55.3787 173.558 54.928C174.355 54.4773 174.962 53.8533 175.378 53.056C175.829 52.224 176.054 51.2707 176.054 50.196V33.608H183.854V62H176.574V56.384L176.99 57.632C176.331 59.3307 175.257 60.596 173.766 61.428C172.31 62.2253 170.594 62.624 168.618 62.624ZM200.683 62.624C197.563 62.624 194.842 61.896 192.519 60.44C190.231 58.9493 188.671 56.956 187.839 54.46L193.559 51.756C194.287 53.2813 195.275 54.4773 196.523 55.344C197.771 56.2107 199.158 56.644 200.683 56.644C201.792 56.644 202.642 56.4187 203.231 55.968C203.82 55.5173 204.115 54.8933 204.115 54.096C204.115 53.68 204.011 53.3333 203.803 53.056C203.595 52.744 203.283 52.4667 202.867 52.224C202.451 51.9813 201.931 51.7733 201.307 51.6L196.471 50.248C194.148 49.5893 192.363 48.532 191.115 47.076C189.867 45.5853 189.243 43.8347 189.243 41.824C189.243 40.056 189.694 38.5133 190.595 37.196C191.496 35.8787 192.762 34.856 194.391 34.128C196.02 33.3653 197.892 32.984 200.007 32.984C202.78 32.984 205.207 33.6427 207.287 34.96C209.402 36.2427 210.892 38.0627 211.759 40.42L205.987 43.124C205.571 41.9453 204.808 41.0093 203.699 40.316C202.624 39.588 201.394 39.224 200.007 39.224C199.002 39.224 198.204 39.432 197.615 39.848C197.06 40.264 196.783 40.836 196.783 41.564C196.783 41.9453 196.887 42.292 197.095 42.604C197.303 42.916 197.632 43.1933 198.083 43.436C198.568 43.6787 199.158 43.904 199.851 44.112L204.375 45.464C206.732 46.1573 208.535 47.2147 209.783 48.636C211.031 50.0227 211.655 51.7387 211.655 53.784C211.655 55.552 211.187 57.0947 210.251 58.412C209.35 59.7293 208.084 60.7693 206.455 61.532C204.826 62.26 202.902 62.624 200.683 62.624ZM216.317 62V33.608H224.117V62H216.317ZM216.317 31.06V23.26H224.117V31.06H216.317ZM229.825 62V33.608H237.105V39.224L236.689 37.976C237.347 36.2773 238.405 35.0293 239.861 34.232C241.351 33.4 243.085 32.984 245.061 32.984C247.21 32.984 249.082 33.4347 250.677 34.336C252.306 35.2373 253.571 36.5027 254.473 38.132C255.374 39.7267 255.825 41.5987 255.825 43.748V62H248.025V45.412C248.025 44.3027 247.799 43.3493 247.349 42.552C246.933 41.7547 246.326 41.1307 245.529 40.68C244.766 40.2293 243.865 40.004 242.825 40.004C241.819 40.004 240.918 40.2293 240.121 40.68C239.323 41.1307 238.699 41.7547 238.249 42.552C237.833 43.3493 237.625 44.3027 237.625 45.412V62H229.825ZM274.63 62.624C271.614 62.624 268.996 61.9653 266.778 60.648C264.559 59.296 262.843 57.4933 261.63 55.24C260.416 52.9867 259.81 50.4907 259.81 47.752C259.81 44.9093 260.434 42.3787 261.682 40.16C262.964 37.9413 264.68 36.1907 266.83 34.908C268.979 33.6253 271.406 32.984 274.11 32.984C276.363 32.984 278.356 33.348 280.09 34.076C281.823 34.7693 283.279 35.7573 284.458 37.04C285.671 38.3227 286.59 39.8133 287.214 41.512C287.838 43.176 288.15 44.996 288.15 46.972C288.15 47.5267 288.115 48.0813 288.046 48.636C288.011 49.156 287.924 49.6067 287.786 49.988H266.518V44.268H283.366L279.674 46.972C280.02 45.4813 280.003 44.164 279.622 43.02C279.24 41.8413 278.564 40.9227 277.594 40.264C276.658 39.5707 275.496 39.224 274.11 39.224C272.758 39.224 271.596 39.5533 270.626 40.212C269.655 40.8707 268.927 41.8413 268.442 43.124C267.956 44.4067 267.766 45.9667 267.87 47.804C267.731 49.3987 267.922 50.8027 268.442 52.016C268.962 53.2293 269.759 54.1827 270.834 54.876C271.908 55.5347 273.208 55.864 274.734 55.864C276.12 55.864 277.299 55.5867 278.27 55.032C279.275 54.4773 280.055 53.7147 280.61 52.744L286.85 55.708C286.295 57.0947 285.411 58.308 284.198 59.348C283.019 60.388 281.615 61.2027 279.986 61.792C278.356 62.3467 276.571 62.624 274.63 62.624ZM303.871 62.624C300.751 62.624 298.029 61.896 295.707 60.44C293.419 58.9493 291.859 56.956 291.027 54.46L296.747 51.756C297.475 53.2813 298.463 54.4773 299.711 55.344C300.959 56.2107 302.345 56.644 303.871 56.644C304.98 56.644 305.829 56.4187 306.419 55.968C307.008 55.5173 307.303 54.8933 307.303 54.096C307.303 53.68 307.199 53.3333 306.991 53.056C306.783 52.744 306.471 52.4667 306.055 52.224C305.639 51.9813 305.119 51.7733 304.495 51.6L299.659 50.248C297.336 49.5893 295.551 48.532 294.303 47.076C293.055 45.5853 292.431 43.8347 292.431 41.824C292.431 40.056 292.881 38.5133 293.783 37.196C294.684 35.8787 295.949 34.856 297.579 34.128C299.208 33.3653 301.08 32.984 303.195 32.984C305.968 32.984 308.395 33.6427 310.475 34.96C312.589 36.2427 314.08 38.0627 314.947 40.42L309.175 43.124C308.759 41.9453 307.996 41.0093 306.887 40.316C305.812 39.588 304.581 39.224 303.195 39.224C302.189 39.224 301.392 39.432 300.803 39.848C300.248 40.264 299.971 40.836 299.971 41.564C299.971 41.9453 300.075 42.292 300.283 42.604C300.491 42.916 300.82 43.1933 301.271 43.436C301.756 43.6787 302.345 43.904 303.039 44.112L307.563 45.464C309.92 46.1573 311.723 47.2147 312.971 48.636C314.219 50.0227 314.843 51.7387 314.843 53.784C314.843 55.552 314.375 57.0947 313.439 58.412C312.537 59.7293 311.272 60.7693 309.643 61.532C308.013 62.26 306.089 62.624 303.871 62.624ZM330.632 62.624C327.512 62.624 324.791 61.896 322.468 60.44C320.18 58.9493 318.62 56.956 317.788 54.46L323.508 51.756C324.236 53.2813 325.224 54.4773 326.472 55.344C327.72 56.2107 329.107 56.644 330.632 56.644C331.742 56.644 332.591 56.4187 333.18 55.968C333.77 55.5173 334.064 54.8933 334.064 54.096C334.064 53.68 333.96 53.3333 333.752 53.056C333.544 52.744 333.232 52.4667 332.816 52.224C332.4 51.9813 331.88 51.7733 331.256 51.6L326.42 50.248C324.098 49.5893 322.312 48.532 321.064 47.076C319.816 45.5853 319.192 43.8347 319.192 41.824C319.192 40.056 319.643 38.5133 320.544 37.196C321.446 35.8787 322.711 34.856 324.34 34.128C325.97 33.3653 327.842 32.984 329.956 32.984C332.73 32.984 335.156 33.6427 337.236 34.96C339.351 36.2427 340.842 38.0627 341.708 40.42L335.936 43.124C335.52 41.9453 334.758 41.0093 333.648 40.316C332.574 39.588 331.343 39.224 329.956 39.224C328.951 39.224 328.154 39.432 327.564 39.848C327.01 40.264 326.732 40.836 326.732 41.564C326.732 41.9453 326.836 42.292 327.044 42.604C327.252 42.916 327.582 43.1933 328.032 43.436C328.518 43.6787 329.107 43.904 329.8 44.112L334.324 45.464C336.682 46.1573 338.484 47.2147 339.732 48.636C340.98 50.0227 341.604 51.7387 341.604 53.784C341.604 55.552 341.136 57.0947 340.2 58.412C339.299 59.7293 338.034 60.7693 336.404 61.532C334.775 62.26 332.851 62.624 330.632 62.624Z" fill="#18181B"/>
<path d="M133.942 61.584L130.678 68.8881L130.771 68.9295L130.865 68.9686L133.942 61.584ZM129.99 58.412L122.699 55.1193L120.788 59.3497L123.513 63.1077L129.99 58.412ZM130.718 56.8H138.718L123.427 53.5073L130.718 56.8ZM130.718 62V70H138.718V62H130.718ZM123.438 62H115.438V70H123.438V62ZM123.438 22.636V14.636H115.438V22.636H123.438ZM131.238 22.636H139.238V14.636H131.238V22.636ZM131.238 39.016L124.889 43.8834L139.238 62.5993V39.016H131.238ZM130.042 37.456L123.361 33.0561L120.231 37.808L123.693 42.3235L130.042 37.456ZM133.838 34.18L137.29 41.3971L137.322 41.3815L137.354 41.3657L133.838 34.18ZM146.734 34.96L150.866 28.1097L146.734 34.96ZM151.934 40.316L144.981 44.2736L144.995 44.2968L145.008 44.32L151.934 40.316ZM151.934 55.292L144.981 51.3344L144.958 51.3751L144.936 51.416L151.934 55.292ZM146.786 60.648L142.654 53.7977L146.786 60.648ZM142.262 54.616L146.346 61.4948L142.262 54.616ZM144.862 51.86L137.792 48.1169V48.1169L144.862 51.86ZM144.862 43.8L137.792 47.5431L137.815 47.5871L137.839 47.6308L144.862 43.8ZM142.262 41.044L138.022 47.828L138.099 47.8763L138.178 47.9228L142.262 41.044ZM134.67 40.992L130.586 34.1132L130.537 34.1418L130.489 34.1712L134.67 40.992ZM132.122 43.748L125.052 40.0049L125.008 40.0871L124.966 40.1703L132.122 43.748ZM132.122 51.86L124.966 55.4377L125.008 55.5209L125.052 55.6031L132.122 51.86ZM134.67 54.616L130.489 61.4368L130.537 61.4662L130.586 61.4948L134.67 54.616ZM139.35 54.624C138.383 54.624 137.635 54.4561 137.019 54.1994L130.865 68.9686C133.577 70.0986 136.434 70.624 139.35 70.624V54.624ZM137.205 54.2799C136.801 54.0994 136.613 53.918 136.467 53.7163L123.513 63.1077C125.377 65.6793 127.824 67.6126 130.678 68.8881L137.205 54.2799ZM137.281 61.7047L138.009 60.0927L123.427 53.5073L122.699 55.1193L137.281 61.7047ZM122.718 56.8V62H138.718V56.8H122.718ZM130.718 54H123.438V70H130.718V54ZM131.438 62V22.636H115.438V62H131.438ZM123.438 30.636H131.238V14.636H123.438V30.636ZM123.238 22.636V39.016H139.238V22.636H123.238ZM137.587 34.1485L136.391 32.5885L123.693 42.3235L124.889 43.8834L137.587 34.1485ZM136.723 41.8559C136.827 41.6982 136.954 41.5573 137.29 41.3971L130.386 26.9629C127.532 28.328 125.129 30.3711 123.361 33.0561L136.723 41.8559ZM137.354 41.3657C137.739 41.1777 138.362 40.984 139.402 40.984V24.984C136.282 24.984 133.196 25.5876 130.321 26.9943L137.354 41.3657ZM139.402 40.984C140.741 40.984 141.741 41.2909 142.602 41.8103L150.866 28.1097C147.359 25.9944 143.471 24.984 139.402 24.984V40.984ZM142.602 41.8103C143.594 42.4085 144.364 43.1893 144.981 44.2736L158.886 36.3584C156.938 32.936 154.242 30.1462 150.866 28.1097L142.602 41.8103ZM145.008 44.32C145.53 45.2224 145.858 46.3173 145.858 47.804H161.858C161.858 43.744 160.903 39.847 158.86 36.312L145.008 44.32ZM145.858 47.804C145.858 49.2359 145.539 50.3556 144.981 51.3344L158.886 59.2496C160.895 55.7218 161.858 51.8494 161.858 47.804H145.858ZM144.936 51.416C144.359 52.4568 143.626 53.2113 142.654 53.7977L150.918 67.4983C154.314 65.4501 157.013 62.6338 158.932 59.168L144.936 51.416ZM142.654 53.7977C141.825 54.2977 140.799 54.624 139.35 54.624V70.624C143.448 70.624 147.379 69.633 150.918 67.4983L142.654 53.7977ZM138.414 63.604C141.118 63.604 143.848 62.9782 146.346 61.4948L138.178 47.7372C138.232 47.705 138.288 47.677 138.343 47.6542C138.398 47.6314 138.445 47.617 138.478 47.6083C138.548 47.5905 138.537 47.604 138.414 47.604V63.604ZM146.346 61.4948C148.764 60.0591 150.644 58.0356 151.932 55.6031L137.792 48.1169C137.797 48.106 137.837 48.0357 137.925 47.9432C138.013 47.8494 138.106 47.7796 138.178 47.7372L146.346 61.4948ZM151.932 55.6031C153.249 53.1149 153.798 50.4451 153.798 47.804H137.798C137.798 48.0204 137.776 48.1321 137.769 48.1631C137.763 48.1897 137.766 48.1658 137.792 48.1169L151.932 55.6031ZM153.798 47.804C153.798 45.1693 153.251 42.4743 151.885 39.9692L137.839 47.6308C137.815 47.5876 137.798 47.5495 137.787 47.5199C137.776 47.4907 137.773 47.476 137.774 47.48C137.776 47.4877 137.798 47.5865 137.798 47.804H153.798ZM151.932 40.0569C150.644 37.6244 148.764 35.6009 146.346 34.1652L138.178 47.9228C138.106 47.8804 138.013 47.8106 137.925 47.7168C137.837 47.6243 137.797 47.554 137.792 47.5431L151.932 40.0569ZM146.502 34.26C143.981 32.6842 141.195 32.004 138.414 32.004V48.004C138.504 48.004 138.481 48.0141 138.381 47.9869C138.274 47.9581 138.145 47.9051 138.022 47.828L146.502 34.26ZM138.414 32.004C135.701 32.004 133.023 32.6657 130.586 34.1132L138.754 47.8708C138.671 47.9205 138.572 47.9616 138.479 47.9862C138.389 48.0099 138.359 48.004 138.414 48.004V32.004ZM130.489 34.1712C128.122 35.6225 126.305 37.6366 125.052 40.0049L139.192 47.4911C139.201 47.4735 139.176 47.5244 139.101 47.6058C139.024 47.6894 138.934 47.7616 138.85 47.8128L130.489 34.1712ZM124.966 40.1703C123.74 42.6225 123.238 45.2324 123.238 47.804H139.238C139.238 47.5565 139.262 47.4123 139.275 47.3496C139.288 47.2909 139.295 47.2912 139.277 47.3257L124.966 40.1703ZM123.238 47.804C123.238 50.3756 123.74 52.9855 124.966 55.4377L139.277 48.2823C139.295 48.3168 139.288 48.3171 139.275 48.2584C139.262 48.1957 139.238 48.0515 139.238 47.804H123.238ZM125.052 55.6031C126.305 57.9714 128.122 59.9855 130.489 61.4368L138.85 47.7952C138.934 47.8464 139.024 47.9186 139.101 48.0022C139.176 48.0836 139.201 48.1345 139.192 48.1169L125.052 55.6031ZM130.586 61.4948C133.023 62.9423 135.701 63.604 138.414 63.604V47.604C138.359 47.604 138.389 47.5981 138.479 47.6218C138.572 47.6464 138.671 47.6875 138.754 47.7372L130.586 61.4948ZM162.742 61.168L158.476 67.9354L158.561 67.9892L158.648 68.0408L162.742 61.168ZM159.102 57.008L151.864 60.4144L159.102 57.008ZM157.854 33.608V25.608H149.854V33.608H157.854ZM165.654 33.608H173.654V25.608H165.654V33.608ZM166.278 53.056L159.123 56.6337L159.214 56.8155L159.314 56.9925L166.278 53.056ZM168.15 54.928L172.087 47.9635L168.15 54.928ZM173.558 54.928L169.622 47.9635L169.555 48.0014L169.488 48.0406L173.558 54.928ZM175.378 53.056L168.344 49.2457L168.314 49.3004L168.285 49.3555L175.378 53.056ZM176.054 33.608V25.608H168.054V33.608H176.054ZM183.854 33.608H191.854V25.608H183.854V33.608ZM183.854 62V70H191.854V62H183.854ZM176.574 62H168.574V70H176.574V62ZM176.574 56.384L184.164 53.8542L168.574 56.384H176.574ZM176.99 57.632L184.449 60.5242L185.491 57.8367L184.58 55.1022L176.99 57.632ZM173.766 61.428L177.609 68.4448L177.637 68.4293L177.665 68.4136L173.766 61.428ZM168.618 54.624C167.473 54.624 166.994 54.3892 166.837 54.2952L158.648 68.0408C161.749 69.8882 165.187 70.624 168.618 70.624V54.624ZM167.009 54.4006C166.754 54.2399 166.548 54.0419 166.341 53.6016L151.864 60.4144C153.32 63.5101 155.541 66.0854 158.476 67.9354L167.009 54.4006ZM166.341 53.6016C166.103 53.0963 165.854 52.2389 165.854 50.82H149.854C149.854 54.1158 150.437 57.3837 151.864 60.4144L166.341 53.6016ZM165.854 50.82V33.608H149.854V50.82H165.854ZM157.854 41.608H165.654V25.608H157.854V41.608ZM157.654 33.608V50.196H173.654V33.608H157.654ZM157.654 50.196C157.654 52.3195 158.071 54.5302 159.123 56.6337L173.434 49.4783C173.537 49.685 173.596 49.871 173.626 50.0117C173.656 50.1484 173.654 50.2171 173.654 50.196H157.654ZM159.314 56.9925C160.48 59.0555 162.151 60.7264 164.214 61.8925L172.087 47.9635C172.294 48.0807 172.522 48.2464 172.741 48.4651C172.96 48.6839 173.125 48.9122 173.243 49.1195L159.314 56.9925ZM164.214 61.8925C166.327 63.0869 168.608 63.604 170.854 63.604V47.604C170.952 47.604 171.131 47.6155 171.364 47.6739C171.602 47.7332 171.85 47.8296 172.087 47.9635L164.214 61.8925ZM170.854 63.604C173.074 63.604 175.433 63.1126 177.628 61.8154L169.488 48.0406C170.158 47.6448 170.714 47.604 170.854 47.604V63.604ZM177.495 61.8925C179.611 60.6963 181.326 58.9503 182.471 56.7565L168.285 49.3555C168.424 49.0894 168.62 48.808 168.875 48.5454C169.13 48.2835 169.392 48.0931 169.622 47.9635L177.495 61.8925ZM182.412 56.8663C183.579 54.7134 184.054 52.4184 184.054 50.196H168.054C168.054 50.173 168.057 50.0582 168.1 49.8768C168.144 49.6909 168.221 49.472 168.344 49.2457L182.412 56.8663ZM184.054 50.196V33.608H168.054V50.196H184.054ZM176.054 41.608H183.854V25.608H176.054V41.608ZM175.854 33.608V62H191.854V33.608H175.854ZM183.854 54H176.574V70H183.854V54ZM184.574 62V56.384H168.574V62H184.574ZM168.985 58.9138L169.401 60.1618L184.58 55.1022L184.164 53.8542L168.985 58.9138ZM169.531 54.7398C169.494 54.8371 169.498 54.7875 169.593 54.6762C169.637 54.6245 169.688 54.574 169.743 54.5292C169.797 54.4847 169.842 54.4567 169.867 54.4424L177.665 68.4136C180.897 66.6097 183.166 63.8344 184.449 60.5242L169.531 54.7398ZM169.924 54.4112C169.851 54.451 169.507 54.624 168.618 54.624V70.624C171.682 70.624 174.769 69.9997 177.609 68.4448L169.924 54.4112ZM192.519 60.44L188.152 67.1429L188.211 67.1811L188.27 67.2183L192.519 60.44ZM187.839 54.46L184.42 47.2274L178.006 50.2594L180.25 56.9898L187.839 54.46ZM193.559 51.756L200.779 48.3102L197.346 41.117L190.14 44.5234L193.559 51.756ZM196.523 55.344L191.96 61.915L196.523 55.344ZM203.231 55.968L208.091 62.3229L203.231 55.968ZM203.803 53.056L197.147 57.4936L197.27 57.6784L197.403 57.856L203.803 53.056ZM201.307 51.6L199.153 59.3046L199.166 59.3081L201.307 51.6ZM196.471 50.248L194.288 57.9445L194.303 57.9486L194.317 57.9526L196.471 50.248ZM191.115 47.076L184.981 52.2115L185.011 52.2471L185.041 52.2823L191.115 47.076ZM194.391 34.128L197.655 41.4321L197.719 41.4034L197.783 41.3735L194.391 34.128ZM207.287 34.96L203.007 41.7186L203.072 41.7599L203.138 41.8001L207.287 34.96ZM211.759 40.42L215.153 47.6645L221.801 44.55L219.268 37.6595L211.759 40.42ZM205.987 43.124L198.443 45.7866L201.383 54.1153L209.381 50.3685L205.987 43.124ZM203.699 40.316L199.212 46.9394L199.334 47.0219L199.459 47.1L203.699 40.316ZM197.615 39.848L193.002 33.3123L192.907 33.3788L192.815 33.448L197.615 39.848ZM197.095 42.604L190.439 47.0416L190.439 47.0416L197.095 42.604ZM198.083 43.436L194.29 50.4798L194.397 50.5372L194.505 50.5914L198.083 43.436ZM199.851 44.112L197.552 51.7746L197.56 51.777L199.851 44.112ZM204.375 45.464L202.084 53.129L202.101 53.134L202.118 53.1389L204.375 45.464ZM209.783 48.636L203.772 53.9144L203.804 53.9513L203.837 53.9877L209.783 48.636ZM210.251 58.412L203.73 53.7783L203.689 53.8361L203.649 53.8945L210.251 58.412ZM206.455 61.532L209.719 68.8361L209.783 68.8074L209.847 68.7775L206.455 61.532ZM200.683 54.624C198.853 54.624 197.648 54.2135 196.768 53.6617L188.27 67.2183C192.035 69.5785 196.273 70.624 200.683 70.624V54.624ZM196.886 53.7371C196.051 53.193 195.666 52.642 195.429 51.9302L180.25 56.9898C181.676 61.27 184.411 64.7057 188.152 67.1429L196.886 53.7371ZM191.258 61.6926L196.978 58.9886L190.14 44.5234L184.42 47.2274L191.258 61.6926ZM186.339 55.2018C187.597 57.8378 189.445 60.1687 191.96 61.915L201.086 48.773C201.074 48.7649 201.053 48.749 201.014 48.7019C200.972 48.6514 200.886 48.5344 200.779 48.3102L186.339 55.2018ZM191.96 61.915C194.553 63.7159 197.533 64.644 200.683 64.644V48.644C200.682 48.644 200.703 48.644 200.743 48.6499C200.783 48.6558 200.832 48.6664 200.885 48.6832C201.002 48.7198 201.074 48.7643 201.086 48.773L191.96 61.915ZM200.683 64.644C202.719 64.644 205.566 64.2537 208.091 62.3229L198.371 49.6131C199.718 48.5836 200.866 48.644 200.683 48.644V64.644ZM208.091 62.3229C210.825 60.2323 212.115 57.1696 212.115 54.096H196.115C196.115 53.4965 196.23 52.6562 196.66 51.746C197.099 50.8171 197.729 50.1041 198.371 49.6131L208.091 62.3229ZM212.115 54.096C212.115 52.3051 211.645 50.1782 210.203 48.256L197.403 57.856C196.377 56.4885 196.115 55.0549 196.115 54.096H212.115ZM210.459 48.6184C209.412 47.0472 208.077 46.0014 206.898 45.3138L198.836 59.1342C198.489 58.932 197.778 58.4408 197.147 57.4936L210.459 48.6184ZM206.898 45.3138C205.725 44.6297 204.522 44.1902 203.448 43.8919L199.166 59.3081C199.239 59.3284 199.243 59.3335 199.194 59.3138C199.146 59.2945 199.018 59.2401 198.836 59.1342L206.898 45.3138ZM203.461 43.8954L198.625 42.5434L194.317 57.9526L199.153 59.3046L203.461 43.8954ZM198.654 42.5515C198.051 42.3805 197.678 42.2029 197.467 42.0776C197.265 41.9584 197.199 41.8808 197.189 41.8697L185.041 52.2823C187.549 55.2086 190.844 56.9676 194.288 57.9445L198.654 42.5515ZM197.249 41.9405C197.222 41.9087 197.218 41.8979 197.224 41.9083C197.23 41.9192 197.239 41.9377 197.247 41.959C197.254 41.9801 197.254 41.9876 197.252 41.974C197.25 41.9594 197.243 41.9118 197.243 41.824H181.243C181.243 45.6425 182.483 49.2283 184.981 52.2115L197.249 41.9405ZM197.243 41.824C197.243 41.7221 197.25 41.6555 197.254 41.6193C197.259 41.5837 197.263 41.5739 197.26 41.5843C197.257 41.5952 197.249 41.6171 197.236 41.6453C197.223 41.6735 197.209 41.6971 197.198 41.7135L183.993 32.6785C182.084 35.4683 181.243 38.6247 181.243 41.824H197.243ZM197.198 41.7135C197.201 41.7088 197.209 41.6951 197.249 41.6629C197.293 41.6271 197.412 41.5404 197.655 41.4321L191.128 26.8239C188.313 28.0815 185.824 30.0019 183.993 32.6785L197.198 41.7135ZM197.783 41.3735C198.18 41.1875 198.861 40.984 200.007 40.984V24.984C196.924 24.984 193.861 25.5431 191 26.8825L197.783 41.3735ZM200.007 40.984C201.462 40.984 202.364 41.3115 203.007 41.7186L211.567 28.2014C208.05 25.9738 204.099 24.984 200.007 24.984V40.984ZM203.138 41.8001C203.677 42.127 203.999 42.4957 204.25 43.1805L219.268 37.6595C217.786 33.6296 215.126 30.3583 211.436 28.1199L203.138 41.8001ZM208.365 33.1755L202.593 35.8795L209.381 50.3685L215.153 47.6645L208.365 33.1755ZM213.531 40.4614C212.482 37.4906 210.507 35.1372 207.939 33.532L199.459 47.1C199.331 47.0202 199.119 46.8585 198.901 46.5914C198.681 46.3205 198.531 46.0344 198.443 45.7866L213.531 40.4614ZM208.186 33.6926C205.695 32.0052 202.878 31.224 200.007 31.224V47.224C199.994 47.224 199.879 47.2211 199.701 47.1685C199.519 47.1145 199.348 47.0313 199.212 46.9394L208.186 33.6926ZM200.007 31.224C197.981 31.224 195.378 31.6347 193.002 33.3123L202.229 46.3837C201.031 47.2293 200.023 47.224 200.007 47.224V31.224ZM192.815 33.448C190.131 35.461 188.783 38.4651 188.783 41.564H204.783C204.783 42.2331 204.65 43.1294 204.19 44.0792C203.723 45.042 203.063 45.7618 202.415 46.248L192.815 33.448ZM188.783 41.564C188.783 43.4963 189.339 45.392 190.439 47.0416L203.751 38.1664C204.435 39.192 204.783 40.3944 204.783 41.564H188.783ZM190.439 47.0416C191.59 48.7684 193.087 49.8319 194.29 50.4798L201.876 36.3922C202.178 36.5548 203.016 37.0636 203.751 38.1664L190.439 47.0416ZM194.505 50.5914C195.511 51.0945 196.555 51.4753 197.552 51.7746L202.15 36.4494C201.965 36.3939 201.833 36.3477 201.746 36.3146C201.658 36.281 201.635 36.2674 201.661 36.2806L194.505 50.5914ZM197.56 51.777L202.084 53.129L206.666 37.799L202.142 36.447L197.56 51.777ZM202.118 53.1389C202.777 53.3328 203.197 53.5308 203.448 53.6776C203.689 53.8189 203.767 53.9095 203.772 53.9144L215.795 43.3576C213.289 40.5042 210.015 38.784 206.632 37.7891L202.118 53.1389ZM203.837 53.9877C203.82 53.9688 203.788 53.9294 203.752 53.8706C203.717 53.8114 203.688 53.751 203.669 53.6969C203.649 53.6437 203.645 53.615 203.646 53.621C203.647 53.6284 203.655 53.6798 203.655 53.784H219.655C219.655 49.9685 218.431 46.2863 215.729 43.2843L203.837 53.9877ZM203.655 53.784C203.655 53.8727 203.649 53.9256 203.646 53.948C203.643 53.9697 203.642 53.9666 203.649 53.9446C203.655 53.9221 203.667 53.891 203.684 53.8564C203.701 53.8217 203.718 53.795 203.73 53.7783L216.773 63.0457C218.761 60.2468 219.655 57.0485 219.655 53.784H203.655ZM203.649 53.8945C203.636 53.9136 203.611 53.9467 203.546 53.9997C203.478 54.0562 203.332 54.1608 203.064 54.2865L209.847 68.7775C212.603 67.4875 215.046 65.5711 216.854 62.9295L203.649 53.8945ZM203.192 54.2279C202.807 54.3999 202.043 54.624 200.683 54.624V70.624C203.761 70.624 206.845 70.1201 209.719 68.8361L203.192 54.2279ZM216.317 62H208.317V70H216.317V62ZM216.317 33.608V25.608H208.317V33.608H216.317ZM224.117 33.608H232.117V25.608H224.117V33.608ZM224.117 62V70H232.117V62H224.117ZM216.317 31.06H208.317V39.06H216.317V31.06ZM216.317 23.26V15.26H208.317V23.26H216.317ZM224.117 23.26H232.117V15.26H224.117V23.26ZM224.117 31.06V39.06H232.117V31.06H224.117ZM224.317 62V33.608H208.317V62H224.317ZM216.317 41.608H224.117V25.608H216.317V41.608ZM216.117 33.608V62H232.117V33.608H216.117ZM224.117 54H216.317V70H224.117V54ZM224.317 31.06V23.26H208.317V31.06H224.317ZM216.317 31.26H224.117V15.26H216.317V31.26ZM216.117 23.26V31.06H232.117V23.26H216.117ZM224.117 23.06H216.317V39.06H224.117V23.06ZM229.825 62H221.825V70H229.825V62ZM229.825 33.608V25.608H221.825V33.608H229.825ZM237.105 33.608H245.105V25.608H237.105V33.608ZM237.105 39.224L229.515 41.7538L245.105 39.224H237.105ZM236.689 37.976L229.23 35.0838L228.188 37.7713L229.099 40.5058L236.689 37.976ZM239.861 34.232L243.703 41.2488L243.731 41.2333L243.76 41.2176L239.861 34.232ZM250.677 34.336L246.74 41.3005L246.772 41.3185L246.804 41.3363L250.677 34.336ZM254.473 38.132L247.472 42.0045L247.49 42.0366L247.508 42.0685L254.473 38.132ZM255.825 62V70H263.825V62H255.825ZM248.025 62H240.025V70H248.025V62ZM247.349 42.552L240.256 46.2525L240.318 46.3716L240.384 46.4885L247.349 42.552ZM245.529 40.68L241.459 47.5674L241.525 47.6066L241.592 47.6445L245.529 40.68ZM240.121 40.68L236.184 33.7155V33.7155L240.121 40.68ZM238.249 42.552L231.284 38.6155L231.218 38.7324L231.156 38.8515L238.249 42.552ZM237.625 62V70H245.625V62H237.625ZM237.825 62V33.608H221.825V62H237.825ZM229.825 41.608H237.105V25.608H229.825V41.608ZM229.105 33.608V39.224H245.105V33.608H229.105ZM244.694 36.6942L244.278 35.4462L229.099 40.5058L229.515 41.7538L244.694 36.6942ZM244.147 40.8682C244.191 40.755 244.188 40.8096 244.079 40.9373C244.028 40.998 243.965 41.0609 243.893 41.1195C243.821 41.178 243.755 41.2205 243.703 41.2488L236.018 27.2152C232.743 29.0086 230.499 31.8108 229.23 35.0838L244.147 40.8682ZM243.76 41.2176C243.882 41.1491 244.233 40.984 245.061 40.984V24.984C241.937 24.984 238.82 25.6509 235.962 27.2464L243.76 41.2176ZM245.061 40.984C246.071 40.984 246.54 41.1873 246.74 41.3005L254.613 27.3715C251.624 25.6821 248.349 24.984 245.061 24.984V40.984ZM246.804 41.3363C247.118 41.5097 247.299 41.691 247.472 42.0045L261.473 34.2595C259.844 31.3143 257.494 28.965 254.549 27.3357L246.804 41.3363ZM247.508 42.0685C247.621 42.2688 247.825 42.7375 247.825 43.748H263.825C263.825 40.4598 263.127 37.1845 261.437 34.1955L247.508 42.0685ZM247.825 43.748V62H263.825V43.748H247.825ZM255.825 54H248.025V70H255.825V54ZM256.025 62V45.412H240.025V62H256.025ZM256.025 45.412C256.025 43.2135 255.572 40.8435 254.313 38.6155L240.384 46.4885C240.026 45.8552 240.025 45.3919 240.025 45.412H256.025ZM254.441 38.8515C253.297 36.6577 251.581 34.9117 249.465 33.7155L241.592 47.6445C241.363 47.5149 241.1 47.3245 240.846 47.0626C240.59 46.8 240.395 46.5186 240.256 46.2525L254.441 38.8515ZM249.598 33.7926C247.403 32.4954 245.045 32.004 242.825 32.004V48.004C242.684 48.004 242.129 47.9632 241.459 47.5674L249.598 33.7926ZM242.825 32.004C240.578 32.004 238.297 32.5211 236.184 33.7155L244.057 47.6445C243.82 47.7784 243.572 47.8748 243.335 47.9341C243.101 47.9925 242.923 48.004 242.825 48.004V32.004ZM236.184 33.7155C234.121 34.8816 232.45 36.5524 231.284 38.6155L245.213 46.4885C245.096 46.6958 244.93 46.9241 244.711 47.1429C244.493 47.3616 244.264 47.5273 244.057 47.6445L236.184 33.7155ZM231.156 38.8515C230.02 41.0277 229.625 43.3102 229.625 45.412H245.625C245.625 45.2951 245.645 45.6709 245.341 46.2525L231.156 38.8515ZM229.625 45.412V62H245.625V45.412H229.625ZM237.625 54H229.825V70H237.625V54ZM266.777 60.648L262.615 67.4795L262.654 67.5034L262.693 67.5268L266.777 60.648ZM261.63 55.24L268.673 51.4472L261.63 55.24ZM261.682 40.16L254.756 36.156L254.732 36.1968L254.709 36.2379L261.682 40.16ZM266.829 34.908L270.929 41.7777L266.829 34.908ZM280.09 34.076L276.992 41.4519L277.055 41.4784L277.118 41.5038L280.09 34.076ZM284.458 37.04L278.567 42.453L278.606 42.4956L278.646 42.5376L284.458 37.04ZM287.214 41.512L279.704 44.2705L279.713 44.2958L279.723 44.321L287.214 41.512ZM288.046 48.636L280.107 47.6437L280.079 47.8732L280.063 48.1039L288.046 48.636ZM287.786 49.988V57.988H293.389L295.304 52.7219L287.786 49.988ZM266.518 49.988H258.518V57.988H266.518V49.988ZM266.518 44.268V36.268H258.518V44.268H266.518ZM283.366 44.268L288.092 50.7221L307.828 36.268H283.366V44.268ZM279.673 46.972L271.881 45.1599L266.994 66.1743L284.4 53.4261L279.673 46.972ZM279.622 43.02L272.01 45.4826L272.021 45.5162L272.032 45.5498L279.622 43.02ZM277.594 40.264L272.832 46.6925L272.965 46.7909L273.102 46.8838L277.594 40.264ZM270.626 40.212L266.133 33.5922V33.5922L270.626 40.212ZM268.441 43.124L275.924 45.9551V45.9551L268.441 43.124ZM267.87 47.804L275.839 48.497L275.889 47.9251L275.857 47.3519L267.87 47.804ZM268.441 52.016L261.088 55.1674L268.441 52.016ZM270.833 54.876L266.496 61.5984L266.574 61.6485L266.653 61.6968L270.833 54.876ZM278.27 55.032L274.405 48.0274L274.352 48.0563L274.3 48.0861L278.27 55.032ZM280.609 52.744L284.042 45.5178L277.343 42.3358L273.664 48.7749L280.609 52.744ZM286.85 55.708L294.277 58.6791L297.067 51.7047L290.282 48.4818L286.85 55.708ZM284.198 59.348L278.991 53.2739L278.948 53.3113L278.905 53.3493L284.198 59.348ZM279.986 61.792L282.564 69.3652L282.635 69.3408L282.707 69.315L279.986 61.792ZM274.63 54.624C272.805 54.624 271.649 54.2367 270.862 53.7692L262.693 67.5268C266.343 69.694 270.422 70.624 274.63 70.624V54.624ZM270.94 53.8165C269.915 53.1918 269.202 52.43 268.673 51.4472L254.586 59.0328C256.483 62.5567 259.202 65.4002 262.615 67.4795L270.94 53.8165ZM268.673 51.4472C268.131 50.4408 267.81 49.2623 267.81 47.752H251.81C251.81 51.7191 252.701 55.5325 254.586 59.0328L268.673 51.4472ZM267.81 47.752C267.81 46.1196 268.156 44.9683 268.654 44.0821L254.709 36.2379C252.711 39.789 251.81 43.6991 251.81 47.752H267.81ZM268.607 44.164C269.225 43.0964 269.98 42.3444 270.929 41.7777L262.73 28.0383C259.381 30.0369 256.704 32.7863 254.756 36.156L268.607 44.164ZM270.929 41.7777C271.74 41.294 272.729 40.984 274.109 40.984V24.984C270.082 24.984 266.218 25.9567 262.73 28.0383L270.929 41.7777ZM274.109 40.984C275.506 40.984 276.413 41.209 276.992 41.4519L283.187 26.7001C280.299 25.487 277.22 24.984 274.109 24.984V40.984ZM277.118 41.5038C277.821 41.785 278.256 42.1142 278.567 42.453L290.348 31.627C288.302 29.4004 285.824 27.7537 283.061 26.6482L277.118 41.5038ZM278.646 42.5376C279.094 43.0119 279.445 43.5645 279.704 44.2705L294.723 38.7535C293.734 36.0621 292.247 33.6334 290.269 31.5424L278.646 42.5376ZM279.723 44.321C279.974 44.9918 280.15 45.8484 280.15 46.972H296.15C296.15 44.1436 295.701 41.3602 294.704 38.703L279.723 44.321ZM280.15 46.972C280.15 47.1924 280.136 47.4157 280.107 47.6437L295.984 49.6283C296.094 48.747 296.15 47.861 296.15 46.972H280.15ZM280.063 48.1039C280.065 48.0736 280.087 47.749 280.267 47.2541L295.304 52.7219C295.761 51.4643 295.956 50.2384 296.028 49.1681L280.063 48.1039ZM287.786 41.988H266.518V57.988H287.786V41.988ZM274.518 49.988V44.268H258.518V49.988H274.518ZM266.518 52.268H283.366V36.268H266.518V52.268ZM278.639 37.8139L274.947 40.5179L284.4 53.4261L288.092 50.7221L278.639 37.8139ZM287.466 48.7841C288.058 46.2378 288.17 43.3661 287.211 40.4902L272.032 45.5498C271.939 45.2707 271.922 45.0612 271.921 44.9713C271.92 44.8909 271.932 44.9444 271.881 45.1599L287.466 48.7841ZM287.233 40.5574C286.337 37.7863 284.616 35.3613 282.086 33.6442L273.102 46.8838C272.856 46.7172 272.601 46.4825 272.385 46.1884C272.172 45.8987 272.061 45.6404 272.01 45.4826L287.233 40.5574ZM282.355 33.8355C279.794 31.9381 276.875 31.224 274.109 31.224V47.224C274.137 47.224 273.992 47.2273 273.732 47.1497C273.459 47.0683 273.14 46.9209 272.832 46.6925L282.355 33.8355ZM274.109 31.224C271.407 31.224 268.623 31.9026 266.133 33.5922L275.118 46.8318C274.875 46.9964 274.625 47.1058 274.407 47.1675C274.198 47.2267 274.084 47.224 274.109 47.224V31.224ZM266.133 33.5922C263.58 35.3247 261.926 37.7377 260.959 40.2929L275.924 45.9551C275.934 45.9277 275.893 46.0448 275.751 46.234C275.603 46.432 275.389 46.6473 275.118 46.8318L266.133 33.5922ZM260.959 40.2929C259.967 42.9154 259.736 45.6628 259.882 48.2561L275.857 47.3519C275.796 46.2705 275.945 45.898 275.924 45.9551L260.959 40.2929ZM259.9 47.111C259.671 49.7416 259.95 52.511 261.088 55.1674L275.795 48.8646C275.839 48.9672 275.841 49.0163 275.836 48.9765C275.83 48.9308 275.815 48.7794 275.839 48.497L259.9 47.111ZM261.088 55.1674C262.214 57.7948 264.038 60.0125 266.496 61.5984L275.171 48.1536C275.29 48.2306 275.433 48.3499 275.566 48.5086C275.697 48.6656 275.767 48.7998 275.795 48.8646L261.088 55.1674ZM266.653 61.6968C269.227 63.2744 272.044 63.864 274.734 63.864V47.864C274.544 47.864 274.506 47.8435 274.579 47.862C274.661 47.8826 274.821 47.9371 275.014 48.0552L266.653 61.6968ZM274.734 63.864C277.181 63.864 279.801 63.3709 282.239 61.9779L274.3 48.0861C274.536 47.9513 274.727 47.8917 274.825 47.8687C274.916 47.8474 274.897 47.864 274.734 47.864V63.864ZM282.134 62.0366C284.389 60.7924 286.251 58.9951 287.555 56.7131L273.664 48.7749C273.745 48.6328 273.863 48.4736 274.016 48.3239C274.168 48.1753 274.309 48.0801 274.405 48.0274L282.134 62.0366ZM277.177 59.9702L283.417 62.9342L290.282 48.4818L284.042 45.5178L277.177 59.9702ZM279.422 52.7369C279.38 52.8419 279.295 53.0135 278.991 53.2739L289.404 65.4221C291.527 63.6025 293.21 61.3474 294.277 58.6791L279.422 52.7369ZM278.905 53.3493C278.553 53.6592 278.045 53.9866 277.264 54.269L282.707 69.315C285.185 68.4187 287.484 67.1167 289.49 65.3467L278.905 53.3493ZM277.407 54.2188C276.707 54.4572 275.805 54.624 274.63 54.624V70.624C277.337 70.624 280.005 70.2361 282.564 69.3652L277.407 54.2188ZM295.707 60.44L291.34 67.1429L291.398 67.1811L291.457 67.2183L295.707 60.44ZM291.027 54.46L287.608 47.2274L281.194 50.2594L283.437 56.9898L291.027 54.46ZM296.747 51.756L303.966 48.3102L300.533 41.117L293.328 44.5234L296.747 51.756ZM299.711 55.344L295.147 61.915L299.711 55.344ZM306.419 55.968L311.278 62.3229L306.419 55.968ZM306.991 53.056L300.334 57.4936L300.457 57.6784L300.591 57.856L306.991 53.056ZM304.495 51.6L302.341 59.3046L302.353 59.3081L304.495 51.6ZM299.659 50.248L297.476 57.9445L297.49 57.9486L297.505 57.9526L299.659 50.248ZM294.303 47.076L288.169 52.2115L288.198 52.2471L288.229 52.2823L294.303 47.076ZM297.579 34.128L300.842 41.4321L300.906 41.4034L300.97 41.3735L297.579 34.128ZM310.475 34.96L306.194 41.7186L306.26 41.7599L306.326 41.8001L310.475 34.96ZM314.947 40.42L318.34 47.6645L324.988 44.55L322.455 37.6595L314.947 40.42ZM309.175 43.124L301.631 45.7866L304.57 54.1153L312.568 50.3685L309.175 43.124ZM306.887 40.316L302.4 46.9394L302.522 47.0219L302.647 47.1L306.887 40.316ZM300.803 39.848L296.189 33.3123L296.095 33.3788L296.003 33.448L300.803 39.848ZM300.283 42.604L293.626 47.0416V47.0416L300.283 42.604ZM301.271 43.436L297.478 50.4798L297.584 50.5372L297.693 50.5914L301.271 43.436ZM303.039 44.112L300.74 51.7746L300.748 51.777L303.039 44.112ZM307.563 45.464L305.272 53.129L305.289 53.134L305.305 53.1389L307.563 45.464ZM312.971 48.636L306.959 53.9144L306.991 53.9513L307.024 53.9877L312.971 48.636ZM313.439 58.412L306.917 53.7783L306.876 53.8361L306.836 53.8945L313.439 58.412ZM309.643 61.532L312.906 68.8361L312.97 68.8074L313.034 68.7775L309.643 61.532ZM303.871 54.624C302.041 54.624 300.836 54.2135 299.956 53.6617L291.457 67.2183C295.223 69.5785 299.46 70.624 303.871 70.624V54.624ZM300.074 53.7371C299.238 53.193 298.853 52.642 298.616 51.9302L283.437 56.9898C284.864 61.27 287.599 64.7057 291.34 67.1429L300.074 53.7371ZM294.446 61.6926L300.166 58.9886L293.328 44.5234L287.608 47.2274L294.446 61.6926ZM289.527 55.2018C290.785 57.8378 292.633 60.1687 295.147 61.915L304.274 48.773C304.262 48.7649 304.24 48.749 304.201 48.7019C304.159 48.6514 304.073 48.5344 303.966 48.3102L289.527 55.2018ZM295.147 61.915C297.741 63.7159 300.721 64.644 303.871 64.644V48.644C303.869 48.644 303.89 48.644 303.93 48.6499C303.97 48.6558 304.019 48.6664 304.073 48.6832C304.19 48.7198 304.261 48.7643 304.274 48.773L295.147 61.915ZM303.871 64.644C305.907 64.644 308.753 64.2537 311.278 62.3229L301.559 49.6131C302.905 48.5836 304.053 48.644 303.871 48.644V64.644ZM311.278 62.3229C314.012 60.2323 315.303 57.1696 315.303 54.096H299.303C299.303 53.4965 299.418 52.6562 299.848 51.746C300.286 50.8171 300.917 50.1041 301.559 49.6131L311.278 62.3229ZM315.303 54.096C315.303 52.3051 314.832 50.1782 313.391 48.256L300.591 57.856C299.565 56.4885 299.303 55.0549 299.303 54.096H315.303ZM313.647 48.6184C312.599 47.0472 311.264 46.0014 310.086 45.3138L302.024 59.1342C301.677 58.932 300.966 58.4408 300.334 57.4936L313.647 48.6184ZM310.086 45.3138C308.913 44.6297 307.71 44.1902 306.636 43.8919L302.353 59.3081C302.426 59.3284 302.431 59.3335 302.381 59.3138C302.333 59.2945 302.205 59.2401 302.024 59.1342L310.086 45.3138ZM306.649 43.8954L301.813 42.5434L297.505 57.9526L302.341 59.3046L306.649 43.8954ZM301.841 42.5515C301.238 42.3805 300.866 42.2029 300.654 42.0776C300.453 41.9584 300.386 41.8808 300.377 41.8697L288.229 52.2823C290.737 55.2086 294.031 56.9676 297.476 57.9445L301.841 42.5515ZM300.437 41.9405C300.41 41.9087 300.405 41.8979 300.411 41.9083C300.418 41.9192 300.427 41.9377 300.434 41.959C300.442 41.9801 300.442 41.9876 300.44 41.974C300.437 41.9594 300.431 41.9118 300.431 41.824H284.431C284.431 45.6425 285.671 49.2283 288.169 52.2115L300.437 41.9405ZM300.431 41.824C300.431 41.7221 300.437 41.6555 300.442 41.6193C300.447 41.5837 300.451 41.5739 300.448 41.5843C300.444 41.5952 300.437 41.6171 300.424 41.6453C300.41 41.6735 300.396 41.6971 300.385 41.7135L287.18 32.6785C285.271 35.4683 284.431 38.6247 284.431 41.824H300.431ZM300.385 41.7135C300.388 41.7088 300.396 41.6951 300.436 41.6629C300.481 41.6271 300.6 41.5404 300.842 41.4321L294.315 26.8239C291.5 28.0815 289.012 30.0019 287.18 32.6785L300.385 41.7135ZM300.97 41.3735C301.367 41.1875 302.048 40.984 303.195 40.984V24.984C300.112 24.984 297.048 25.5431 294.187 26.8825L300.97 41.3735ZM303.195 40.984C304.649 40.984 305.552 41.3115 306.194 41.7186L314.755 28.2014C311.238 25.9738 307.286 24.984 303.195 24.984V40.984ZM306.326 41.8001C306.865 42.127 307.186 42.4957 307.438 43.1805L322.455 37.6595C320.974 33.6296 318.314 30.3583 314.623 28.1199L306.326 41.8001ZM311.553 33.1755L305.781 35.8795L312.568 50.3685L318.34 47.6645L311.553 33.1755ZM316.719 40.4614C315.67 37.4906 313.695 35.1372 311.127 33.532L302.647 47.1C302.519 47.0202 302.306 46.8585 302.089 46.5914C301.868 46.3205 301.718 46.0344 301.631 45.7866L316.719 40.4614ZM311.373 33.6926C308.882 32.0052 306.066 31.224 303.195 31.224V47.224C303.181 47.224 303.067 47.2211 302.889 47.1685C302.706 47.1145 302.536 47.0313 302.4 46.9394L311.373 33.6926ZM303.195 31.224C301.168 31.224 298.566 31.6347 296.189 33.3123L305.416 46.3837C304.218 47.2293 303.21 47.224 303.195 47.224V31.224ZM296.003 33.448C293.319 35.461 291.971 38.4651 291.971 41.564H307.971C307.971 42.2331 307.838 43.1294 307.377 44.0792C306.91 45.042 306.251 45.7618 305.603 46.248L296.003 33.448ZM291.971 41.564C291.971 43.4963 292.526 45.392 293.626 47.0416L306.939 38.1664C307.623 39.192 307.971 40.3944 307.971 41.564H291.971ZM293.626 47.0416C294.777 48.7684 296.275 49.8319 297.478 50.4798L305.063 36.3922C305.365 36.5548 306.204 37.0636 306.939 38.1664L293.626 47.0416ZM297.693 50.5914C298.699 51.0945 299.742 51.4753 300.74 51.7746L305.337 36.4494C305.152 36.3939 305.02 36.3477 304.934 36.3146C304.846 36.281 304.822 36.2674 304.848 36.2806L297.693 50.5914ZM300.748 51.777L305.272 53.129L309.853 37.799L305.329 36.447L300.748 51.777ZM305.305 53.1389C305.964 53.3328 306.385 53.5308 306.635 53.6776C306.876 53.8189 306.955 53.9095 306.959 53.9144L318.982 43.3576C316.477 40.5042 313.203 38.784 309.82 37.7891L305.305 53.1389ZM307.024 53.9877C307.007 53.9688 306.975 53.9294 306.94 53.8706C306.904 53.8114 306.876 53.751 306.856 53.6969C306.837 53.6437 306.832 53.615 306.833 53.621C306.835 53.6284 306.843 53.6798 306.843 53.784H322.843C322.843 49.9685 321.619 46.2863 318.917 43.2843L307.024 53.9877ZM306.843 53.784C306.843 53.8727 306.837 53.9256 306.834 53.948C306.831 53.9697 306.829 53.9666 306.836 53.9446C306.843 53.9221 306.854 53.891 306.871 53.8564C306.888 53.8217 306.905 53.795 306.917 53.7783L319.96 63.0457C321.949 60.2468 322.843 57.0485 322.843 53.784H306.843ZM306.836 53.8945C306.823 53.9136 306.798 53.9467 306.734 53.9997C306.665 54.0562 306.519 54.1608 306.251 54.2865L313.034 68.7775C315.79 67.4875 318.234 65.5711 320.041 62.9295L306.836 53.8945ZM306.379 54.2279C305.994 54.3999 305.23 54.624 303.871 54.624V70.624C306.948 70.624 310.032 70.1201 312.906 68.8361L306.379 54.2279ZM322.468 60.44L318.101 67.1429L318.16 67.1811L318.219 67.2183L322.468 60.44ZM317.788 54.46L314.369 47.2274L307.955 50.2594L310.199 56.9898L317.788 54.46ZM323.508 51.756L330.728 48.3102L327.295 41.117L320.089 44.5234L323.508 51.756ZM326.472 55.344L321.909 61.915L326.472 55.344ZM333.18 55.968L338.04 62.3229L333.18 55.968ZM333.752 53.056L327.096 57.4936L327.219 57.6784L327.352 57.856L333.752 53.056ZM331.256 51.6L329.102 59.3046L329.115 59.3081L331.256 51.6ZM326.42 50.248L324.238 57.9445L324.252 57.9486L324.266 57.9526L326.42 50.248ZM321.064 47.076L314.93 52.2115L314.96 52.2471L314.99 52.2823L321.064 47.076ZM324.34 34.128L327.604 41.4321L327.668 41.4034L327.732 41.3735L324.34 34.128ZM337.236 34.96L332.956 41.7186L333.021 41.7599L333.087 41.8001L337.236 34.96ZM341.708 40.42L345.102 47.6645L351.75 44.55L349.217 37.6595L341.708 40.42ZM335.936 43.124L328.392 45.7866L331.332 54.1153L339.33 50.3685L335.936 43.124ZM333.648 40.316L329.161 46.9394L329.283 47.0219L329.408 47.1L333.648 40.316ZM327.564 39.848L322.951 33.3123L322.857 33.3788L322.764 33.448L327.564 39.848ZM327.044 42.604L320.388 47.0416V47.0416L327.044 42.604ZM328.032 43.436L324.24 50.4798L324.346 50.5372L324.455 50.5914L328.032 43.436ZM329.8 44.112L327.501 51.7746L327.51 51.777L329.8 44.112ZM334.324 45.464L332.034 53.129L332.05 53.134L332.067 53.1389L334.324 45.464ZM339.732 48.636L333.721 53.9144L333.753 53.9513L333.786 53.9877L339.732 48.636ZM340.2 58.412L333.679 53.7783L333.638 53.8361L333.598 53.8945L340.2 58.412ZM336.404 61.532L339.668 68.8361L339.732 68.8074L339.796 68.7775L336.404 61.532ZM330.632 54.624C328.802 54.624 327.598 54.2135 326.717 53.6617L318.219 67.2183C321.984 69.5785 326.222 70.624 330.632 70.624V54.624ZM326.835 53.7371C326 53.193 325.615 52.642 325.378 51.9302L310.199 56.9898C311.626 61.27 314.36 64.7057 318.101 67.1429L326.835 53.7371ZM321.207 61.6926L326.927 58.9886L320.089 44.5234L314.369 47.2274L321.207 61.6926ZM316.288 55.2018C317.547 57.8378 319.395 60.1687 321.909 61.915L331.035 48.773C331.024 48.7649 331.002 48.749 330.963 48.7019C330.921 48.6514 330.835 48.5344 330.728 48.3102L316.288 55.2018ZM321.909 61.915C324.503 63.7159 327.483 64.644 330.632 64.644V48.644C330.631 48.644 330.652 48.644 330.692 48.6499C330.732 48.6558 330.781 48.6664 330.834 48.6832C330.952 48.7198 331.023 48.7643 331.035 48.773L321.909 61.915ZM330.632 64.644C332.668 64.644 335.515 64.2537 338.04 62.3229L328.321 49.6131C329.667 48.5836 330.815 48.644 330.632 48.644V64.644ZM338.04 62.3229C340.774 60.2323 342.064 57.1696 342.064 54.096H326.064C326.064 53.4965 326.179 52.6562 326.609 51.746C327.048 50.8171 327.679 50.1041 328.321 49.6131L338.04 62.3229ZM342.064 54.096C342.064 52.3051 341.594 50.1782 340.152 48.256L327.352 57.856C326.327 56.4885 326.064 55.0549 326.064 54.096H342.064ZM340.409 48.6184C339.361 47.0472 338.026 46.0014 336.847 45.3138L328.785 59.1342C328.439 58.932 327.727 58.4408 327.096 57.4936L340.409 48.6184ZM336.847 45.3138C335.675 44.6297 334.472 44.1902 333.397 43.8919L329.115 59.3081C329.188 59.3284 329.193 59.3335 329.143 59.3138C329.095 59.2945 328.967 59.2401 328.785 59.1342L336.847 45.3138ZM333.41 43.8954L328.574 42.5434L324.266 57.9526L329.102 59.3046L333.41 43.8954ZM328.603 42.5515C328 42.3805 327.627 42.2029 327.416 42.0776C327.215 41.9584 327.148 41.8808 327.138 41.8697L314.99 52.2823C317.498 55.2086 320.793 56.9676 324.238 57.9445L328.603 42.5515ZM327.198 41.9405C327.172 41.9087 327.167 41.8979 327.173 41.9083C327.179 41.9192 327.188 41.9377 327.196 41.959C327.203 41.9801 327.204 41.9876 327.201 41.974C327.199 41.9594 327.192 41.9118 327.192 41.824H311.192C311.192 45.6425 312.433 49.2283 314.93 52.2115L327.198 41.9405ZM327.192 41.824C327.192 41.7221 327.199 41.6555 327.204 41.6193C327.209 41.5837 327.212 41.5739 327.209 41.5843C327.206 41.5952 327.199 41.6171 327.185 41.6453C327.172 41.6735 327.158 41.6971 327.147 41.7135L313.942 32.6785C312.033 35.4683 311.192 38.6247 311.192 41.824H327.192ZM327.147 41.7135C327.15 41.7088 327.158 41.6951 327.198 41.6629C327.242 41.6271 327.361 41.5404 327.604 41.4321L321.077 26.8239C318.262 28.0815 315.773 30.0019 313.942 32.6785L327.147 41.7135ZM327.732 41.3735C328.129 41.1875 328.81 40.984 329.956 40.984V24.984C326.873 24.984 323.81 25.5431 320.949 26.8825L327.732 41.3735ZM329.956 40.984C331.411 40.984 332.313 41.3115 332.956 41.7186L341.517 28.2014C337.999 25.9738 334.048 24.984 329.956 24.984V40.984ZM333.087 41.8001C333.626 42.127 333.948 42.4957 334.2 43.1805L349.217 37.6595C347.735 33.6296 345.075 30.3583 341.385 28.1199L333.087 41.8001ZM338.314 33.1755L332.542 35.8795L339.33 50.3685L345.102 47.6645L338.314 33.1755ZM343.48 40.4614C342.432 37.4906 340.457 35.1372 337.888 33.532L329.408 47.1C329.281 47.0202 329.068 46.8585 328.85 46.5914C328.63 46.3205 328.48 46.0344 328.392 45.7866L343.48 40.4614ZM338.135 33.6926C335.644 32.0052 332.828 31.224 329.956 31.224V47.224C329.943 47.224 329.828 47.2211 329.65 47.1685C329.468 47.1145 329.297 47.0313 329.161 46.9394L338.135 33.6926ZM329.956 31.224C327.93 31.224 325.327 31.6347 322.951 33.3123L332.178 46.3837C330.98 47.2293 329.972 47.224 329.956 47.224V31.224ZM322.764 33.448C320.08 35.461 318.732 38.4651 318.732 41.564H334.732C334.732 42.2331 334.599 43.1294 334.139 44.0792C333.672 45.042 333.013 45.7618 332.364 46.248L322.764 33.448ZM318.732 41.564C318.732 43.4963 319.288 45.392 320.388 47.0416L333.701 38.1664C334.384 39.192 334.732 40.3944 334.732 41.564H318.732ZM320.388 47.0416C321.539 48.7684 323.036 49.8319 324.24 50.4798L331.825 36.3922C332.127 36.5548 332.965 37.0636 333.701 38.1664L320.388 47.0416ZM324.455 50.5914C325.461 51.0945 326.504 51.4753 327.501 51.7746L332.099 36.4494C331.914 36.3939 331.782 36.3477 331.695 36.3146C331.608 36.281 331.584 36.2674 331.61 36.2806L324.455 50.5914ZM327.51 51.777L332.034 53.129L336.615 37.799L332.091 36.447L327.51 51.777ZM332.067 53.1389C332.726 53.3328 333.147 53.5308 333.397 53.6776C333.638 53.8189 333.716 53.9095 333.721 53.9144L345.744 43.3576C343.238 40.5042 339.964 38.784 336.582 37.7891L332.067 53.1389ZM333.786 53.9877C333.769 53.9688 333.737 53.9294 333.702 53.8706C333.666 53.8114 333.638 53.751 333.618 53.6969C333.599 53.6437 333.594 53.615 333.595 53.621C333.596 53.6284 333.604 53.6798 333.604 53.784H349.604C349.604 49.9685 348.38 46.2863 345.679 43.2843L333.786 53.9877ZM333.604 53.784C333.604 53.8727 333.598 53.9256 333.595 53.948C333.592 53.9697 333.591 53.9666 333.598 53.9446C333.605 53.9221 333.616 53.891 333.633 53.8564C333.65 53.8217 333.667 53.795 333.679 53.7783L346.722 63.0457C348.71 60.2468 349.604 57.0485 349.604 53.784H333.604ZM333.598 53.8945C333.585 53.9136 333.56 53.9467 333.496 53.9997C333.427 54.0562 333.281 54.1608 333.013 54.2865L339.796 68.7775C342.552 67.4875 344.995 65.5711 346.803 62.9295L333.598 53.8945ZM333.141 54.2279C332.756 54.3999 331.992 54.624 330.632 54.624V70.624C333.71 70.624 336.794 70.1201 339.668 68.8361L333.141 54.2279Z" fill="white"/>
</mask>
<g mask="url(#mask0_43_324)">
<g filter="url(#filter0_f_43_324)">
<rect x="0.905273" y="50.2988" width="474.881" height="76.6022" fill="url(#paint0_linear_43_324)"/>
</g>
</g>
<defs>
<filter id="filter0_f_43_324" x="-49.0947" y="0.277344" width="574.884" height="176.624" filterUnits="userSpaceOnUse" color-interpolation-filters="sRGB">
<feFlood flood-opacity="0" result="BackgroundImageFix"/>
<feBlend mode="normal" in="SourceGraphic" in2="BackgroundImageFix" result="shape"/>
<feGaussianBlur stdDeviation="25" result="effect1_foregroundBlur_43_324"/>
</filter>
<linearGradient id="paint0_linear_43_324" x1="-1.69539" y1="88.5999" x2="472.665" y2="88.5999" gradientUnits="userSpaceOnUse">
<stop stop-color="#44BCFF"/>
<stop offset="0.234375" stop-color="#44B0FF"/>
<stop offset="0.489583" stop-color="#FF44EC"/>
<stop offset="0.739583" stop-color="#FF44EC"/>
<stop offset="1" stop-color="#FF675E"/>
</linearGradient>
</defs>
</svg>
