<svg width="40" height="40" viewBox="0 0 40 40" fill="none" xmlns="http://www.w3.org/2000/svg">
<path d="M30 23.125C26.2093 23.125 23.125 26.2093 23.125 30C23.125 33.7907 26.2093 36.875 30 36.875C33.7907 36.875 36.875 33.7907 36.875 30C36.875 26.2093 33.7907 23.125 30 23.125ZM30 35.625C26.8981 35.625 24.375 33.1013 24.375 30C24.375 26.8987 26.8981 24.375 30 24.375C33.1019 24.375 35.625 26.8987 35.625 30C35.625 33.1013 33.1019 35.625 30 35.625Z" fill="black"/>
<path d="M5.625 3.125H4.375V4.375H3.125V5.625H4.375V6.875H5.625V5.625H6.875V4.375H5.625V3.125Z" fill="black"/>
<path d="M6.43303 12.6831L5.00003 14.1164L3.56703 12.6831L2.68311 13.567L4.11639 15L2.68311 16.433L3.56703 17.317L5.00003 15.8837L6.43303 17.317L7.31696 16.433L5.88368 15L7.31696 13.567L6.43303 12.6831Z" fill="black"/>
<path d="M13.125 4.375H16.875V5.625H13.125V4.375Z" fill="black"/>
<path d="M13.125 13.125H16.875V14.375H13.125V13.125Z" fill="black"/>
<path d="M13.125 15.625H16.875V16.875H13.125V15.625Z" fill="black"/>
<path d="M1.875 9.375H8.125C8.81445 9.375 9.375 8.81445 9.375 8.125V1.875C9.375 1.18555 8.81445 0.625 8.125 0.625H1.875C1.18555 0.625 0.625 1.18555 0.625 1.875V8.125C0.625 8.81445 1.18555 9.375 1.875 9.375ZM1.875 1.875H8.125L8.12556 8.125H1.87499L1.875 1.875Z" fill="black"/>
<path d="M1.875 19.375H8.125C8.81445 19.375 9.375 18.8145 9.375 18.125V11.875C9.375 11.1856 8.81445 10.625 8.125 10.625H1.875C1.18555 10.625 0.625 11.1856 0.625 11.875V18.125C0.625 18.8145 1.18555 19.375 1.875 19.375ZM1.875 11.875H8.125L8.12556 18.125H1.87499L1.875 11.875Z" fill="black"/>
<path d="M33.4613 21.2958C34.0676 19.8901 34.3751 18.4063 34.3751 16.875C34.3751 10.6718 29.3282 5.62498 23.1251 5.62498C21.8394 5.62498 20.5838 5.85377 19.3751 6.28486V1.875C19.3751 1.18555 18.8145 0.625 18.1251 0.625H11.8751C11.1856 0.625 10.6251 1.18555 10.6251 1.875V8.125C10.6251 8.81445 11.1856 9.375 11.8751 9.375H14.7571C14.4089 9.76563 14.0883 10.1844 13.7934 10.625H11.8752C11.1857 10.625 10.6252 11.1855 10.6252 11.875V18.125C10.6252 18.8144 11.1857 19.375 11.8752 19.375H12.167C12.4608 20.6713 12.9664 21.8806 13.6575 22.9581L11.8751 24.7414L11.2501 24.1164L1.58371 33.7821C0.965693 34.4015 0.625 35.2241 0.625 36.0985C0.625 37.9054 2.09486 39.3753 3.90121 39.3753C4.77679 39.3753 5.59986 39.0346 6.21821 38.4152L15.8839 28.7502L15.2589 28.1252L17.0502 26.3339C18.1984 27.0683 19.4883 27.6001 20.8759 27.8814C20.7171 28.5633 20.6253 29.2703 20.6253 30.0002C20.6253 35.1696 24.8309 39.3752 30.0003 39.3752C35.1697 39.3752 39.3753 35.1696 39.3753 30.0002C39.3753 26.0541 36.9216 22.6766 33.4615 21.2959L33.4613 21.2958ZM11.8749 1.87505H18.1249L18.1254 8.12505H11.8749L11.8749 1.87505ZM16.5267 9.37505H18.1249C18.8143 9.37505 19.3749 8.8145 19.3749 8.12505V7.62561C20.576 7.13565 21.8336 6.87504 23.1249 6.87504C28.6385 6.87504 33.1249 11.3614 33.1249 16.875C33.1249 18.2752 32.8199 19.627 32.2493 20.9093C31.84 20.808 31.4232 20.7249 30.9943 20.6794C31.5699 19.4944 31.8749 18.1981 31.8749 16.875C31.8749 12.0499 27.9499 8.12498 23.1249 8.12498C20.8204 8.12498 18.6687 9.01562 17.0236 10.625H15.3392C15.701 10.1724 16.0967 9.75441 16.5267 9.37498V9.37505ZM22.5462 24.3365C21.8799 24.2851 21.2356 24.147 20.6249 23.9297V17.1334L21.5085 16.2497H23.1249V23.6476C22.9212 23.868 22.7287 24.0974 22.5462 24.3368L22.5462 24.3365ZM27.2412 15H20.9911L19.3748 16.6164V11.875C19.3748 11.4133 19.1198 11.0137 18.7467 10.7969C20.0143 9.87612 21.5266 9.37505 23.1248 9.37505C25.7654 9.37505 28.0866 10.7501 29.4228 12.8175L27.2412 15ZM19.3347 18.4239L19.3746 18.3837V23.3561C17.8584 22.4767 16.6696 21.0754 16.0666 19.3748L18.1246 19.3751C18.7103 19.3751 19.1997 18.9688 19.3347 18.4239L19.3347 18.4239ZM24.3747 16.25H26.8747V21.1719C25.9689 21.4939 25.1283 21.9495 24.3747 22.5176V16.25ZM28.1247 15.8837L30.0384 13.9699C30.416 14.8639 30.6247 15.8458 30.6247 16.8751C30.6247 18.2021 30.2672 19.4976 29.5964 20.6457C29.0959 20.6669 28.602 20.7168 28.1247 20.8145V15.8837ZM11.8747 11.8751H18.1247L18.1252 18.1251H11.8746L11.8747 11.8751ZM5.33336 37.5322C4.95166 37.9147 4.44272 38.1254 3.90086 38.1254C2.78336 38.1254 1.87465 37.2161 1.87465 36.0986C1.87465 35.5573 2.08531 35.0487 2.46784 34.6656L11.25 25.8842L14.1163 28.7505L5.33336 37.5322ZM14.3748 27.2415L12.7584 25.6251L14.406 23.9776C14.8893 24.5702 15.4267 25.1151 16.019 25.5964L14.3748 27.2415ZM13.4454 19.3751H14.7542C15.7185 22.605 18.4735 24.9869 21.7768 25.5037C21.5706 25.8793 21.3973 26.2738 21.2436 26.6781C17.4311 25.9543 14.4049 23.1139 13.445 19.3752L13.4454 19.3751ZM29.9997 38.1251C25.5197 38.1251 21.8747 34.48 21.8747 30.0001C21.8747 25.5201 25.5197 21.8751 29.9997 21.8751C34.4796 21.8751 38.1247 25.5201 38.1247 30.0001C38.1247 34.48 34.4796 38.1251 29.9997 38.1251Z" fill="black"/>
<path d="M8.78125 30.3351L9.66518 29.4512L10.5491 30.3351L9.66518 31.219L8.78125 30.3351Z" fill="black"/>
<path d="M7.05762 32.0571L7.8969 31.2178L8.78083 32.1017L7.94155 32.941L7.05762 32.0571Z" fill="black"/>
<path d="M10.5483 28.5665L11.4323 27.6826L12.3162 28.5665L11.4323 29.4505L10.5483 28.5665Z" fill="black"/>
</svg>
