<svg width="28" height="28" viewBox="0 0 28 28" fill="none" xmlns="http://www.w3.org/2000/svg">
<path d="M21.6062 8.01318C22.5141 8.01318 23.25 7.27679 23.25 6.3684C23.25 5.46002 22.5141 4.72363 21.6062 4.72363C20.6984 4.72363 19.9624 5.46002 19.9624 6.3684C19.9624 7.27679 20.6984 8.01318 21.6062 8.01318Z" fill="black"/>
<path d="M13.9809 7.74023C12.8335 7.74023 11.7119 8.0805 10.7579 8.71799C9.80392 9.35549 9.06036 10.2616 8.62128 11.3217C8.1822 12.3818 8.06732 13.5483 8.29116 14.6738C8.515 15.7992 9.06751 16.8329 9.87882 17.6443C10.6901 18.4557 11.7238 19.0083 12.8491 19.2321C13.9745 19.456 15.1409 19.3411 16.2009 18.902C17.261 18.4628 18.167 17.7192 18.8044 16.7652C19.4419 15.8111 19.7821 14.6894 19.7821 13.5419C19.7821 12.0032 19.1709 10.5275 18.083 9.43951C16.995 8.35148 15.5195 7.74023 13.9809 7.74023ZM13.9809 17.308C13.2361 17.308 12.508 17.0871 11.8887 16.6733C11.2695 16.2595 10.7868 15.6713 10.5018 14.9831C10.2167 14.295 10.1422 13.5377 10.2875 12.8072C10.4328 12.0766 10.7914 11.4056 11.3181 10.8789C11.8447 10.3522 12.5157 9.99349 13.2462 9.84818C13.9767 9.70286 14.7339 9.77744 15.422 10.0625C16.1101 10.3475 16.6983 10.8302 17.112 11.4496C17.5258 12.0689 17.7467 12.797 17.7467 13.5419C17.7467 14.5407 17.3499 15.4987 16.6437 16.2049C15.9375 16.9112 14.9796 17.308 13.9809 17.308Z" fill="black"/>
<path d="M14.1382 2.46828C17.7958 2.46828 18.2296 2.48198 19.6737 2.5482C20.5422 2.55851 21.4025 2.718 22.2171 3.01971C22.808 3.24769 23.3447 3.59687 23.7926 4.04478C24.2404 4.4927 24.5896 5.02942 24.8175 5.62042C25.1192 6.43503 25.2787 7.29543 25.289 8.16405C25.3552 9.60826 25.3689 10.0421 25.3689 13.7011C25.3689 17.3602 25.3552 17.7917 25.289 19.2359C25.2787 20.1046 25.1192 20.9649 24.8175 21.7796C24.5896 22.3706 24.2404 22.9073 23.7926 23.3552C23.3447 23.8031 22.808 24.1523 22.2171 24.3803C21.4025 24.682 20.5422 24.8415 19.6737 24.8518C18.2296 24.918 17.7958 24.9317 14.1382 24.9317C10.4806 24.9317 10.0469 24.918 8.60277 24.8518C7.73423 24.8415 6.87391 24.682 6.05937 24.3803C5.46843 24.1523 4.93175 23.8031 4.48387 23.3552C4.036 22.9073 3.68685 22.3706 3.45889 21.7796C3.15721 20.9649 2.99773 20.1046 2.98742 19.2359C2.92121 17.7917 2.90751 17.3579 2.90751 13.7C2.90751 10.0421 2.92121 9.60826 2.98742 8.16405C2.99773 7.29543 3.15721 6.43503 3.45889 5.62042C3.68685 5.02942 4.036 4.4927 4.48387 4.04478C4.93175 3.59687 5.46843 3.24769 6.05937 3.01971C6.87391 2.718 7.73423 2.55851 8.60277 2.5482C10.0469 2.48198 10.4806 2.46828 14.1382 2.46828V2.46828ZM14.1382 0C10.4179 0 9.95096 0.0159834 8.48976 0.0822C7.35364 0.105143 6.22964 0.320545 5.16553 0.71925C4.25538 1.07122 3.42882 1.60949 2.73881 2.29956C2.0488 2.98963 1.51058 3.81627 1.15864 4.7265C0.759843 5.79107 0.544458 6.91557 0.521646 8.05217C0.455435 9.5135 0.439453 9.97816 0.439453 13.7C0.439453 17.4218 0.455435 17.8876 0.521646 19.349C0.544587 20.4852 0.759969 21.6093 1.15864 22.6735C1.51058 23.5837 2.0488 24.4103 2.73881 25.1004C3.42882 25.7905 4.25538 26.3288 5.16553 26.6807C6.23 27.0796 7.3544 27.295 8.4909 27.3178C9.9521 27.384 10.4179 27.4 14.1382 27.4C17.8586 27.4 18.3255 27.384 19.7867 27.3178C20.9232 27.295 22.0476 27.0796 23.112 26.6807C24.0222 26.3288 24.8488 25.7905 25.5388 25.1004C26.2288 24.4103 26.767 23.5837 27.1189 22.6735C27.5173 21.6088 27.7323 20.4843 27.7548 19.3478C27.821 17.8865 27.837 17.4218 27.837 13.7C27.837 9.97816 27.821 9.51236 27.7548 8.05103C27.7318 6.91481 27.5165 5.79071 27.1178 4.7265C26.7659 3.81627 26.2276 2.98963 25.5376 2.29956C24.8476 1.60949 24.021 1.07122 23.1109 0.71925C22.0464 0.320808 20.922 0.10579 19.7855 0.0833416C18.3243 0.0148416 17.8597 0 14.1382 0Z" fill="black"/>
</svg>
