<svg width="40" height="41" viewBox="0 0 40 41" fill="none" xmlns="http://www.w3.org/2000/svg">
<path d="M30.675 21.0377C30.98 23.1964 32.8006 24.8627 35.0001 24.8627C37.4124 24.8627 39.3751 22.8603 39.3751 20.4002C39.3751 17.9401 37.4124 15.9377 35.0001 15.9377C32.8006 15.9377 30.98 17.604 30.675 19.7627H28.0932C27.9364 17.6775 27.0237 15.8082 25.6301 14.439L29.1914 10.0346C29.9682 10.54 30.8876 10.8377 31.875 10.8377C34.632 10.8377 36.875 8.54984 36.875 5.7377C36.875 2.92556 34.632 0.637695 31.875 0.637695C29.118 0.637695 26.875 2.92556 26.875 5.7377C26.875 7.08359 27.3926 8.30562 28.2307 9.21779L24.6663 13.6262C23.3443 12.6762 21.7369 12.1128 20 12.1128C18.2631 12.1128 16.6557 12.6763 15.3337 13.6268L11.7693 9.21837C12.6074 8.30569 13.125 7.08359 13.125 5.73777C13.125 2.92563 10.882 0.637768 8.125 0.637768C5.368 0.637768 3.125 2.92563 3.125 5.73777C3.125 8.54991 5.368 10.8378 8.125 10.8378C9.113 10.8378 10.0324 10.5401 10.8089 10.0338L14.3702 14.4388C12.9765 15.8089 12.0633 17.6778 11.9071 19.7631L9.32507 19.7633C9.02011 17.6047 7.1995 15.9383 5 15.9383C2.58764 15.9383 0.625 17.9408 0.625 20.4008C0.625 22.8609 2.58764 24.8633 5 24.8633C7.1995 24.8633 9.02007 23.197 9.32507 21.0383H11.9069C12.0637 23.1236 12.9764 24.9928 14.37 26.362L10.7949 30.783C10.0212 30.2818 9.10743 29.9872 8.125 29.9872C5.368 29.9872 3.125 32.2751 3.125 35.0872C3.125 37.8994 5.368 40.1872 8.125 40.1872C10.882 40.1872 13.125 37.8994 13.125 35.0872C13.125 33.7357 12.6032 32.5085 11.7586 31.5949L15.3337 27.1731C16.6557 28.1243 18.2631 28.6878 20 28.6878C21.7369 28.6878 23.3443 28.1243 24.6663 27.1737L28.2414 31.5955C27.3968 32.509 26.875 33.7363 26.875 35.0875C26.875 37.8997 29.118 40.1875 31.875 40.1875C34.632 40.1875 36.875 37.8997 36.875 35.0875C36.875 32.2754 34.632 29.9875 31.875 29.9875C30.8931 29.9875 29.9788 30.2821 29.2051 30.7833L25.63 26.3615C27.0237 24.9914 27.9364 23.1225 28.0931 21.0378L30.675 21.0377ZM35.0001 19.1252C35.6906 19.1252 36.2501 19.6958 36.2501 20.4002C36.2501 21.1046 35.6906 21.6752 35.0001 21.6752C34.3095 21.6752 33.7501 21.1046 33.7501 20.4002C33.7501 19.6958 34.3095 19.1252 35.0001 19.1252ZM31.8751 3.8252C32.9108 3.8252 33.7501 4.68127 33.7501 5.7377C33.7501 6.79412 32.9108 7.6502 31.8751 7.6502C30.8394 7.6502 30.0001 6.79412 30.0001 5.7377C30.0001 4.68127 30.8394 3.8252 31.8751 3.8252ZM8.12507 7.6502C7.08936 7.6502 6.25007 6.79412 6.25007 5.7377C6.25007 4.68127 7.08936 3.8252 8.12507 3.8252C9.16079 3.8252 10.0001 4.68127 10.0001 5.7377C10.0001 6.79412 9.16079 7.6502 8.12507 7.6502ZM5.00007 21.6752C4.3095 21.6752 3.75007 21.1046 3.75007 20.4002C3.75007 19.6958 4.3095 19.1252 5.00007 19.1252C5.69064 19.1252 6.25007 19.6958 6.25007 20.4002C6.25007 21.1046 5.69064 21.6752 5.00007 21.6752ZM8.12507 37C7.08936 37 6.25007 36.1439 6.25007 35.0875C6.25007 34.031 7.08936 33.175 8.12507 33.175C9.16079 33.175 10.0001 34.031 10.0001 35.0875C10.0001 36.1439 9.16079 37 8.12507 37ZM19.3751 19.7627H20.6251C22.0037 19.7627 23.1251 20.9065 23.1251 22.3127C23.1251 23.7189 22.0037 24.8627 20.6251 24.8627V26.1377H19.3751V24.8627C17.9964 24.8627 16.8751 23.7189 16.8751 22.3127V21.6752H18.1251V22.3127C18.1251 23.0159 18.6856 23.5877 19.3751 23.5877H20.6251C21.3145 23.5877 21.8751 23.0159 21.8751 22.3127C21.8751 21.6095 21.3145 21.0377 20.6251 21.0377H19.3751C17.9964 21.0377 16.8751 19.8939 16.8751 18.4877C16.8751 17.0815 17.9964 15.9377 19.3751 15.9377V14.6627H20.6251V15.9377C22.0037 15.9377 23.1251 17.0815 23.1251 18.4877H21.8751C21.8751 17.7845 21.3145 17.2127 20.6251 17.2127H19.3751C18.6856 17.2127 18.1251 17.7845 18.1251 18.4877C18.1251 19.1909 18.6856 19.7627 19.3751 19.7627ZM31.8751 33.175C32.9108 33.175 33.7501 34.031 33.7501 35.0875C33.7501 36.1439 32.9108 37 31.8751 37C30.8394 37 30.0001 36.1439 30.0001 35.0875C30.0001 34.0313 30.8394 33.175 31.8751 33.175Z" fill="black"/>
</svg>
