<svg width="24" height="21" viewBox="0 0 24 21" fill="none" xmlns="http://www.w3.org/2000/svg">
<path d="M3.3829 5.48183C4.92735 5.48183 6.17937 4.44946 6.17937 3.17597C6.17937 1.90248 4.92735 0.870117 3.3829 0.870117C1.83845 0.870117 0.586426 1.90248 0.586426 3.17597C0.586426 4.44946 1.83845 5.48183 3.3829 5.48183Z" fill="black"/>
<path d="M8.82043 7.2293V20.0244H13.6377V13.6969C13.6377 12.0273 14.0185 10.4104 16.5288 10.4104C19.0045 10.4104 19.0352 12.3193 19.0352 13.8024V20.0255H23.855V13.0087C23.855 9.56191 22.9552 6.91309 18.0702 6.91309C15.7248 6.91309 14.1528 7.97451 13.5099 8.97902H13.4447V7.2293H8.82043V7.2293ZM0.970215 7.2293H5.79512V20.0244H0.970215V7.2293Z" fill="black"/>
</svg>
