<svg width="24" height="27" viewBox="0 0 24 27" fill="none" xmlns="http://www.w3.org/2000/svg">
<path d="M21.7559 6.28299C22.3172 6.87608 22.3264 7.83463 21.7766 8.43962L12.8869 18.2219C12.6193 18.5164 12.252 18.6866 11.8657 18.6952L8.12511 18.7781L8.2039 14.8099C8.21182 14.411 8.36586 14.0309 8.63361 13.7496L17.7258 4.19714C18.2957 3.59839 19.2166 3.59978 19.7849 4.20026L21.7559 6.28299Z" fill="black"/>
<path opacity="0.3" d="M12.9 3.08325C13.4523 3.08325 13.9 3.55634 13.9 4.13992C13.9 4.7235 13.4523 5.19659 12.9 5.19659H6C4.89543 5.19659 4 6.14276 4 7.30992V19.9899C4 21.1571 4.89543 22.1033 6 22.1033H18C19.1046 22.1033 20 21.1571 20 19.9899V14.7066C20 14.123 20.4477 13.6499 21 13.6499C21.5523 13.6499 22 14.123 22 14.7066V19.9899C22 22.3242 20.2091 24.2166 18 24.2166H6C3.79086 24.2166 2 22.3242 2 19.9899V7.30992C2 4.9756 3.79086 3.08325 6 3.08325H12.9Z" fill="black"/>
</svg>
