<svg width="38" height="40" viewBox="0 0 38 40" fill="none" xmlns="http://www.w3.org/2000/svg">
<path d="M26.5478 16.1249C26.3084 16.6001 25.8985 16.9334 25.4264 17.1184C25.1477 17.2271 24.8458 17.2838 24.5431 17.2858C24.2403 17.2877 23.9398 17.2354 23.6636 17.1272C23.1949 16.9437 22.7961 16.6064 22.5758 16.1101C22.3364 16.5853 21.9265 16.9186 21.4544 17.1036C21.1757 17.2123 20.8738 17.269 20.5711 17.271C20.2683 17.273 19.9678 17.2206 19.6916 17.1124C19.2229 16.9289 18.8241 16.5916 18.6038 16.0953C18.3644 16.5706 17.9545 16.9039 17.4824 17.0888C17.2045 17.1976 16.9018 17.2542 16.5991 17.2562C16.2963 17.2582 15.9958 17.2058 15.7196 17.0977C15.2509 16.9141 14.8521 16.5769 14.6318 16.0805C14.3924 16.5558 13.9825 16.8891 13.5104 17.0741C13.2317 17.1828 12.9298 17.2394 12.6271 17.2414C12.3243 17.2434 12.0238 17.191 11.7476 17.0829C11.4309 16.9591 11.1455 16.7647 10.9262 16.498V26.7702L15.0116 26.7363C15.1036 26.7357 15.1781 26.8111 15.179 26.9042V26.9125H15.1795C15.1795 27.0354 15.2409 27.1601 15.3394 27.2545C15.4426 27.3539 15.5847 27.4199 15.7415 27.4219H15.7496C15.7448 27.4219 15.7289 27.4213 15.7496 27.4213C15.9083 27.4213 16.0515 27.3562 16.1555 27.25C16.2596 27.1438 16.3235 26.9978 16.3235 26.8359C16.3235 26.742 16.3983 26.666 16.4901 26.666C16.5822 26.666 16.6567 26.7423 16.6567 26.8359C16.6567 27.0915 16.5554 27.3229 16.3907 27.4908C16.2267 27.6581 15.9993 27.762 15.7487 27.762C15.7448 27.762 15.7348 27.762 15.7487 27.762H15.7367C15.4915 27.7586 15.2699 27.6567 15.1106 27.503C14.9878 27.3855 14.9005 27.2363 14.864 27.0772L10.9253 27.1105V35.6589C10.9253 36.275 11.0961 36.8462 11.4192 37.2466C11.7004 37.5961 12.1045 37.8158 12.6165 37.8158H28.5972C29.1092 37.8158 29.5132 37.5961 29.7945 37.2466C30.117 36.8462 30.2883 36.275 30.2883 35.6589V27.1127L26.031 27.148C25.939 27.1486 25.8645 27.0732 25.8636 26.9801V26.9718H25.8631C25.8631 26.8489 25.8017 26.7243 25.7032 26.6298C25.6 26.5304 25.4579 26.4644 25.3011 26.4624H25.293C25.2978 26.4624 25.3137 26.463 25.293 26.463C25.1343 26.463 24.9911 26.5282 24.8871 26.6343C24.783 26.7405 24.7191 26.8865 24.7191 27.0484C24.7191 27.1423 24.6443 27.2183 24.5525 27.2183C24.4605 27.2183 24.386 27.142 24.386 27.0484C24.386 26.7928 24.4872 26.5615 24.6519 26.3935C24.8159 26.2262 25.0433 26.1223 25.2939 26.1223C25.2978 26.1223 25.3078 26.1223 25.2939 26.1223H25.3059C25.5511 26.1257 25.7727 26.2276 25.932 26.3813C26.0548 26.4988 26.1421 26.648 26.1787 26.8071L30.2894 26.7723V16.4929C30.0534 16.7841 29.7414 16.9981 29.396 17.1336C29.1181 17.2423 28.8154 17.2989 28.5126 17.3009C28.2099 17.3029 27.9094 17.2505 27.6332 17.1424C27.1645 16.9588 26.7657 16.6216 26.5454 16.1252L26.5478 16.1249ZM3.38706 19.5861C3.60386 19.5861 3.79973 19.6758 3.94175 19.8201C4.08377 19.9649 4.1711 20.1647 4.1711 20.3859C4.1711 20.607 4.08321 20.8068 3.94175 20.9516C3.79973 21.0965 3.60386 21.1856 3.38706 21.1856C3.17027 21.1856 2.9744 21.0959 2.83238 20.9516C2.69036 20.8068 2.60303 20.607 2.60303 20.3859C2.60303 20.1647 2.69092 19.9649 2.83238 19.8201C2.9744 19.6752 3.17027 19.5861 3.38706 19.5861ZM3.7057 20.0609C3.62451 19.978 3.51178 19.9262 3.38706 19.9262C3.26234 19.9262 3.14962 19.978 3.06843 20.0609C2.98723 20.1437 2.93645 20.2586 2.93645 20.3859C2.93645 20.5131 2.98723 20.6281 3.06843 20.7109C3.14962 20.7937 3.26234 20.8455 3.38706 20.8455C3.51178 20.8455 3.62451 20.7937 3.7057 20.7109C3.78689 20.6281 3.83768 20.5131 3.83768 20.3859C3.83768 20.2586 3.7869 20.1437 3.7057 20.0609ZM7.13034 19.5881C7.34714 19.5881 7.54301 19.6778 7.68503 19.8221C7.82705 19.9669 7.91438 20.1667 7.91438 20.3879C7.91438 20.609 7.82649 20.8088 7.68503 20.9536C7.54301 21.0985 7.34714 21.1876 7.13034 21.1876C6.91355 21.1876 6.71768 21.0979 6.57566 20.9536C6.43364 20.8088 6.34631 20.609 6.34631 20.3879C6.34631 20.1667 6.4342 19.9669 6.57566 19.8221C6.71768 19.6772 6.91355 19.5881 7.13034 19.5881ZM7.44898 20.0628C7.36779 19.98 7.25506 19.9282 7.13034 19.9282C7.00562 19.9282 6.8929 19.98 6.81171 20.0628C6.73051 20.1457 6.67973 20.2606 6.67973 20.3879C6.67973 20.5151 6.73051 20.63 6.81171 20.7129C6.8929 20.7957 7.00562 20.8475 7.13034 20.8475C7.25506 20.8475 7.36779 20.7957 7.44898 20.7129C7.53017 20.63 7.58096 20.5151 7.58096 20.3879C7.58096 20.2606 7.53018 20.1457 7.44898 20.0628ZM19.218 24.0803C19.1686 24.0931 19.122 24.1136 19.0821 24.1454C18.9886 24.2203 18.9214 24.3632 18.9189 24.6227V25.6031H18.6535V24.6204C18.6569 24.2641 18.7668 24.0532 18.9189 23.9317C19.011 23.8583 19.1147 23.8202 19.2188 23.8031V23.6229H22.0877V23.8133C22.1917 23.8304 22.2956 23.8685 22.3876 23.942C22.5397 24.0638 22.6496 24.2738 22.653 24.6307V25.6134H22.3876V24.6329C22.3848 24.3731 22.3176 24.2305 22.2244 24.1557C22.1845 24.1238 22.1376 24.1027 22.0885 24.0905V24.2237H19.2199V24.0803L19.218 24.0803ZM19.5581 27.1388L20.2269 29.6182H20.9788L21.7283 27.1388H19.5581ZM19.9507 29.6182L19.2819 27.1388H18.6178L19.5439 29.6182H19.9507ZM22.0054 27.1388L21.256 29.6182H21.6714L22.5975 27.1388H22.0049H22.0054ZM18.0548 25.9426H23.2169V26.2827H18.0548V25.9426ZM21.8555 30.1621H19.3608C19.2534 30.1621 19.1521 30.0955 19.1122 29.9873L17.9875 26.9769C17.9727 26.9436 17.9649 26.9069 17.9649 26.8673C17.9649 26.717 18.0843 26.5952 18.2316 26.5952H22.985C23.0163 26.5952 23.0483 26.6006 23.0796 26.6129C23.2169 26.6667 23.2863 26.8229 23.2336 26.9638L22.1089 29.9743C22.0743 30.083 21.9736 30.1618 21.8555 30.1618V30.1621ZM18.595 34.4487H22.7576C22.8497 34.4487 22.9242 34.525 22.9242 34.6186V36.1657C22.9242 36.2596 22.8494 36.3356 22.7576 36.3356H18.595C18.5029 36.3356 18.4284 36.2593 18.4284 36.1657V34.6186C18.4284 34.5247 18.5032 34.4487 18.595 34.4487ZM22.591 34.7888H18.7618V35.9958H22.591V34.7888ZM37.0632 34.4353C37.0632 34.3414 37.138 34.2654 37.2298 34.2654C37.3218 34.2654 37.3963 34.3417 37.3963 34.4353V37.8624C37.3963 37.995 37.3564 38.1228 37.2797 38.2173C37.2024 38.3132 37.0925 38.3739 36.9544 38.3739H34.7077C34.5696 38.3739 34.4597 38.3132 34.3824 38.2173C34.3065 38.1228 34.2658 37.995 34.2658 37.8624V34.4305C34.2658 34.3366 34.3405 34.2606 34.4323 34.2606C34.5244 34.2606 34.5989 34.3369 34.5989 34.4305V37.8624C34.5989 37.9196 34.6129 37.97 34.6382 38.0025C34.6536 38.0221 34.677 38.0343 34.7069 38.0343H36.9535C36.9837 38.0343 37.0068 38.0221 37.0222 38.0025C37.0481 37.9706 37.0615 37.9202 37.0615 37.8624V34.4353H37.0632ZM34.5998 33.5704C34.5998 33.6643 34.525 33.7403 34.4332 33.7403C34.3411 33.7403 34.2666 33.664 34.2666 33.5704V33.2895C34.2666 33.1569 34.3065 33.0291 34.3832 32.9346C34.4605 32.8387 34.5705 32.7781 34.7086 32.7781H36.9552C37.0933 32.7781 37.2033 32.8387 37.2806 32.9346C37.3565 33.0291 37.3972 33.1569 37.3972 33.2895V33.5676C37.3972 33.6615 37.3224 33.7375 37.2306 33.7375C37.1385 33.7375 37.064 33.6612 37.064 33.5676V33.2895C37.064 33.2323 37.0501 33.1819 37.0247 33.1495C37.0094 33.1299 36.9859 33.1176 36.9561 33.1176H34.7094C34.6793 33.1176 34.6561 33.1299 34.6408 33.1495C34.6148 33.1814 34.6014 33.2317 34.6014 33.2895V33.5704H34.5998ZM36.073 28.7968L35.7395 28.8031L35.7334 28.463L36.0668 28.4567L36.073 28.7968ZM36.097 30.1569L35.7635 30.1632L35.7574 29.8231L36.0908 29.8168L36.097 30.1569ZM35.9282 30.5758C36.145 30.5758 36.3408 30.6655 36.4828 30.8098C36.6249 30.9546 36.7122 31.1544 36.7122 31.3756C36.7122 31.5967 36.6243 31.7965 36.4828 31.9413C36.3408 32.0862 36.145 32.1753 35.9282 32.1753C35.7114 32.1753 35.5155 32.0856 35.3735 31.9413C35.2315 31.7965 35.1441 31.5967 35.1441 31.3756C35.1441 31.1544 35.232 30.9546 35.3735 30.8098C35.5155 30.6649 35.7114 30.5758 35.9282 30.5758ZM36.2468 31.0506C36.1656 30.9677 36.0529 30.9159 35.9282 30.9159C35.8034 30.9159 35.6907 30.9677 35.6095 31.0506C35.5283 31.1334 35.4775 31.2483 35.4775 31.3756C35.4775 31.5028 35.5283 31.6177 35.6095 31.7006C35.6907 31.7834 35.8034 31.8352 35.9282 31.8352C36.0529 31.8352 36.1656 31.7834 36.2468 31.7006C36.328 31.6177 36.3788 31.5028 36.3788 31.3756C36.3788 31.2483 36.328 31.1334 36.2468 31.0506ZM25.4818 27.2642L25.4837 27.2349L25.4877 27.1712L25.4918 27.0755L25.4935 26.9799V26.9153H25.1601V26.9751L25.1584 27.0647L25.1528 27.1843L25.1509 27.2141L25.1489 27.2435L25.4815 27.2651L25.4818 27.2642ZM20.1352 21.9343L20.09 21.9391L19.9979 21.9494L19.9059 21.9613L19.8138 21.9759L19.7931 21.9793L19.8478 22.3145L19.8665 22.3111L19.8944 22.3063L20.0094 22.2903L20.1243 22.2767L20.1676 22.2727L20.1363 21.934L20.1352 21.9343ZM18.7974 22.2587L18.7653 22.2715L18.7374 22.2832L18.6827 22.3066L18.5733 22.3555L18.5186 22.3811L18.4798 22.4002L18.6244 22.7061L18.6598 22.689L18.7868 22.6307L18.8122 22.6199L18.89 22.5874L18.9201 22.5752L18.7982 22.259L18.7974 22.2587ZM17.6007 22.9517L17.5647 22.9802L17.5412 22.9987L17.4282 23.094L17.4056 23.1137L17.3615 23.1529L17.3356 23.176L17.5582 23.429L17.5817 23.4079L17.6436 23.3525L17.7709 23.2466L17.8055 23.2193L17.6007 22.9506L17.6007 22.9517ZM16.6394 23.9555L16.628 23.9711L16.5761 24.0446L16.5426 24.0935L16.5091 24.1436L16.4614 24.2187L16.4447 24.2461L16.7273 24.4262L16.7569 24.3784L16.7722 24.3545L16.8336 24.2623L16.8813 24.1931L16.8972 24.1706L16.9087 24.155L16.6394 23.9543V23.9555ZM15.9882 25.1909L15.9762 25.2242L15.9662 25.2527L15.9461 25.3113L15.9092 25.4286L15.8919 25.4872L15.8805 25.5268L16.2011 25.6198L16.2111 25.5845L16.2273 25.5299L16.2619 25.4206L16.2895 25.3386L16.301 25.3073L15.9877 25.1904L15.9882 25.1909ZM15.7008 26.5644L15.6989 26.5937L15.695 26.6575L15.6908 26.7531L15.6891 26.8487V26.9133H16.0225V26.8536L16.0242 26.7639L16.0298 26.6444L16.0317 26.6145L16.0337 26.5852L15.7011 26.5636L15.7008 26.5644ZM21.0474 31.8944L21.0926 31.8895L21.1847 31.8793L21.2768 31.8673L21.3688 31.8528L21.3895 31.8494L21.3348 31.5141L21.3161 31.5176L21.2882 31.5224L21.1732 31.5383L21.0583 31.552L21.015 31.556L21.0463 31.8946L21.0474 31.8944ZM22.3853 31.5699L22.4173 31.5571L22.4452 31.5455L22.4999 31.5221L22.6093 31.4732L22.664 31.4475L22.7028 31.4285L22.5582 31.1225L22.5228 31.1396L22.3959 31.198L22.3705 31.2088L22.2926 31.2412L22.2625 31.2535L22.3844 31.5696L22.3853 31.5699ZM23.582 30.8769L23.618 30.8485L23.6414 30.83L23.7544 30.7346L23.777 30.715L23.8211 30.6757L23.847 30.6527L23.6244 30.3997L23.6009 30.4207L23.539 30.4762L23.4118 30.5821L23.3772 30.6094L23.582 30.8781V30.8769ZM24.5432 29.8732L24.5546 29.8575L24.6065 29.7841L24.64 29.7351L24.6735 29.6851L24.7212 29.6099L24.7379 29.5826L24.4553 29.4025L24.4257 29.4503L24.4104 29.4742L24.349 29.5664L24.3013 29.6355L24.2854 29.658L24.2739 29.6737L24.5432 29.8743V29.8732ZM25.1944 28.6377L25.2064 28.6044L25.2165 28.576L25.2365 28.5174L25.2734 28.4001L25.2907 28.3415L25.3021 28.3019L24.9815 28.2088L24.9715 28.2441L24.9553 28.2988L24.9207 28.4081L24.8931 28.49L24.8816 28.5213L25.195 28.6383L25.1944 28.6377ZM5.27298 19.5903C5.48978 19.5903 5.68564 19.68 5.82767 19.8243C5.96969 19.9691 6.05702 20.1689 6.05702 20.3901C6.05702 20.6112 5.96912 20.811 5.82767 20.9558C5.68564 21.1007 5.48977 21.1898 5.27298 21.1898C5.05618 21.1898 4.86032 21.1001 4.71829 20.9558C4.57627 20.811 4.48895 20.6112 4.48895 20.3901C4.48895 20.1689 4.57684 19.9691 4.71829 19.8243C4.86032 19.6794 5.05619 19.5903 5.27298 19.5903ZM5.59162 20.065C5.51042 19.9822 5.3977 19.9304 5.27298 19.9304C5.14826 19.9304 5.03554 19.9822 4.95434 20.065C4.87315 20.1479 4.82237 20.2628 4.82237 20.3901C4.82237 20.5173 4.87315 20.6322 4.95434 20.7151C5.03554 20.7979 5.14826 20.8497 5.27298 20.8497C5.3977 20.8497 5.51042 20.7979 5.59162 20.7151C5.67281 20.6322 5.72359 20.5173 5.72359 20.3901C5.72359 20.2628 5.67281 20.1479 5.59162 20.065ZM5.44234 22.9175L5.10892 22.9224L5.10417 22.5823L5.4376 22.5775L5.44234 22.9175ZM5.46048 24.2776L5.12705 24.2825L5.12231 23.9424L5.45574 23.9376L5.46048 24.2776ZM36.0876 28.0156C36.0929 28.1095 36.0223 28.1889 35.9311 28.1943C35.839 28.1997 35.7612 28.1277 35.7559 28.0346C35.7291 27.5619 35.5112 27.3158 35.2478 27.1934C34.9671 27.0627 34.6292 27.0602 34.4012 27.0792C34.3926 27.0798 34.3839 27.0798 34.3753 27.0792L30.8233 27.1091V35.6596C30.8233 36.3967 30.6099 37.0917 30.2067 37.5915C29.8261 38.0634 29.284 38.3605 28.5987 38.3605H12.618C11.9327 38.3605 11.3906 38.0634 11.01 37.5915C10.6065 37.0918 10.3934 36.3968 10.3934 35.6596V27.1157L6.67129 27.147H6.66989C6.40399 27.1695 6.00583 27.1646 5.65789 27.0021C5.29322 26.8322 4.99048 26.499 4.95589 25.8714C4.95059 25.7775 5.02118 25.6981 5.11242 25.6927C5.20449 25.6873 5.28234 25.7593 5.28764 25.8523C5.31442 26.325 5.53234 26.5712 5.79573 26.6936C6.07642 26.8242 6.41432 26.8268 6.6423 26.8077C6.65095 26.8072 6.6596 26.8072 6.66825 26.8077L10.3923 26.7764V16.4664C10.161 16.7342 9.86442 16.9329 9.53682 17.0606C9.25892 17.1694 8.95619 17.226 8.65346 17.228C8.35073 17.23 8.05023 17.1776 7.77404 17.0695C7.05668 16.7886 6.50197 16.1468 6.50197 15.1248V10.8761C6.50197 10.8129 6.52317 10.7543 6.55916 10.7082L10.3585 5.05461C10.3686 5.03953 10.3792 5.02615 10.3917 5.01449V3.1296C10.3917 2.3925 10.6052 1.69752 11.0084 1.19772C11.3889 0.725852 11.9311 0.428711 12.6164 0.428711H28.5971C29.2823 0.428711 29.8245 0.72583 30.2051 1.19772C30.6085 1.69747 30.8217 2.39243 30.8217 3.1296V5.10898C30.8217 5.16419 30.8058 5.2157 30.7776 5.25868L34.6298 10.7355L34.6292 10.7361C34.6465 10.7611 34.6604 10.789 34.6685 10.8197C34.6953 10.8619 34.7107 10.9128 34.7107 10.9666V15.1675C34.7107 16.189 34.1172 16.8567 33.3667 17.1503C33.0888 17.2591 32.786 17.3157 32.4833 17.3177C32.1806 17.3197 31.8801 17.2673 31.6039 17.1592C31.3053 17.0422 31.0347 16.8626 30.8207 16.6193V26.7697L34.3706 26.7398H34.372C34.6379 26.7174 35.0361 26.7222 35.384 26.8847C35.7487 27.0546 36.0514 27.3879 36.086 28.0155L36.0876 28.0156ZM25.2941 26.4631C25.2927 26.4631 25.2921 26.4631 25.2941 26.4631V26.4631ZM25.2941 26.1238C25.2913 26.1238 25.2921 26.1238 25.2941 26.1238V26.1238ZM15.7491 27.4233C15.7504 27.4233 15.751 27.4233 15.7491 27.4233V27.4233ZM15.7491 27.7626C15.7518 27.7626 15.751 27.7626 15.7491 27.7626V27.7626ZM16.0691 19.7767C16.1238 19.7855 16.1603 19.8379 16.1517 19.8936C16.143 19.9494 16.0917 19.9867 16.037 19.9779L15.6377 19.9119C15.6804 19.9526 15.7312 19.9881 15.787 20.0172C15.8936 20.0724 16.0211 20.1042 16.1584 20.1042C16.263 20.1042 16.3618 20.0857 16.4497 20.0525C16.5398 20.0186 16.619 19.9696 16.6815 19.909C16.7214 19.8703 16.7848 19.8723 16.823 19.913C16.8609 19.9537 16.859 20.0183 16.8191 20.0573C16.7371 20.1361 16.6344 20.2002 16.5191 20.2437C16.4092 20.2852 16.2873 20.3083 16.1592 20.3083C15.9898 20.3083 15.8311 20.2682 15.6971 20.1987C15.6372 20.1674 15.5825 20.1307 15.5331 20.0886L15.5565 20.2776C15.5632 20.3334 15.5244 20.3843 15.4706 20.3911C15.4159 20.398 15.366 20.3584 15.3593 20.3035L15.2945 19.7861C15.2926 19.7753 15.2926 19.7636 15.2945 19.7514C15.3032 19.6956 15.3545 19.6583 15.4092 19.6671L16.0699 19.7767L16.0691 19.7767ZM16.5783 18.7743C16.5549 18.7234 16.5769 18.6628 16.6268 18.6391C16.6768 18.6152 16.7362 18.6377 16.7594 18.6886L16.9921 19.2026C17.0155 19.2536 16.9935 19.3142 16.9435 19.3378C16.9296 19.3446 16.9148 19.3472 16.9008 19.3472L16.2602 19.3731C16.205 19.3751 16.1589 19.3316 16.157 19.2752C16.155 19.2188 16.1977 19.1719 16.253 19.1699L16.5696 19.1571C16.5384 19.1386 16.5058 19.1218 16.4703 19.1076C16.3777 19.0694 16.2722 19.0484 16.1598 19.0484C16.0331 19.0484 15.9151 19.0757 15.8143 19.1224C15.7122 19.1699 15.6277 19.2388 15.5696 19.321C15.537 19.3666 15.4751 19.3768 15.4304 19.3435C15.3858 19.3102 15.3757 19.247 15.4084 19.2015C15.4865 19.0919 15.5984 19.0009 15.7323 18.9377C15.859 18.8785 16.0058 18.8438 16.1603 18.8438C16.2976 18.8438 16.429 18.8702 16.5451 18.9177C16.5903 18.9362 16.6338 18.9584 16.6746 18.9829L16.58 18.7729L16.5783 18.7743ZM26.1997 20.0832C26.1456 20.0322 26.1431 19.9466 26.193 19.8914C26.243 19.8362 26.327 19.8336 26.3811 19.8845L26.6305 20.1205C26.6847 20.1714 26.6872 20.2571 26.6372 20.3123C26.5873 20.3675 26.5033 20.3701 26.4492 20.3191L26.1997 20.0832ZM25.7165 18.8176C25.8699 18.8176 26.0086 18.8808 26.109 18.9835C26.2098 19.0862 26.2717 19.2277 26.2717 19.3839C26.2717 19.5405 26.2098 19.6819 26.109 19.7844C26.0083 19.8871 25.8696 19.9503 25.7165 19.9503C25.563 19.9503 25.4243 19.8871 25.3239 19.7844C25.2232 19.6816 25.1612 19.5402 25.1612 19.3839C25.1612 19.2274 25.2232 19.086 25.3239 18.9835C25.4246 18.8808 25.5633 18.8176 25.7165 18.8176ZM25.9204 19.1759C25.8685 19.123 25.7957 19.0897 25.7165 19.0897C25.6364 19.0897 25.5644 19.1224 25.5125 19.1759C25.4606 19.2288 25.428 19.3031 25.428 19.3839C25.428 19.4656 25.46 19.539 25.5125 19.592C25.5644 19.6449 25.6372 19.6782 25.7165 19.6782C25.7965 19.6782 25.8685 19.6455 25.9204 19.592C25.9723 19.539 26.005 19.4648 26.005 19.3839C26.005 19.3023 25.9729 19.2288 25.9204 19.1759ZM20.7212 20.7358H26.3032C26.9424 20.6726 27.3334 20.3917 27.508 20.0448C27.5867 19.8877 27.6221 19.7163 27.6165 19.5456C27.6112 19.3734 27.5638 19.2015 27.4779 19.0444C27.2812 18.6847 26.8799 18.4046 26.3046 18.3767C22.5906 18.3767 18.841 18.4319 15.1317 18.3767C14.5592 18.4052 14.1591 18.6855 13.9629 19.0438C13.877 19.2009 13.8296 19.3728 13.8243 19.545C13.819 19.7163 13.8544 19.8877 13.9328 20.0442C14.1075 20.3917 14.4989 20.6717 15.1376 20.7352H20.7196L20.7212 20.7358ZM26.3052 21.0759H15.1374V21.0753C15.1326 21.0753 15.1273 21.0753 15.1226 21.0747C14.3466 21.0019 13.8625 20.6444 13.6385 20.199C13.533 19.9895 13.4859 19.7618 13.4931 19.5347C13.5004 19.309 13.5618 19.0839 13.6731 18.8799C13.9211 18.4271 14.415 18.0741 15.1151 18.0386C15.1223 18.038 15.129 18.0372 15.1363 18.0372H26.3042V18.0377H26.3114C27.0187 18.069 27.5182 18.4234 27.7682 18.8796C27.8795 19.0837 27.9409 19.3088 27.9482 19.5345C27.9554 19.7616 27.9083 19.9893 27.8028 20.1987C27.5801 20.6413 27.1013 20.9964 26.3349 21.0733C26.3248 21.0753 26.3148 21.0761 26.3042 21.0761L26.3052 21.0759ZM34.1788 11.2372H30.8669V15.2139C30.8669 15.9721 31.2714 16.4459 31.7954 16.6509C32.0114 16.7351 32.2469 16.7767 32.4827 16.7753C32.7187 16.7738 32.9567 16.7292 33.178 16.6421C33.7374 16.4232 34.1785 15.9266 34.1785 15.1673V11.2381L34.1788 11.2372ZM30.2067 11.2222H26.8948V15.1988C26.8948 15.957 27.2994 16.4309 27.8234 16.6358C28.0393 16.72 28.2748 16.7616 28.5106 16.7602C28.7466 16.7587 28.9846 16.7141 29.2059 16.627C29.7653 16.4081 30.2065 15.9115 30.2065 15.1522V11.223L30.2067 11.2222ZM26.2346 11.2071H22.9227V15.1838C22.9227 15.9419 23.3273 16.4158 23.8513 16.6207C24.0672 16.705 24.3027 16.7465 24.5385 16.7451C24.7746 16.7437 25.0126 16.699 25.2338 16.6119C25.7933 16.393 26.2344 15.8964 26.2344 15.1371V11.2079L26.2346 11.2071ZM22.2626 11.192H18.9506V15.1687C18.9506 15.9268 19.3552 16.4007 19.8792 16.6056C20.0952 16.6899 20.3307 16.7314 20.5664 16.73C20.8025 16.7286 21.0405 16.6839 21.2618 16.5968C21.8212 16.378 22.2623 15.8813 22.2623 15.122V11.1929L22.2626 11.192ZM18.2905 11.1769H14.9786V15.1536C14.9786 15.9117 15.3832 16.3856 15.9071 16.5906C16.1231 16.6748 16.3586 16.7163 16.5944 16.7149C16.8304 16.7135 17.0684 16.6688 17.2897 16.5817C17.8491 16.3629 18.2903 15.8663 18.2903 15.107V11.1778L18.2905 11.1769ZM14.3184 11.1618H11.0065V15.1385C11.0065 15.8967 11.4111 16.3705 11.9351 16.5755C12.151 16.6597 12.3865 16.7013 12.6223 16.6998C12.8583 16.6984 13.0963 16.6537 13.3176 16.5666C13.877 16.3478 14.3182 15.8512 14.3182 15.0919V11.1627L14.3184 11.1618ZM7.27379 10.6029H10.6139C10.6287 10.6029 10.6427 10.6043 10.6566 10.6063H10.7992L13.3879 5.47838H10.718L7.27406 10.6029L7.27379 10.6029ZM8.51765 11.1467H7.03493V15.1234C7.03493 15.8816 7.43951 16.3554 7.9635 16.5604C8.17946 16.6446 8.41495 16.6862 8.65072 16.6847C8.88677 16.6833 9.12477 16.6386 9.34604 16.5516C9.90547 16.3327 10.3466 15.8361 10.3466 15.0768V11.1485L8.5174 11.147L8.51765 11.1467ZM27.8326 5.47837L30.4272 10.6185L33.8931 10.6205L30.2765 5.4784L27.8326 5.47837ZM29.8287 10.6179L27.2341 5.47837H24.8921L26.5561 10.6157L29.8287 10.6177V10.6179ZM25.9947 10.6159L24.3306 5.47864H22.0265L22.7952 10.6139L25.9944 10.6159L25.9947 10.6159ZM22.2561 10.6139L21.4874 5.4792H19.7321L18.964 10.6119L22.2567 10.6139L22.2561 10.6139ZM13.9854 5.4792L11.3967 10.6077L14.666 10.6097L16.3273 5.47893H13.9852L13.9854 5.4792ZM16.8889 5.4792L15.2276 10.6099L18.4249 10.6119L19.193 5.47922L16.8889 5.4792ZM27.2739 2.4804C27.4787 2.4804 27.6653 2.56264 27.8012 2.69669C27.9399 2.83273 28.0258 3.02113 28.0258 3.22918C28.0258 3.43722 27.9399 3.62562 27.8012 3.76166C27.6653 3.89485 27.4787 3.97796 27.2739 3.97796C27.0691 3.97796 26.8824 3.89571 26.7465 3.76166C26.6078 3.62562 26.5219 3.43722 26.5219 3.22918C26.5219 3.02113 26.6078 2.83273 26.7465 2.69669C26.8824 2.5635 27.0691 2.4804 27.2739 2.4804ZM27.4326 3.08773C27.3927 3.04902 27.3366 3.02454 27.2739 3.02454C27.2111 3.02454 27.1553 3.04845 27.1151 3.08773C27.0785 3.12387 27.0551 3.17396 27.0551 3.22917C27.0551 3.28438 27.0777 3.33447 27.1151 3.37062C27.155 3.40932 27.2111 3.4338 27.2739 3.4338C27.3366 3.4338 27.3924 3.40989 27.4326 3.37062C27.4692 3.33447 27.4926 3.28438 27.4926 3.22917C27.4926 3.17396 27.47 3.12387 27.4326 3.08773ZM17.6119 3.49982C17.4646 3.49982 17.3452 3.37801 17.3452 3.22774C17.3452 3.07748 17.4646 2.95567 17.6119 2.95567H23.6973C23.8446 2.95567 23.964 3.07748 23.964 3.22774C23.964 3.37801 23.8446 3.49982 23.6973 3.49982H17.6119ZM10.9253 4.93445H30.2888V3.12839C30.2888 2.51224 30.1181 1.94104 29.795 1.54062C29.5137 1.19113 29.1097 0.971423 28.5977 0.971423H12.617C12.105 0.971423 11.701 1.19113 11.4197 1.54062C11.0971 1.94105 10.9258 2.51224 10.9258 3.12839V4.93445H10.9253Z" fill="black"/>
<path d="M0.00151786 39.8091H0.000758929H0V39.8084V39.8076H0.000758929H0.00151786H0.000758929V39.8084V39.8091H0.00151786V39.8084V39.8091Z" fill="black"/>
<path d="M0.00320033 39.8084V39.8091H0.00244141V39.8076H0.00320033V39.8084V39.8076V39.8084Z" fill="black"/>
<path d="M0.00591239 39.8084H0.00515346V39.8091C0.00553292 39.8091 0.00591239 39.8089 0.00591239 39.8084V39.8091H0.00515346H0.00439453V39.8084L0.00515346 39.8076V39.8084H0.00591239Z" fill="black"/>
<path d="M0.00710658 39.8084V39.8091V39.8084ZM0.00786551 39.8084V39.8091H0.00710658H0.00634766V39.8084H0.00710658H0.00634766V39.8076H0.00710658V39.8084H0.00786551Z" fill="black"/>
<path d="M0.00954799 39.8076V39.8084V39.8091H0.00878906V39.8084V39.8076H0.00954799Z" fill="black"/>
<path d="M0.0117718 39.8084H0.0110128V39.8091C0.0113923 39.8091 0.0117718 39.8089 0.0117718 39.8084V39.8091H0.0110128H0.0102539V39.8084L0.0110128 39.8076V39.8084H0.0117718Z" fill="black"/>
<path d="M0.0134542 39.8084V39.8076H0.0142132V39.8091H0.0134542H0.0126953V39.8084L0.0134542 39.8076V39.8084ZM0.0134542 39.8091V39.8084V39.8091Z" fill="black"/>
<path d="M0.0168722 39.8091V39.8084V39.8091ZM0.0168722 39.8084V39.8076C0.0172517 39.8076 0.0176311 39.808 0.0176311 39.8084V39.8091H0.0168722H0.0161133V39.8076H0.0168722V39.8084Z" fill="black"/>
<path d="M0.0185547 39.8076H0.0194475V39.8085V39.8076H0.0203404L0.0194475 39.8094V39.8104H0.0185547V39.8094H0.0194475L0.0185547 39.8076Z" fill="black"/>
<path d="M0.0227316 39.8076V39.8084V39.8091H0.0234905V39.8084C0.0234905 39.808 0.023111 39.8076 0.0227316 39.8076ZM0.0227316 39.8076H0.0234905V39.8084V39.8091H0.0227316H0.0219727V39.8084V39.8076H0.0227316Z" fill="black"/>
<path d="M0.0244141 39.8076H0.025173V39.8091H0.0244141V39.8076Z" fill="black"/>
<path d="M0.0273968 39.8084H0.0266378V39.8091C0.0270173 39.8091 0.0273968 39.8089 0.0273968 39.8084V39.8091H0.0266378H0.0258789V39.8084L0.0266378 39.8076V39.8084H0.0273968Z" fill="black"/>
<path d="M0.0293499 39.8084V39.8091H0.028591V39.8084V39.8091H0.027832V39.8076H0.028591V39.8084V39.8076C0.0289704 39.8076 0.0293499 39.808 0.0293499 39.8084Z" fill="black"/>
<path d="M0.0310324 39.8084V39.8091V39.8084ZM0.0317913 39.8084V39.8091H0.0310324H0.0302734V39.8084H0.0310324H0.0302734V39.8076H0.0310324V39.8084H0.0317913Z" fill="black"/>
<path d="M0.0336914 39.8076H0.0344503H0.0352093V39.8084H0.0344503V39.8091H0.0336914V39.8076ZM0.0344503 39.8076V39.8084V39.8076Z" fill="black"/>
<path d="M0.0368917 39.8084V39.8091V39.8084ZM0.0376507 39.8084V39.8091H0.0368917H0.0361328V39.8084H0.0368917H0.0361328V39.8076H0.0368917V39.8084H0.0376507Z" fill="black"/>
<path d="M0.0400921 39.8084V39.8091H0.0393331V39.8084V39.8091H0.0385742V39.8076H0.0393331V39.8084V39.8076C0.0397126 39.8076 0.0400921 39.808 0.0400921 39.8084Z" fill="black"/>
<path d="M0.0412863 39.8084V39.8091V39.8084ZM0.0420452 39.8084V39.8091H0.0412863H0.0405273V39.8084H0.0412863H0.0405273V39.8076H0.0412863V39.8084H0.0420452Z" fill="black"/>
<path d="M0.0444866 39.8076V39.8084H0.0437277C0.0441071 39.8084 0.0444866 39.8088 0.0444866 39.8091H0.0437277H0.0429688H0.0437277V39.8084H0.0429688L0.0437277 39.8076H0.0444866Z" fill="black"/>
<path d="M0.0456808 39.8084V39.8091V39.8084ZM0.0456808 39.8076V39.8084H0.0464397C0.0464397 39.8089 0.0460603 39.8091 0.0456808 39.8091H0.0449219V39.8084L0.0456808 39.8076Z" fill="black"/>
<path d="M0.0473633 39.8076H0.0481222V39.8084V39.8076H0.0488811L0.0481222 39.8091L0.0473633 39.8076Z" fill="black"/>
<path d="M0.0508343 39.8076V39.8084H0.0500753C0.0504548 39.8084 0.0508343 39.8088 0.0508343 39.8091H0.0500753H0.0493164H0.0500753V39.8084H0.0493164L0.0500753 39.8076H0.0508343Z" fill="black"/>
<path d="M0.0517578 39.8076H0.0525167V39.8084V39.8076H0.0532757L0.0525167 39.8084L0.0532757 39.8091H0.0525167V39.8084V39.8091H0.0517578V39.8076Z" fill="black"/>
<path d="M0.0544699 39.8084V39.8091V39.8084ZM0.0552288 39.8084V39.8091H0.0544699H0.0537109V39.8084H0.0544699H0.0537109V39.8076H0.0544699V39.8084H0.0552288Z" fill="black"/>
<path d="M0.000758929 39.811V39.8126H0V39.811H0.000758929Z" fill="black"/>
<path d="M0.00222377 39.8118V39.8126H0.00146484V39.811H0.00222377V39.8118V39.811V39.8118Z" fill="black"/>
<path d="M0.00368862 39.8118V39.8126V39.8118ZM0.00368862 39.811V39.8118H0.00444754C0.00444754 39.8124 0.00406808 39.8126 0.00368862 39.8126H0.00292969V39.8118L0.00368862 39.811Z" fill="black"/>
<path d="M0.00715681 39.812V39.811C0.00760324 39.811 0.00804967 39.8115 0.00804967 39.812V39.8129H0.00715681V39.812V39.8129H0.00626395V39.812V39.8129H0.00537109V39.811H0.00626395V39.812V39.811V39.812H0.00715681Z" fill="black"/>
<path d="M0.0110128 39.811V39.8118V39.8126H0.0102539V39.8118V39.811H0.0110128Z" fill="black"/>
<path d="M0.0132366 39.8118V39.8126H0.0124777V39.8118V39.8126H0.0117188V39.811H0.0124777V39.8118V39.811C0.0128571 39.811 0.0132366 39.8114 0.0132366 39.8118Z" fill="black"/>
<path d="M0.015678 39.8118H0.0149191V39.8126C0.0152985 39.8126 0.015678 39.8124 0.015678 39.8118V39.8126H0.0149191H0.0141602V39.8118L0.0149191 39.811V39.8118H0.015678Z" fill="black"/>
<path d="M0.0170898 39.811H0.0178488L0.0186077 39.8118V39.811V39.8126L0.0178488 39.8118V39.8126H0.0170898V39.811Z" fill="black"/>
<path d="M0.0207785 39.8118V39.8126V39.8118ZM0.0207785 39.811V39.8118H0.0215374C0.0215374 39.8124 0.0211579 39.8126 0.0207785 39.8126H0.0200195V39.8118L0.0207785 39.811Z" fill="black"/>
<path d="M0.0224609 39.8118V39.811H0.0232199V39.8118V39.8126V39.8118V39.811H0.0239788V39.8126H0.0232199H0.0224609V39.8118Z" fill="black"/>
<path d="M0.0264202 39.8118V39.8126H0.0256613V39.8118V39.8126H0.0249023V39.811H0.0256613V39.8118V39.811C0.0260407 39.811 0.0264202 39.8114 0.0264202 39.8118Z" fill="black"/>
<path d="M0.0283203 39.811H0.0290792H0.0298382V39.8118H0.0290792V39.8126H0.0283203V39.811ZM0.0290792 39.811V39.8118V39.811Z" fill="black"/>
<path d="M0.0315206 39.8118V39.8126H0.0307617V39.811H0.0315206V39.8118V39.811V39.8118Z" fill="black"/>
<path d="M0.0329855 39.8118V39.8126V39.8118ZM0.0329855 39.811V39.8118H0.0337444C0.0337444 39.8124 0.033365 39.8126 0.0329855 39.8126H0.0322266V39.8118L0.0329855 39.811Z" fill="black"/>
<path d="M0.034668 39.811H0.0355608V39.8129H0.034668V39.8138V39.811ZM0.034668 39.811H0.0355608H0.034668Z" fill="black"/>
<path d="M0.0376507 39.8118H0.0368917V39.8126C0.0372712 39.8126 0.0376507 39.8124 0.0376507 39.8118V39.8126H0.0368917H0.0361328V39.8118L0.0368917 39.811V39.8118H0.0376507Z" fill="black"/>
<path d="M0.0396038 39.811V39.8118H0.0388449V39.8126H0.0396038H0.0388449H0.0380859V39.8118L0.0388449 39.811H0.0396038Z" fill="black"/>
<path d="M0.040798 39.811V39.8118V39.8126H0.0400391V39.8118V39.811H0.040798Z" fill="black"/>
</svg>
