<svg width="233" height="127" viewBox="0 0 233 127" fill="none" xmlns="http://www.w3.org/2000/svg">
<mask id="mask0_501_2915" style="mask-type:alpha" maskUnits="userSpaceOnUse" x="50" y="49" width="133" height="103">
<path d="M66.0222 89.624C64.0809 89.624 62.2782 89.2773 60.6142 88.584C58.9849 87.856 57.6676 86.7987 56.6622 85.412L57.3902 83.8V89H50.1102V49.636H57.9102V66.016L56.7142 64.456C57.6502 63.0347 58.9156 61.9427 60.5102 61.18C62.1396 60.3827 63.9942 59.984 66.0742 59.984C68.7782 59.984 71.2222 60.6427 73.4062 61.96C75.5902 63.2773 77.3236 65.0627 78.6062 67.316C79.8889 69.5347 80.5302 72.0307 80.5302 74.804C80.5302 77.5427 79.8889 80.0387 78.6062 82.292C77.3582 84.5453 75.6422 86.3307 73.4582 87.648C71.2742 88.9653 68.7956 89.624 66.0222 89.624ZM65.0862 82.604C66.5422 82.604 67.8249 82.2747 68.9342 81.616C70.0436 80.9573 70.9102 80.0387 71.5342 78.86C72.1582 77.6813 72.4702 76.3293 72.4702 74.804C72.4702 73.2787 72.1582 71.944 71.5342 70.8C70.9102 69.6213 70.0436 68.7027 68.9342 68.044C67.8249 67.3507 66.5422 67.004 65.0862 67.004C63.6996 67.004 62.4516 67.3333 61.3422 67.992C60.2676 68.6507 59.4182 69.5693 58.7942 70.748C58.2049 71.9267 57.9102 73.2787 57.9102 74.804C57.9102 76.3293 58.2049 77.6813 58.7942 78.86C59.4182 80.0387 60.2676 80.9573 61.3422 81.616C62.4516 82.2747 63.6996 82.604 65.0862 82.604ZM95.2905 89.624C93.0025 89.624 91.0439 89.1387 89.4145 88.168C87.8199 87.1627 86.6065 85.776 85.7745 84.008C84.9425 82.24 84.5265 80.1773 84.5265 77.82V60.608H92.3265V77.196C92.3265 78.2707 92.5345 79.224 92.9505 80.056C93.4012 80.8533 94.0252 81.4773 94.8225 81.928C95.6199 82.3787 96.5212 82.604 97.5265 82.604C98.5665 82.604 99.4679 82.3787 100.231 81.928C101.028 81.4773 101.635 80.8533 102.051 80.056C102.501 79.224 102.727 78.2707 102.727 77.196V60.608H110.527V89H103.247V83.384L103.663 84.632C103.004 86.3307 101.929 87.596 100.439 88.428C98.9825 89.2253 97.2665 89.624 95.2905 89.624ZM127.355 89.624C124.235 89.624 121.514 88.896 119.191 87.44C116.903 85.9493 115.343 83.956 114.511 81.46L120.231 78.756C120.959 80.2813 121.947 81.4773 123.195 82.344C124.443 83.2107 125.83 83.644 127.355 83.644C128.465 83.644 129.314 83.4187 129.903 82.968C130.493 82.5173 130.787 81.8933 130.787 81.096C130.787 80.68 130.683 80.3333 130.475 80.056C130.267 79.744 129.955 79.4667 129.539 79.224C129.123 78.9813 128.603 78.7733 127.979 78.6L123.143 77.248C120.821 76.5893 119.035 75.532 117.787 74.076C116.539 72.5853 115.915 70.8347 115.915 68.824C115.915 67.056 116.366 65.5133 117.267 64.196C118.169 62.8787 119.434 61.856 121.063 61.128C122.693 60.3653 124.565 59.984 126.679 59.984C129.453 59.984 131.879 60.6427 133.959 61.96C136.074 63.2427 137.565 65.0627 138.431 67.42L132.659 70.124C132.243 68.9453 131.481 68.0093 130.371 67.316C129.297 66.588 128.066 66.224 126.679 66.224C125.674 66.224 124.877 66.432 124.287 66.848C123.733 67.264 123.455 67.836 123.455 68.564C123.455 68.9453 123.559 69.292 123.767 69.604C123.975 69.916 124.305 70.1933 124.755 70.436C125.241 70.6787 125.83 70.904 126.523 71.112L131.047 72.464C133.405 73.1573 135.207 74.2147 136.455 75.636C137.703 77.0227 138.327 78.7387 138.327 80.784C138.327 82.552 137.859 84.0947 136.923 85.412C136.022 86.7293 134.757 87.7693 133.127 88.532C131.498 89.26 129.574 89.624 127.355 89.624ZM142.989 89V60.608H150.789V89H142.989ZM142.989 58.06V50.26H150.789V58.06H142.989ZM156.497 89V60.608H163.777V66.224L163.361 64.976C164.02 63.2773 165.077 62.0293 166.533 61.232C168.024 60.4 169.757 59.984 171.733 59.984C173.882 59.984 175.754 60.4347 177.349 61.336C178.978 62.2373 180.244 63.5027 181.145 65.132C182.046 66.7267 182.497 68.5987 182.497 70.748V89H174.697V72.412C174.697 71.3027 174.472 70.3493 174.021 69.552C173.605 68.7547 172.998 68.1307 172.201 67.68C171.438 67.2293 170.537 67.004 169.497 67.004C168.492 67.004 167.59 67.2293 166.793 67.68C165.996 68.1307 165.372 68.7547 164.921 69.552C164.505 70.3493 164.297 71.3027 164.297 72.412V89H156.497ZM89.8878 151.624C86.8718 151.624 84.2545 150.965 82.0358 149.648C79.8171 148.296 78.1011 146.493 76.8878 144.24C75.6745 141.987 75.0678 139.491 75.0678 136.752C75.0678 133.909 75.6918 131.379 76.9398 129.16C78.2225 126.941 79.9385 125.191 82.0878 123.908C84.2371 122.625 86.6638 121.984 89.3678 121.984C91.6211 121.984 93.6145 122.348 95.3478 123.076C97.0811 123.769 98.5371 124.757 99.7158 126.04C100.929 127.323 101.848 128.813 102.472 130.512C103.096 132.176 103.408 133.996 103.408 135.972C103.408 136.527 103.373 137.081 103.304 137.636C103.269 138.156 103.182 138.607 103.044 138.988H81.7758V133.268H98.6238L94.9318 135.972C95.2785 134.481 95.2611 133.164 94.8798 132.02C94.4985 130.841 93.8225 129.923 92.8518 129.264C91.9158 128.571 90.7545 128.224 89.3678 128.224C88.0158 128.224 86.8545 128.553 85.8838 129.212C84.9131 129.871 84.1851 130.841 83.6998 132.124C83.2145 133.407 83.0238 134.967 83.1278 136.804C82.9891 138.399 83.1798 139.803 83.6998 141.016C84.2198 142.229 85.0171 143.183 86.0918 143.876C87.1665 144.535 88.4665 144.864 89.9918 144.864C91.3785 144.864 92.5571 144.587 93.5278 144.032C94.5331 143.477 95.3131 142.715 95.8678 141.744L102.108 144.708C101.553 146.095 100.669 147.308 99.4558 148.348C98.2771 149.388 96.8731 150.203 95.2438 150.792C93.6145 151.347 91.8291 151.624 89.8878 151.624ZM119.129 151.624C116.009 151.624 113.288 150.896 110.965 149.44C108.677 147.949 107.117 145.956 106.285 143.46L112.005 140.756C112.733 142.281 113.721 143.477 114.969 144.344C116.217 145.211 117.604 145.644 119.129 145.644C120.238 145.644 121.088 145.419 121.677 144.968C122.266 144.517 122.561 143.893 122.561 143.096C122.561 142.68 122.457 142.333 122.249 142.056C122.041 141.744 121.729 141.467 121.313 141.224C120.897 140.981 120.377 140.773 119.753 140.6L114.917 139.248C112.594 138.589 110.809 137.532 109.561 136.076C108.313 134.585 107.689 132.835 107.689 130.824C107.689 129.056 108.14 127.513 109.041 126.196C109.942 124.879 111.208 123.856 112.837 123.128C114.466 122.365 116.338 121.984 118.453 121.984C121.226 121.984 123.653 122.643 125.733 123.96C127.848 125.243 129.338 127.063 130.205 129.42L124.433 132.124C124.017 130.945 123.254 130.009 122.145 129.316C121.07 128.588 119.84 128.224 118.453 128.224C117.448 128.224 116.65 128.432 116.061 128.848C115.506 129.264 115.229 129.836 115.229 130.564C115.229 130.945 115.333 131.292 115.541 131.604C115.749 131.916 116.078 132.193 116.529 132.436C117.014 132.679 117.604 132.904 118.297 133.112L122.821 134.464C125.178 135.157 126.981 136.215 128.229 137.636C129.477 139.023 130.101 140.739 130.101 142.784C130.101 144.552 129.633 146.095 128.697 147.412C127.796 148.729 126.53 149.769 124.901 150.532C123.272 151.26 121.348 151.624 119.129 151.624ZM145.891 151.624C142.771 151.624 140.049 150.896 137.727 149.44C135.439 147.949 133.879 145.956 133.047 143.46L138.767 140.756C139.495 142.281 140.483 143.477 141.731 144.344C142.979 145.211 144.365 145.644 145.891 145.644C147 145.644 147.849 145.419 148.439 144.968C149.028 144.517 149.323 143.893 149.323 143.096C149.323 142.68 149.219 142.333 149.011 142.056C148.803 141.744 148.491 141.467 148.075 141.224C147.659 140.981 147.139 140.773 146.515 140.6L141.679 139.248C139.356 138.589 137.571 137.532 136.323 136.076C135.075 134.585 134.451 132.835 134.451 130.824C134.451 129.056 134.901 127.513 135.803 126.196C136.704 124.879 137.969 123.856 139.599 123.128C141.228 122.365 143.1 121.984 145.215 121.984C147.988 121.984 150.415 122.643 152.495 123.96C154.609 125.243 156.1 127.063 156.967 129.42L151.195 132.124C150.779 130.945 150.016 130.009 148.907 129.316C147.832 128.588 146.601 128.224 145.215 128.224C144.209 128.224 143.412 128.432 142.823 128.848C142.268 129.264 141.991 129.836 141.991 130.564C141.991 130.945 142.095 131.292 142.303 131.604C142.511 131.916 142.84 132.193 143.291 132.436C143.776 132.679 144.365 132.904 145.059 133.112L149.583 134.464C151.94 135.157 153.743 136.215 154.991 137.636C156.239 139.023 156.863 140.739 156.863 142.784C156.863 144.552 156.395 146.095 155.459 147.412C154.557 148.729 153.292 149.769 151.663 150.532C150.033 151.26 148.109 151.624 145.891 151.624Z" fill="#18181B"/>
<path d="M60.6142 88.584L57.3507 95.8881L57.4435 95.9295L57.5373 95.9686L60.6142 88.584ZM56.6622 85.412L49.3713 82.1193L47.4608 86.3497L50.1854 90.1077L56.6622 85.412ZM57.3902 83.8H65.3902L50.0993 80.5073L57.3902 83.8ZM57.3902 89V97H65.3902V89H57.3902ZM50.1102 89H42.1102V97H50.1102V89ZM50.1102 49.636V41.636H42.1102V49.636H50.1102ZM57.9102 49.636H65.9102V41.636H57.9102V49.636ZM57.9102 66.016L51.5614 70.8834L65.9102 89.5993V66.016H57.9102ZM56.7142 64.456L50.0329 60.0561L46.9036 64.808L50.3654 69.3235L56.7142 64.456ZM60.5102 61.18L63.9619 68.3971L63.9944 68.3815L64.0267 68.3657L60.5102 61.18ZM73.4062 61.96L77.5382 55.1097H77.5382L73.4062 61.96ZM78.6062 67.316L71.6537 71.2736L71.667 71.2968L71.6804 71.32L78.6062 67.316ZM78.6062 82.292L71.6537 78.3344L71.6306 78.3751L71.6079 78.416L78.6062 82.292ZM73.4582 87.648L69.3263 80.7977H69.3263L73.4582 87.648ZM68.9342 81.616L73.0186 88.4948L68.9342 81.616ZM71.5342 78.86L64.4639 75.1169L64.4639 75.1169L71.5342 78.86ZM71.5342 70.8L64.4639 74.5431L64.4872 74.5871L64.5111 74.6308L71.5342 70.8ZM68.9342 68.044L64.6943 74.828L64.7716 74.8763L64.8499 74.9228L68.9342 68.044ZM61.3422 67.992L57.2579 61.1132L57.2096 61.1418L57.1618 61.1712L61.3422 67.992ZM58.7942 70.748L51.7239 67.0049L51.6804 67.0871L51.6388 67.1703L58.7942 70.748ZM58.7942 78.86L51.6388 82.4377L51.6804 82.5209L51.7239 82.6031L58.7942 78.86ZM61.3422 81.616L57.1617 88.4368L57.2096 88.4662L57.2579 88.4948L61.3422 81.616ZM66.0222 81.624C65.0551 81.624 64.3072 81.4561 63.6912 81.1994L57.5373 95.9686C60.2493 97.0986 63.1068 97.624 66.0222 97.624V81.624ZM63.8778 81.2799C63.4738 81.0994 63.2854 80.918 63.1391 80.7163L50.1854 90.1077C52.0498 92.6793 54.496 94.6126 57.3507 95.8881L63.8778 81.2799ZM63.9532 88.7047L64.6812 87.0927L50.0993 80.5073L49.3713 82.1193L63.9532 88.7047ZM49.3902 83.8V89H65.3902V83.8H49.3902ZM57.3902 81H50.1102V97H57.3902V81ZM58.1102 89V49.636H42.1102V89H58.1102ZM50.1102 57.636H57.9102V41.636H50.1102V57.636ZM49.9102 49.636V66.016H65.9102V49.636H49.9102ZM64.2591 61.1485L63.0631 59.5885L50.3654 69.3235L51.5614 70.8834L64.2591 61.1485ZM63.3956 68.8559C63.4995 68.6982 63.6268 68.5573 63.9619 68.3971L57.0586 53.9629C54.2044 55.328 51.801 57.3711 50.0329 60.0561L63.3956 68.8559ZM64.0267 68.3657C64.4109 68.1777 65.034 67.984 66.0742 67.984V51.984C62.9545 51.984 59.8682 52.5876 56.9938 53.9943L64.0267 68.3657ZM66.0742 67.984C67.4132 67.984 68.4132 68.2909 69.2743 68.8103L77.5382 55.1097C74.0313 52.9944 70.1432 51.984 66.0742 51.984V67.984ZM69.2743 68.8103C70.2659 69.4085 71.0365 70.1893 71.6537 71.2736L85.5588 63.3584C83.6106 59.936 80.9146 57.1462 77.5382 55.1097L69.2743 68.8103ZM71.6804 71.32C72.202 72.2224 72.5302 73.3173 72.5302 74.804H88.5302C88.5302 70.744 87.5758 66.847 85.5321 63.312L71.6804 71.32ZM72.5302 74.804C72.5302 76.2359 72.2109 77.3556 71.6537 78.3344L85.5588 86.2496C87.5669 82.7218 88.5302 78.8494 88.5302 74.804H72.5302ZM71.6079 78.416C71.0315 79.4568 70.2985 80.2113 69.3263 80.7977L77.5902 94.4983C80.986 92.4501 83.685 89.6338 85.6046 86.168L71.6079 78.416ZM69.3263 80.7977C68.4974 81.2977 67.4709 81.624 66.0222 81.624V97.624C70.1203 97.624 74.0511 96.633 77.5902 94.4983L69.3263 80.7977ZM65.0862 90.604C67.7908 90.604 70.5203 89.9782 73.0186 88.4948L64.8499 74.7372C64.9042 74.705 64.9604 74.677 65.0157 74.6542C65.0708 74.6314 65.1171 74.617 65.1507 74.6083C65.2202 74.5905 65.209 74.604 65.0862 74.604V90.604ZM73.0186 88.4948C75.4366 87.0591 77.3168 85.0356 78.6045 82.6031L64.4639 75.1169C64.4697 75.106 64.5099 75.0357 64.5971 74.9432C64.6856 74.8494 64.7784 74.7796 64.8499 74.7372L73.0186 88.4948ZM78.6045 82.6031C79.9218 80.1149 80.4702 77.4451 80.4702 74.804H64.4702C64.4702 75.0204 64.4483 75.1321 64.4411 75.1631C64.435 75.1897 64.4381 75.1658 64.4639 75.1169L78.6045 82.6031ZM80.4702 74.804C80.4702 72.1693 79.9238 69.4743 78.5574 66.9692L64.5111 74.6308C64.4875 74.5876 64.4707 74.5495 64.4596 74.5199C64.4485 74.4907 64.4453 74.476 64.4463 74.48C64.4481 74.4877 64.4702 74.5865 64.4702 74.804H80.4702ZM78.6045 67.0569C77.3168 64.6244 75.4366 62.6009 73.0186 61.1652L64.8499 74.9228C64.7784 74.8804 64.6856 74.8106 64.5971 74.7168C64.5099 74.6243 64.4697 74.554 64.4639 74.5431L78.6045 67.0569ZM73.1742 61.26C70.653 59.6842 67.8669 59.004 65.0862 59.004V75.004C65.1761 75.004 65.1538 75.0141 65.053 74.9869C64.9465 74.9581 64.8176 74.9051 64.6943 74.828L73.1742 61.26ZM65.0862 59.004C62.3736 59.004 59.6957 59.6657 57.2579 61.1132L65.4266 74.8708C65.3429 74.9205 65.2446 74.9616 65.1515 74.9862C65.0618 75.0099 65.031 75.004 65.0862 75.004V59.004ZM57.1618 61.1712C54.7939 62.6225 52.9778 64.6366 51.7239 67.0049L65.8645 74.4911C65.8738 74.4735 65.8487 74.5244 65.7734 74.6058C65.6962 74.6894 65.6063 74.7616 65.5227 74.8128L57.1618 61.1712ZM51.6388 67.1703C50.4127 69.6225 49.9102 72.2324 49.9102 74.804H65.9102C65.9102 74.5565 65.9341 74.4123 65.9478 74.3496C65.9606 74.2909 65.9669 74.2912 65.9497 74.3257L51.6388 67.1703ZM49.9102 74.804C49.9102 77.3756 50.4127 79.9855 51.6388 82.4377L65.9497 75.2823C65.9669 75.3168 65.9606 75.3171 65.9478 75.2584C65.9341 75.1957 65.9102 75.0515 65.9102 74.804H49.9102ZM51.7239 82.6031C52.9778 84.9714 54.7939 86.9855 57.1617 88.4368L65.5227 74.7952C65.6063 74.8464 65.6962 74.9186 65.7734 75.0022C65.8487 75.0836 65.8738 75.1345 65.8645 75.1169L51.7239 82.6031ZM57.2579 88.4948C59.6957 89.9423 62.3736 90.604 65.0862 90.604V74.604C65.031 74.604 65.0618 74.5981 65.1515 74.6218C65.2446 74.6464 65.3429 74.6875 65.4266 74.7372L57.2579 88.4948ZM89.4145 88.168L85.1481 94.9354L85.2334 94.9892L85.3201 95.0408L89.4145 88.168ZM85.7745 84.008L78.536 87.4144L85.7745 84.008ZM84.5265 60.608V52.608H76.5265V60.608H84.5265ZM92.3265 60.608H100.327V52.608H92.3265V60.608ZM92.9505 80.056L85.7951 83.6337L85.886 83.8155L85.986 83.9925L92.9505 80.056ZM94.8225 81.928L98.759 74.9635L94.8225 81.928ZM100.231 81.928L96.2941 74.9635L96.227 75.0014L96.1607 75.0406L100.231 81.928ZM102.051 80.056L95.0162 76.2457L94.9866 76.3004L94.9578 76.3555L102.051 80.056ZM102.727 60.608V52.608H94.7265V60.608H102.727ZM110.527 60.608H118.527V52.608H110.527V60.608ZM110.527 89V97H118.527V89H110.527ZM103.247 89H95.2465V97H103.247V89ZM103.247 83.384L110.836 80.8542L95.2465 83.384H103.247ZM103.663 84.632L111.121 87.5242L112.164 84.8367L111.252 82.1022L103.663 84.632ZM100.439 88.428L104.281 95.4448L104.309 95.4293L104.337 95.4136L100.439 88.428ZM95.2905 81.624C94.1458 81.624 93.6667 81.3892 93.509 81.2952L85.3201 95.0408C88.421 96.8882 91.8592 97.624 95.2905 97.624V81.624ZM93.6809 81.4006C93.4261 81.2399 93.2203 81.0419 93.0131 80.6016L78.536 87.4144C79.9928 90.5101 82.2136 93.0854 85.1481 94.9354L93.6809 81.4006ZM93.0131 80.6016C92.7753 80.0963 92.5265 79.2389 92.5265 77.82H76.5265C76.5265 81.1158 77.1098 84.3837 78.536 87.4144L93.0131 80.6016ZM92.5265 77.82V60.608H76.5265V77.82H92.5265ZM84.5265 68.608H92.3265V52.608H84.5265V68.608ZM84.3265 60.608V77.196H100.327V60.608H84.3265ZM84.3265 77.196C84.3265 79.3195 84.7433 81.5302 85.7951 83.6337L100.106 76.4783C100.209 76.685 100.268 76.871 100.299 77.0117C100.328 77.1484 100.327 77.2171 100.327 77.196H84.3265ZM85.986 83.9925C87.1521 86.0555 88.823 87.7264 90.8861 88.8925L98.759 74.9635C98.9663 75.0807 99.1946 75.2464 99.4134 75.4651C99.6322 75.6839 99.7978 75.9122 99.915 76.1195L85.986 83.9925ZM90.8861 88.8925C92.9992 90.0869 95.2799 90.604 97.5265 90.604V74.604C97.6248 74.604 97.8033 74.6155 98.0368 74.6739C98.2742 74.7332 98.5221 74.8296 98.759 74.9635L90.8861 88.8925ZM97.5265 90.604C99.7467 90.604 102.105 90.1126 104.3 88.8154L96.1607 75.0406C96.8305 74.6448 97.3864 74.604 97.5265 74.604V90.604ZM104.167 88.8925C106.283 87.6963 107.999 85.9503 109.143 83.7565L94.9578 76.3555C95.0967 76.0894 95.2922 75.808 95.5476 75.5454C95.8021 75.2835 96.0647 75.0931 96.2941 74.9635L104.167 88.8925ZM109.085 83.8663C110.251 81.7134 110.727 79.4184 110.727 77.196H94.7265C94.7265 77.173 94.7292 77.0582 94.772 76.8768C94.816 76.6909 94.8936 76.472 95.0162 76.2457L109.085 83.8663ZM110.727 77.196V60.608H94.7265V77.196H110.727ZM102.727 68.608H110.527V52.608H102.727V68.608ZM102.527 60.608V89H118.527V60.608H102.527ZM110.527 81H103.247V97H110.527V81ZM111.247 89V83.384H95.2465V89H111.247ZM95.6571 85.9138L96.0731 87.1618L111.252 82.1022L110.836 80.8542L95.6571 85.9138ZM96.2036 81.7398C96.1659 81.8371 96.1704 81.7875 96.2649 81.6762C96.3089 81.6245 96.3602 81.574 96.4149 81.5292C96.4693 81.4847 96.514 81.4567 96.5396 81.4424L104.337 95.4136C107.569 93.6097 109.838 90.8344 111.121 87.5242L96.2036 81.7398ZM96.596 81.4112C96.5234 81.451 96.1789 81.624 95.2905 81.624V97.624C98.3542 97.624 101.442 96.9997 104.281 95.4448L96.596 81.4112ZM119.191 87.44L114.824 94.1429L114.883 94.1811L114.942 94.2183L119.191 87.44ZM114.511 81.46L111.092 74.2274L104.679 77.2594L106.922 83.9898L114.511 81.46ZM120.231 78.756L127.451 75.3102L124.018 68.117L116.812 71.5234L120.231 78.756ZM123.195 82.344L118.632 88.915L123.195 82.344ZM129.903 82.968L134.763 89.3229H134.763L129.903 82.968ZM130.475 80.056L123.819 84.4936L123.942 84.6784L124.075 84.856L130.475 80.056ZM127.979 78.6L125.825 86.3046L125.838 86.3081L127.979 78.6ZM123.143 77.248L120.961 84.9445L120.975 84.9486L120.989 84.9526L123.143 77.248ZM117.787 74.076L111.653 79.2115L111.683 79.2471L111.713 79.2823L117.787 74.076ZM121.063 61.128L124.327 68.4321L124.391 68.4034L124.455 68.3735L121.063 61.128ZM133.959 61.96L129.679 68.7186L129.744 68.7599L129.811 68.8001L133.959 61.96ZM138.431 67.42L141.825 74.6645L148.473 71.55L145.94 64.6595L138.431 67.42ZM132.659 70.124L125.116 72.7866L128.055 81.1153L136.053 77.3685L132.659 70.124ZM130.371 67.316L125.885 73.9394L126.007 74.0219L126.131 74.1L130.371 67.316ZM124.287 66.848L119.674 60.3123L119.58 60.3788L119.487 60.448L124.287 66.848ZM123.767 69.604L117.111 74.0416V74.0416L123.767 69.604ZM124.755 70.436L120.963 77.4798L121.069 77.5372L121.178 77.5914L124.755 70.436ZM126.523 71.112L124.225 78.7746L124.233 78.777L126.523 71.112ZM131.047 72.464L128.757 80.129L128.773 80.134L128.79 80.1389L131.047 72.464ZM136.455 75.636L130.444 80.9144L130.476 80.9513L130.509 80.9877L136.455 75.636ZM136.923 85.412L130.402 80.7783L130.361 80.8361L130.321 80.8945L136.923 85.412ZM133.127 88.532L136.391 95.8361L136.455 95.8074L136.519 95.7775L133.127 88.532ZM127.355 81.624C125.526 81.624 124.321 81.2135 123.441 80.6617L114.942 94.2183C118.708 96.5785 122.945 97.624 127.355 97.624V81.624ZM123.558 80.7371C122.723 80.193 122.338 79.642 122.101 78.9302L106.922 83.9898C108.349 88.27 111.084 91.7057 114.824 94.1429L123.558 80.7371ZM117.93 88.6926L123.65 85.9886L116.812 71.5234L111.092 74.2274L117.93 88.6926ZM113.012 82.2018C114.27 84.8378 116.118 87.1687 118.632 88.915L127.759 75.773C127.747 75.7649 127.725 75.749 127.686 75.7019C127.644 75.6514 127.558 75.5344 127.451 75.3102L113.012 82.2018ZM118.632 88.915C121.226 90.7159 124.206 91.644 127.355 91.644V75.644C127.354 75.644 127.375 75.644 127.415 75.6499C127.455 75.6558 127.504 75.6664 127.558 75.6832C127.675 75.7198 127.746 75.7643 127.759 75.773L118.632 88.915ZM127.355 91.644C129.392 91.644 132.238 91.2537 134.763 89.3229L125.044 76.6131C126.39 75.5836 127.538 75.644 127.355 75.644V91.644ZM134.763 89.3229C137.497 87.2323 138.787 84.1696 138.787 81.096H122.787C122.787 80.4965 122.903 79.6562 123.332 78.746C123.771 77.8171 124.402 77.1041 125.044 76.6131L134.763 89.3229ZM138.787 81.096C138.787 79.3051 138.317 77.1782 136.875 75.256L124.075 84.856C123.05 83.4885 122.787 82.0549 122.787 81.096H138.787ZM137.132 75.6184C136.084 74.0472 134.749 73.0014 133.57 72.3138L125.508 86.1342C125.162 85.932 124.451 85.4408 123.819 84.4936L137.132 75.6184ZM133.57 72.3138C132.398 71.6297 131.195 71.1902 130.121 70.8919L125.838 86.3081C125.911 86.3284 125.916 86.3335 125.866 86.3138C125.818 86.2945 125.69 86.2401 125.508 86.1342L133.57 72.3138ZM130.133 70.8954L125.297 69.5434L120.989 84.9526L125.825 86.3046L130.133 70.8954ZM125.326 69.5515C124.723 69.3805 124.351 69.2029 124.139 69.0776C123.938 68.9584 123.871 68.8808 123.861 68.8697L111.713 79.2823C114.222 82.2086 117.516 83.9676 120.961 84.9445L125.326 69.5515ZM123.921 68.9405C123.895 68.9087 123.89 68.8979 123.896 68.9083C123.902 68.9192 123.911 68.9377 123.919 68.959C123.927 68.9801 123.927 68.9876 123.925 68.974C123.922 68.9594 123.915 68.9118 123.915 68.824H107.915C107.915 72.6425 109.156 76.2283 111.653 79.2115L123.921 68.9405ZM123.915 68.824C123.915 68.7221 123.922 68.6555 123.927 68.6193C123.932 68.5837 123.936 68.5739 123.932 68.5843C123.929 68.5952 123.922 68.6171 123.909 68.6453C123.895 68.6735 123.881 68.6971 123.87 68.7135L110.665 59.6785C108.756 62.4683 107.915 65.6247 107.915 68.824H123.915ZM123.87 68.7135C123.873 68.7088 123.881 68.6951 123.921 68.6629C123.965 68.6271 124.084 68.5404 124.327 68.4321L117.8 53.8239C114.985 55.0815 112.496 57.0019 110.665 59.6785L123.87 68.7135ZM124.455 68.3735C124.852 68.1875 125.533 67.984 126.679 67.984V51.984C123.597 51.984 120.533 52.5431 117.672 53.8825L124.455 68.3735ZM126.679 67.984C128.134 67.984 129.036 68.3115 129.679 68.7186L138.24 55.2014C134.722 52.9738 130.771 51.984 126.679 51.984V67.984ZM129.811 68.8001C130.35 69.127 130.671 69.4957 130.923 70.1805L145.94 64.6595C144.458 60.6296 141.799 57.3583 138.108 55.1199L129.811 68.8001ZM135.038 60.1755L129.266 62.8795L136.053 77.3685L141.825 74.6645L135.038 60.1755ZM140.203 67.4614C139.155 64.4906 137.18 62.1372 134.611 60.532L126.131 74.1C126.004 74.0202 125.791 73.8585 125.574 73.5914C125.353 73.3205 125.203 73.0344 125.116 72.7866L140.203 67.4614ZM134.858 60.6926C132.367 59.0052 129.551 58.224 126.679 58.224V74.224C126.666 74.224 126.551 74.2211 126.373 74.1685C126.191 74.1145 126.02 74.0313 125.885 73.9394L134.858 60.6926ZM126.679 58.224C124.653 58.224 122.05 58.6347 119.674 60.3123L128.901 73.3837C127.703 74.2293 126.695 74.224 126.679 74.224V58.224ZM119.487 60.448C116.803 62.461 115.455 65.4651 115.455 68.564H131.455C131.455 69.2331 131.322 70.1294 130.862 71.0792C130.395 72.042 129.736 72.7618 129.087 73.248L119.487 60.448ZM115.455 68.564C115.455 70.4963 116.011 72.392 117.111 74.0416L130.424 65.1664C131.108 66.192 131.455 67.3944 131.455 68.564H115.455ZM117.111 74.0416C118.262 75.7684 119.759 76.8319 120.963 77.4798L128.548 63.3922C128.85 63.5548 129.689 64.0636 130.424 65.1664L117.111 74.0416ZM121.178 77.5914C122.184 78.0945 123.227 78.4753 124.225 78.7746L128.822 63.4494C128.637 63.3939 128.505 63.3477 128.419 63.3146C128.331 63.281 128.307 63.2674 128.333 63.2806L121.178 77.5914ZM124.233 78.777L128.757 80.129L133.338 64.799L128.814 63.447L124.233 78.777ZM128.79 80.1389C129.449 80.3328 129.87 80.5308 130.12 80.6776C130.361 80.8189 130.44 80.9095 130.444 80.9144L142.467 70.3576C139.962 67.5042 136.688 65.784 133.305 64.7891L128.79 80.1389ZM130.509 80.9877C130.492 80.9688 130.46 80.9294 130.425 80.8706C130.389 80.8114 130.361 80.751 130.341 80.6969C130.322 80.6437 130.317 80.615 130.318 80.621C130.32 80.6284 130.327 80.6798 130.327 80.784H146.327C146.327 76.9685 145.104 73.2863 142.402 70.2843L130.509 80.9877ZM130.327 80.784C130.327 80.8727 130.322 80.9256 130.318 80.948C130.315 80.9697 130.314 80.9666 130.321 80.9446C130.328 80.9221 130.339 80.891 130.356 80.8564C130.373 80.8217 130.39 80.795 130.402 80.7783L143.445 90.0457C145.434 87.2468 146.327 84.0485 146.327 80.784H130.327ZM130.321 80.8945C130.308 80.9136 130.283 80.9467 130.219 80.9997C130.15 81.0562 130.004 81.1608 129.736 81.2865L136.519 95.7775C139.275 94.4875 141.718 92.5711 143.526 89.9295L130.321 80.8945ZM129.864 81.2279C129.479 81.3999 128.715 81.624 127.355 81.624V97.624C130.433 97.624 133.517 97.1201 136.391 95.8361L129.864 81.2279ZM142.989 89H134.989V97H142.989V89ZM142.989 60.608V52.608H134.989V60.608H142.989ZM150.789 60.608H158.789V52.608H150.789V60.608ZM150.789 89V97H158.789V89H150.789ZM142.989 58.06H134.989V66.06H142.989V58.06ZM142.989 50.26V42.26H134.989V50.26H142.989ZM150.789 50.26H158.789V42.26H150.789V50.26ZM150.789 58.06V66.06H158.789V58.06H150.789ZM150.989 89V60.608H134.989V89H150.989ZM142.989 68.608H150.789V52.608H142.989V68.608ZM142.789 60.608V89H158.789V60.608H142.789ZM150.789 81H142.989V97H150.789V81ZM150.989 58.06V50.26H134.989V58.06H150.989ZM142.989 58.26H150.789V42.26H142.989V58.26ZM142.789 50.26V58.06H158.789V50.26H142.789ZM150.789 50.06H142.989V66.06H150.789V50.06ZM156.497 89H148.497V97H156.497V89ZM156.497 60.608V52.608H148.497V60.608H156.497ZM163.777 60.608H171.777V52.608H163.777V60.608ZM163.777 66.224L156.188 68.7538L171.777 66.224H163.777ZM163.361 64.976L155.902 62.0838L154.86 64.7713L155.771 67.5058L163.361 64.976ZM166.533 61.232L170.375 68.2488L170.404 68.2333L170.432 68.2176L166.533 61.232ZM177.349 61.336L173.413 68.3005L173.444 68.3185L173.476 68.3363L177.349 61.336ZM181.145 65.132L174.145 69.0045L174.162 69.0366L174.18 69.0685L181.145 65.132ZM182.497 89V97H190.497V89H182.497ZM174.697 89H166.697V97H174.697V89ZM174.021 69.552L166.928 73.2525L166.99 73.3716L167.056 73.4885L174.021 69.552ZM172.201 67.68L168.131 74.5674L168.197 74.6066L168.265 74.6445L172.201 67.68ZM166.793 67.68L162.857 60.7155L162.857 60.7155L166.793 67.68ZM164.921 69.552L157.956 65.6155L157.89 65.7324L157.828 65.8515L164.921 69.552ZM164.297 89V97H172.297V89H164.297ZM164.497 89V60.608H148.497V89H164.497ZM156.497 68.608H163.777V52.608H156.497V68.608ZM155.777 60.608V66.224H171.777V60.608H155.777ZM171.366 63.6942L170.95 62.4462L155.771 67.5058L156.188 68.7538L171.366 63.6942ZM170.82 67.8682C170.864 67.755 170.86 67.8096 170.752 67.9373C170.7 67.998 170.637 68.0609 170.565 68.1195C170.493 68.178 170.427 68.2205 170.375 68.2488L162.69 54.2152C159.416 56.0086 157.171 58.8108 155.902 62.0838L170.82 67.8682ZM170.432 68.2176C170.555 68.1491 170.905 67.984 171.733 67.984V51.984C168.609 51.984 165.493 52.6509 162.634 54.2464L170.432 68.2176ZM171.733 67.984C172.743 67.984 173.212 68.1873 173.413 68.3005L181.285 54.3715C178.296 52.6821 175.021 51.984 171.733 51.984V67.984ZM173.476 68.3363C173.79 68.5097 173.971 68.691 174.145 69.0045L188.145 61.2595C186.516 58.3143 184.167 55.965 181.221 54.3357L173.476 68.3363ZM174.18 69.0685C174.294 69.2688 174.497 69.7375 174.497 70.748H190.497C190.497 67.4598 189.799 64.1845 188.109 61.1955L174.18 69.0685ZM174.497 70.748V89H190.497V70.748H174.497ZM182.497 81H174.697V97H182.497V81ZM182.697 89V72.412H166.697V89H182.697ZM182.697 72.412C182.697 70.2135 182.245 67.8435 180.985 65.6155L167.056 73.4885C166.699 72.8552 166.697 72.3919 166.697 72.412H182.697ZM181.114 65.8515C179.969 63.6577 178.254 61.9117 176.137 60.7155L168.265 74.6445C168.035 74.5149 167.773 74.3245 167.518 74.0626C167.263 73.8 167.067 73.5186 166.928 73.2525L181.114 65.8515ZM176.271 60.7926C174.076 59.4954 171.717 59.004 169.497 59.004V75.004C169.357 75.004 168.801 74.9632 168.131 74.5674L176.271 60.7926ZM169.497 59.004C167.25 59.004 164.97 59.5211 162.857 60.7155L170.729 74.6445C170.493 74.7784 170.245 74.8748 170.007 74.9341C169.774 74.9925 169.595 75.004 169.497 75.004V59.004ZM162.857 60.7155C160.793 61.8816 159.123 63.5524 157.956 65.6155L171.885 73.4885C171.768 73.6958 171.603 73.9241 171.384 74.1429C171.165 74.3616 170.937 74.5273 170.729 74.6445L162.857 60.7155ZM157.828 65.8515C156.693 68.0277 156.297 70.3102 156.297 72.412H172.297C172.297 72.2951 172.317 72.6709 172.014 73.2525L157.828 65.8515ZM156.297 72.412V89H172.297V72.412H156.297ZM164.297 81H156.497V97H164.297V81ZM82.0358 149.648L77.8728 156.48L77.912 156.503L77.9515 156.527L82.0358 149.648ZM76.8878 144.24L83.9316 140.447V140.447L76.8878 144.24ZM76.9398 129.16L70.0139 125.156L69.9903 125.197L69.9672 125.238L76.9398 129.16ZM82.0878 123.908L86.1875 130.778H86.1875L82.0878 123.908ZM95.3478 123.076L92.2499 130.452L92.3131 130.478L92.3767 130.504L95.3478 123.076ZM99.7158 126.04L93.8252 131.453L93.8643 131.496L93.9041 131.538L99.7158 126.04ZM102.472 130.512L94.9624 133.271L94.9717 133.296L94.9812 133.321L102.472 130.512ZM103.304 137.636L95.3656 136.644L95.3369 136.873L95.3215 137.104L103.304 137.636ZM103.044 138.988V146.988H108.647L110.562 141.722L103.044 138.988ZM81.7758 138.988H73.7758V146.988H81.7758V138.988ZM81.7758 133.268V125.268H73.7758V133.268H81.7758ZM98.6238 133.268L103.351 139.722L123.086 125.268H98.6238V133.268ZM94.9318 135.972L87.1397 134.16L82.2527 155.174L99.6588 142.426L94.9318 135.972ZM94.8798 132.02L87.2683 134.483L87.2791 134.516L87.2903 134.55L94.8798 132.02ZM92.8518 129.264L88.09 135.692L88.2229 135.791L88.3598 135.884L92.8518 129.264ZM85.8838 129.212L81.3918 122.592H81.3918L85.8838 129.212ZM83.6998 132.124L91.1821 134.955L83.6998 132.124ZM83.1278 136.804L91.0977 137.497L91.1475 136.925L91.115 136.352L83.1278 136.804ZM83.6998 141.016L76.3466 144.167L76.3466 144.167L83.6998 141.016ZM86.0918 143.876L81.7548 150.598L81.8325 150.648L81.9113 150.697L86.0918 143.876ZM93.5278 144.032L89.6632 137.027L89.6107 137.056L89.5587 137.086L93.5278 144.032ZM95.8678 141.744L99.3003 134.518L92.6013 131.336L88.9219 137.775L95.8678 141.744ZM102.108 144.708L109.536 147.679L112.325 140.705L105.54 137.482L102.108 144.708ZM99.4558 148.348L94.2495 142.274L94.2059 142.311L94.1628 142.349L99.4558 148.348ZM95.2438 150.792L97.8219 158.365L97.8936 158.341L97.9649 158.315L95.2438 150.792ZM89.8878 143.624C88.0637 143.624 86.9075 143.237 86.1201 142.769L77.9515 156.527C81.6015 158.694 85.6799 159.624 89.8878 159.624V143.624ZM86.1988 142.816C85.1737 142.192 84.4608 141.43 83.9316 140.447L69.844 148.033C71.7415 151.557 74.4605 154.4 77.8728 156.48L86.1988 142.816ZM83.9316 140.447C83.3897 139.441 83.0678 138.262 83.0678 136.752H67.0678C67.0678 140.719 67.9593 144.533 69.844 148.033L83.9316 140.447ZM83.0678 136.752C83.0678 135.12 83.4139 133.968 83.9124 133.082L69.9672 125.238C67.9697 128.789 67.0678 132.699 67.0678 136.752H83.0678ZM83.8657 133.164C84.4829 132.096 85.2379 131.344 86.1875 130.778L77.9881 117.038C74.6391 119.037 71.962 121.786 70.0139 125.156L83.8657 133.164ZM86.1875 130.778C86.9981 130.294 87.9873 129.984 89.3678 129.984V113.984C85.3403 113.984 81.4762 114.957 77.9881 117.038L86.1875 130.778ZM89.3678 129.984C90.7642 129.984 91.6717 130.209 92.2499 130.452L98.4457 115.7C95.5572 114.487 92.4781 113.984 89.3678 113.984V129.984ZM92.3767 130.504C93.0796 130.785 93.5139 131.114 93.8252 131.453L105.606 120.627C103.56 118.4 101.083 116.754 98.3189 115.648L92.3767 130.504ZM93.9041 131.538C94.3528 132.012 94.7031 132.565 94.9624 133.271L109.981 127.753C108.993 125.062 107.506 122.633 105.528 120.542L93.9041 131.538ZM94.9812 133.321C95.2327 133.992 95.4078 134.848 95.4078 135.972H111.408C111.408 133.144 110.959 130.36 109.962 127.703L94.9812 133.321ZM95.4078 135.972C95.4078 136.192 95.3941 136.416 95.3656 136.644L111.242 138.628C111.352 137.747 111.408 136.861 111.408 135.972H95.4078ZM95.3215 137.104C95.3235 137.074 95.3455 136.749 95.5255 136.254L110.562 141.722C111.019 140.464 111.215 139.238 111.286 138.168L95.3215 137.104ZM103.044 130.988H81.7758V146.988H103.044V130.988ZM89.7758 138.988V133.268H73.7758V138.988H89.7758ZM81.7758 141.268H98.6238V125.268H81.7758V141.268ZM93.8968 126.814L90.2048 129.518L99.6588 142.426L103.351 139.722L93.8968 126.814ZM102.724 137.784C103.316 135.238 103.428 132.366 102.469 129.49L87.2903 134.55C87.1973 134.271 87.1807 134.061 87.1795 133.971C87.1784 133.891 87.1899 133.944 87.1397 134.16L102.724 137.784ZM102.491 129.557C101.595 126.786 99.8743 124.361 97.3438 122.644L88.3598 135.884C88.1143 135.717 87.8597 135.482 87.6433 135.188C87.4301 134.899 87.3193 134.64 87.2683 134.483L102.491 129.557ZM97.6136 122.836C95.0521 120.938 92.133 120.224 89.3678 120.224V136.224C89.3956 136.224 89.2504 136.227 88.9905 136.15C88.7176 136.068 88.3984 135.921 88.09 135.692L97.6136 122.836ZM89.3678 120.224C86.6656 120.224 83.8818 120.903 81.3918 122.592L90.3758 135.832C90.1333 135.996 89.8829 136.106 89.6654 136.168C89.4568 136.227 89.3427 136.224 89.3678 136.224V120.224ZM81.3918 122.592C78.8387 124.325 77.1843 126.738 76.2175 129.293L91.1821 134.955C91.1925 134.928 91.1517 135.045 91.0098 135.234C90.8613 135.432 90.6478 135.647 90.3758 135.832L81.3918 122.592ZM76.2175 129.293C75.2252 131.915 74.9938 134.663 75.1406 137.256L91.115 136.352C91.0538 135.27 91.2037 134.898 91.1821 134.955L76.2175 129.293ZM75.1579 136.111C74.9291 138.742 75.2082 141.511 76.3466 144.167L91.053 137.865C91.0969 137.967 91.0995 138.016 91.094 137.976C91.0878 137.931 91.0732 137.779 91.0977 137.497L75.1579 136.111ZM76.3466 144.167C77.4727 146.795 79.2967 149.012 81.7548 150.598L90.4288 137.154C90.5481 137.231 90.6917 137.35 90.8244 137.509C90.9557 137.666 91.0252 137.8 91.053 137.865L76.3466 144.167ZM81.9113 150.697C84.4854 152.274 87.3021 152.864 89.9918 152.864V136.864C89.8027 136.864 89.7644 136.843 89.8374 136.862C89.9189 136.883 90.0796 136.937 90.2723 137.055L81.9113 150.697ZM89.9918 152.864C92.4395 152.864 95.0592 152.371 97.4969 150.978L89.5587 137.086C89.7945 136.951 89.9857 136.892 90.0835 136.869C90.174 136.847 90.1554 136.864 89.9918 136.864V152.864ZM97.3924 151.037C99.6475 149.792 101.51 147.995 102.814 145.713L88.9219 137.775C89.003 137.633 89.1208 137.474 89.2739 137.324C89.4259 137.175 89.5677 137.08 89.6632 137.027L97.3924 151.037ZM92.4354 148.97L98.6754 151.934L105.54 137.482L99.3003 134.518L92.4354 148.97ZM94.68 141.737C94.638 141.842 94.5533 142.014 94.2495 142.274L104.662 154.422C106.785 152.602 108.468 150.347 109.536 147.679L94.68 141.737ZM94.1628 142.349C93.8116 142.659 93.3034 142.987 92.5227 143.269L97.9649 158.315C100.443 157.419 102.743 156.117 104.749 154.347L94.1628 142.349ZM92.6657 143.219C91.9653 143.457 91.063 143.624 89.8878 143.624V159.624C92.5953 159.624 95.2636 159.236 97.8219 158.365L92.6657 143.219ZM110.965 149.44L106.598 156.143L106.656 156.181L106.716 156.218L110.965 149.44ZM106.285 143.46L102.866 136.227L96.4519 139.259L98.6954 145.99L106.285 143.46ZM112.005 140.756L119.225 137.31L115.792 130.117L108.586 133.523L112.005 140.756ZM114.969 144.344L110.406 150.915V150.915L114.969 144.344ZM121.677 144.968L126.536 151.323H126.536L121.677 144.968ZM122.249 142.056L115.592 146.494L115.716 146.678L115.849 146.856L122.249 142.056ZM119.753 140.6L117.599 148.305L117.612 148.308L119.753 140.6ZM114.917 139.248L112.734 146.945L112.749 146.949L112.763 146.953L114.917 139.248ZM109.561 136.076L103.427 141.211L103.457 141.247L103.487 141.282L109.561 136.076ZM112.837 123.128L116.1 130.432L116.165 130.403L116.228 130.374L112.837 123.128ZM125.733 123.96L121.452 130.719L121.518 130.76L121.584 130.8L125.733 123.96ZM130.205 129.42L133.599 136.664L140.247 133.55L137.714 126.659L130.205 129.42ZM124.433 132.124L116.889 134.787L119.829 143.115L127.827 139.368L124.433 132.124ZM122.145 129.316L117.658 135.939L117.78 136.022L117.905 136.1L122.145 129.316ZM116.061 128.848L111.447 122.312L111.353 122.379L111.261 122.448L116.061 128.848ZM115.541 131.604L108.884 136.042V136.042L115.541 131.604ZM116.529 132.436L112.736 139.48L112.843 139.537L112.951 139.591L116.529 132.436ZM118.297 133.112L115.998 140.775L116.006 140.777L118.297 133.112ZM122.821 134.464L120.53 142.129L120.547 142.134L120.564 142.139L122.821 134.464ZM128.229 137.636L122.217 142.914L122.25 142.951L122.283 142.988L128.229 137.636ZM128.697 147.412L122.175 142.778L122.134 142.836L122.094 142.895L128.697 147.412ZM124.901 150.532L128.164 157.836L128.229 157.807L128.292 157.778L124.901 150.532ZM119.129 143.624C117.299 143.624 116.094 143.213 115.214 142.662L106.716 156.218C110.481 158.579 114.719 159.624 119.129 159.624V143.624ZM115.332 142.737C114.497 142.193 114.112 141.642 113.874 140.93L98.6954 145.99C100.122 150.27 102.857 153.706 106.598 156.143L115.332 142.737ZM109.704 150.693L115.424 147.989L108.586 133.523L102.866 136.227L109.704 150.693ZM104.785 144.202C106.043 146.838 107.891 149.169 110.406 150.915L119.532 137.773C119.52 137.765 119.498 137.749 119.46 137.702C119.418 137.651 119.332 137.534 119.225 137.31L104.785 144.202ZM110.406 150.915C112.999 152.716 115.979 153.644 119.129 153.644V137.644C119.127 137.644 119.149 137.644 119.188 137.65C119.228 137.656 119.277 137.666 119.331 137.683C119.448 137.72 119.519 137.764 119.532 137.773L110.406 150.915ZM119.129 153.644C121.165 153.644 124.012 153.254 126.536 151.323L116.817 138.613C118.164 137.584 119.311 137.644 119.129 137.644V153.644ZM126.536 151.323C129.27 149.232 130.561 146.17 130.561 143.096H114.561C114.561 142.497 114.676 141.656 115.106 140.746C115.544 139.817 116.175 139.104 116.817 138.613L126.536 151.323ZM130.561 143.096C130.561 141.305 130.09 139.178 128.649 137.256L115.849 146.856C114.823 145.488 114.561 144.055 114.561 143.096H130.561ZM128.905 137.618C127.858 136.047 126.523 135.001 125.344 134.314L117.282 148.134C116.935 147.932 116.224 147.441 115.592 146.494L128.905 137.618ZM125.344 134.314C124.171 133.63 122.968 133.19 121.894 132.892L117.612 148.308C117.685 148.328 117.689 148.334 117.64 148.314C117.592 148.295 117.463 148.24 117.282 148.134L125.344 134.314ZM121.907 132.895L117.071 131.543L112.763 146.953L117.599 148.305L121.907 132.895ZM117.099 131.551C116.496 131.38 116.124 131.203 115.912 131.078C115.711 130.958 115.644 130.881 115.635 130.87L103.487 141.282C105.995 144.209 109.289 145.968 112.734 146.945L117.099 131.551ZM115.695 130.941C115.668 130.909 115.663 130.898 115.67 130.908C115.676 130.919 115.685 130.938 115.692 130.959C115.7 130.98 115.7 130.988 115.698 130.974C115.696 130.959 115.689 130.912 115.689 130.824H99.6889C99.6889 134.642 100.929 138.228 103.427 141.211L115.695 130.941ZM115.689 130.824C115.689 130.722 115.695 130.655 115.7 130.619C115.705 130.584 115.709 130.574 115.706 130.584C115.703 130.595 115.695 130.617 115.682 130.645C115.669 130.673 115.655 130.697 115.643 130.713L102.438 121.679C100.53 124.468 99.6889 127.625 99.6889 130.824H115.689ZM115.643 130.713C115.647 130.709 115.655 130.695 115.695 130.663C115.739 130.627 115.858 130.54 116.1 130.432L109.573 115.824C106.759 117.082 104.27 119.002 102.438 121.679L115.643 130.713ZM116.228 130.374C116.626 130.188 117.306 129.984 118.453 129.984V113.984C115.37 113.984 112.307 114.543 109.445 115.882L116.228 130.374ZM118.453 129.984C119.908 129.984 120.81 130.312 121.452 130.719L130.013 117.201C126.496 114.974 122.545 113.984 118.453 113.984V129.984ZM121.584 130.8C122.123 131.127 122.444 131.496 122.696 132.181L137.714 126.659C136.232 122.63 133.572 119.358 129.882 117.12L121.584 130.8ZM126.811 122.176L121.039 124.88L127.827 139.368L133.599 136.664L126.811 122.176ZM131.977 129.461C130.928 126.491 128.953 124.137 126.385 122.532L117.905 136.1C117.777 136.02 117.565 135.859 117.347 135.591C117.126 135.321 116.976 135.034 116.889 134.787L131.977 129.461ZM126.632 122.693C124.141 121.005 121.324 120.224 118.453 120.224V136.224C118.44 136.224 118.325 136.221 118.147 136.168C117.964 136.114 117.794 136.031 117.658 135.939L126.632 122.693ZM118.453 120.224C116.427 120.224 113.824 120.635 111.447 122.312L120.674 135.384C119.477 136.229 118.468 136.224 118.453 136.224V120.224ZM111.261 122.448C108.577 124.461 107.229 127.465 107.229 130.564H123.229C123.229 131.233 123.096 132.129 122.635 133.079C122.169 134.042 121.509 134.762 120.861 135.248L111.261 122.448ZM107.229 130.564C107.229 132.496 107.785 134.392 108.884 136.042L122.197 127.166C122.881 128.192 123.229 129.394 123.229 130.564H107.229ZM108.884 136.042C110.036 137.768 111.533 138.832 112.736 139.48L120.322 125.392C120.623 125.555 121.462 126.064 122.197 127.166L108.884 136.042ZM112.951 139.591C113.957 140.094 115 140.475 115.998 140.775L120.596 125.449C120.411 125.394 120.279 125.348 120.192 125.315C120.104 125.281 120.08 125.267 120.107 125.281L112.951 139.591ZM116.006 140.777L120.53 142.129L125.112 126.799L120.588 125.447L116.006 140.777ZM120.564 142.139C121.223 142.333 121.643 142.531 121.893 142.678C122.134 142.819 122.213 142.91 122.217 142.914L134.24 132.358C131.735 129.504 128.461 127.784 125.078 126.789L120.564 142.139ZM122.283 142.988C122.265 142.969 122.234 142.929 122.198 142.871C122.162 142.811 122.134 142.751 122.115 142.697C122.095 142.644 122.091 142.615 122.092 142.621C122.093 142.628 122.101 142.68 122.101 142.784H138.101C138.101 138.968 136.877 135.286 134.175 132.284L122.283 142.988ZM122.101 142.784C122.101 142.873 122.095 142.926 122.092 142.948C122.089 142.97 122.088 142.967 122.094 142.945C122.101 142.922 122.113 142.891 122.13 142.856C122.147 142.822 122.164 142.795 122.175 142.778L135.218 152.046C137.207 149.247 138.101 146.049 138.101 142.784H122.101ZM122.094 142.895C122.081 142.914 122.057 142.947 121.992 143C121.923 143.056 121.778 143.161 121.509 143.286L128.292 157.778C131.048 156.487 133.492 154.571 135.299 151.929L122.094 142.895ZM121.637 143.228C121.253 143.4 120.489 143.624 119.129 143.624V159.624C122.206 159.624 125.291 159.12 128.164 157.836L121.637 143.228ZM137.727 149.44L133.36 156.143L133.418 156.181L133.478 156.218L137.727 149.44ZM133.047 143.46L129.628 136.227L123.214 139.259L125.457 145.99L133.047 143.46ZM138.767 140.756L145.986 137.31L142.553 130.117L135.348 133.523L138.767 140.756ZM141.731 144.344L137.167 150.915V150.915L141.731 144.344ZM148.439 144.968L153.298 151.323H153.298L148.439 144.968ZM149.011 142.056L142.354 146.494L142.477 146.678L142.611 146.856L149.011 142.056ZM146.515 140.6L144.361 148.305L144.373 148.308L146.515 140.6ZM141.679 139.248L139.496 146.945L139.51 146.949L139.525 146.953L141.679 139.248ZM136.323 136.076L130.189 141.211L130.218 141.247L130.249 141.282L136.323 136.076ZM139.599 123.128L142.862 130.432L142.926 130.403L142.99 130.374L139.599 123.128ZM152.495 123.96L148.214 130.719L148.28 130.76L148.346 130.8L152.495 123.96ZM156.967 129.42L160.36 136.664L167.009 133.55L164.475 126.659L156.967 129.42ZM151.195 132.124L143.651 134.787L146.59 143.115L154.588 139.368L151.195 132.124ZM148.907 129.316L144.42 135.939L144.542 136.022L144.667 136.1L148.907 129.316ZM142.823 128.848L138.209 122.312L138.115 122.379L138.023 122.448L142.823 128.848ZM142.303 131.604L135.646 136.042V136.042L142.303 131.604ZM143.291 132.436L139.498 139.48L139.604 139.537L139.713 139.591L143.291 132.436ZM145.059 133.112L142.76 140.775L142.768 140.777L145.059 133.112ZM149.583 134.464L147.292 142.129L147.309 142.134L147.325 142.139L149.583 134.464ZM154.991 137.636L148.979 142.914L149.011 142.951L149.044 142.988L154.991 137.636ZM155.459 147.412L148.937 142.778L148.896 142.836L148.856 142.895L155.459 147.412ZM151.663 150.532L154.926 157.836L154.99 157.807L155.054 157.778L151.663 150.532ZM145.891 143.624C144.061 143.624 142.856 143.213 141.976 142.662L133.478 156.218C137.243 158.579 141.48 159.624 145.891 159.624V143.624ZM142.094 142.737C141.258 142.193 140.873 141.642 140.636 140.93L125.457 145.99C126.884 150.27 129.619 153.706 133.36 156.143L142.094 142.737ZM136.466 150.693L142.186 147.989L135.348 133.523L129.628 136.227L136.466 150.693ZM131.547 144.202C132.805 146.838 134.653 149.169 137.167 150.915L146.294 137.773C146.282 137.765 146.26 137.749 146.221 137.702C146.179 137.651 146.093 137.534 145.986 137.31L131.547 144.202ZM137.167 150.915C139.761 152.716 142.741 153.644 145.891 153.644V137.644C145.889 137.644 145.91 137.644 145.95 137.65C145.99 137.656 146.039 137.666 146.093 137.683C146.21 137.72 146.281 137.764 146.294 137.773L137.167 150.915ZM145.891 153.644C147.927 153.644 150.773 153.254 153.298 151.323L143.579 138.613C144.925 137.584 146.073 137.644 145.891 137.644V153.644ZM153.298 151.323C156.032 149.232 157.323 146.17 157.323 143.096H141.323C141.323 142.497 141.438 141.656 141.868 140.746C142.306 139.817 142.937 139.104 143.579 138.613L153.298 151.323ZM157.323 143.096C157.323 141.305 156.852 139.178 155.411 137.256L142.611 146.856C141.585 145.488 141.323 144.055 141.323 143.096H157.323ZM155.667 137.618C154.62 136.047 153.284 135.001 152.106 134.314L144.044 148.134C143.697 147.932 142.986 147.441 142.354 146.494L155.667 137.618ZM152.106 134.314C150.933 133.63 149.73 133.19 148.656 132.892L144.373 148.308C144.446 148.328 144.451 148.334 144.401 148.314C144.353 148.295 144.225 148.24 144.044 148.134L152.106 134.314ZM148.669 132.895L143.833 131.543L139.525 146.953L144.361 148.305L148.669 132.895ZM143.861 131.551C143.258 131.38 142.886 131.203 142.674 131.078C142.473 130.958 142.406 130.881 142.397 130.87L130.249 141.282C132.757 144.209 136.051 145.968 139.496 146.945L143.861 131.551ZM142.457 130.941C142.43 130.909 142.425 130.898 142.431 130.908C142.438 130.919 142.447 130.938 142.454 130.959C142.462 130.98 142.462 130.988 142.46 130.974C142.457 130.959 142.451 130.912 142.451 130.824H126.451C126.451 134.642 127.691 138.228 130.189 141.211L142.457 130.941ZM142.451 130.824C142.451 130.722 142.457 130.655 142.462 130.619C142.467 130.584 142.471 130.574 142.468 130.584C142.464 130.595 142.457 130.617 142.444 130.645C142.43 130.673 142.416 130.697 142.405 130.713L129.2 121.679C127.291 124.468 126.451 127.625 126.451 130.824H142.451ZM142.405 130.713C142.408 130.709 142.416 130.695 142.456 130.663C142.501 130.627 142.62 130.54 142.862 130.432L136.335 115.824C133.52 117.082 131.032 119.002 129.2 121.679L142.405 130.713ZM142.99 130.374C143.387 130.188 144.068 129.984 145.215 129.984V113.984C142.132 113.984 139.068 114.543 136.207 115.882L142.99 130.374ZM145.215 129.984C146.67 129.984 147.572 130.312 148.214 130.719L156.775 117.201C153.258 114.974 149.306 113.984 145.215 113.984V129.984ZM148.346 130.8C148.885 131.127 149.206 131.496 149.458 132.181L164.475 126.659C162.994 122.63 160.334 119.358 156.643 117.12L148.346 130.8ZM153.573 122.176L147.801 124.88L154.588 139.368L160.36 136.664L153.573 122.176ZM158.739 129.461C157.69 126.491 155.715 124.137 153.147 122.532L144.667 136.1C144.539 136.02 144.326 135.859 144.109 135.591C143.888 135.321 143.738 135.034 143.651 134.787L158.739 129.461ZM153.393 122.693C150.902 121.005 148.086 120.224 145.215 120.224V136.224C145.201 136.224 145.087 136.221 144.909 136.168C144.726 136.114 144.556 136.031 144.42 135.939L153.393 122.693ZM145.215 120.224C143.188 120.224 140.586 120.635 138.209 122.312L147.436 135.384C146.238 136.229 145.23 136.224 145.215 136.224V120.224ZM138.023 122.448C135.339 124.461 133.991 127.465 133.991 130.564H149.991C149.991 131.233 149.858 132.129 149.397 133.079C148.93 134.042 148.271 134.762 147.623 135.248L138.023 122.448ZM133.991 130.564C133.991 132.496 134.546 134.392 135.646 136.042L148.959 127.166C149.643 128.192 149.991 129.394 149.991 130.564H133.991ZM135.646 136.042C136.797 137.768 138.295 138.832 139.498 139.48L147.083 125.392C147.385 125.555 148.224 126.064 148.959 127.166L135.646 136.042ZM139.713 139.591C140.719 140.094 141.762 140.475 142.76 140.775L147.357 125.449C147.172 125.394 147.04 125.348 146.954 125.315C146.866 125.281 146.842 125.267 146.868 125.281L139.713 139.591ZM142.768 140.777L147.292 142.129L151.873 126.799L147.349 125.447L142.768 140.777ZM147.325 142.139C147.984 142.333 148.405 142.531 148.655 142.678C148.896 142.819 148.975 142.91 148.979 142.914L161.002 132.358C158.497 129.504 155.223 127.784 151.84 126.789L147.325 142.139ZM149.044 142.988C149.027 142.969 148.995 142.929 148.96 142.871C148.924 142.811 148.896 142.751 148.876 142.697C148.857 142.644 148.852 142.615 148.853 142.621C148.855 142.628 148.863 142.68 148.863 142.784H164.863C164.863 138.968 163.639 135.286 160.937 132.284L149.044 142.988ZM148.863 142.784C148.863 142.873 148.857 142.926 148.854 142.948C148.851 142.97 148.849 142.967 148.856 142.945C148.863 142.922 148.874 142.891 148.891 142.856C148.909 142.822 148.925 142.795 148.937 142.778L161.98 152.046C163.969 149.247 164.863 146.049 164.863 142.784H148.863ZM148.856 142.895C148.843 142.914 148.818 142.947 148.754 143C148.685 143.056 148.539 143.161 148.271 143.286L155.054 157.778C157.81 156.487 160.254 154.571 162.061 151.929L148.856 142.895ZM148.399 143.228C148.014 143.4 147.25 143.624 145.891 143.624V159.624C148.968 159.624 152.052 159.12 154.926 157.836L148.399 143.228Z" fill="white"/>
</mask>
<g mask="url(#mask0_501_2915)">
<g filter="url(#filter0_f_501_2915)">
<rect x="37.3081" y="50.7244" width="161.727" height="26.0879" fill="url(#paint0_linear_501_2915)"/>
</g>
</g>
<defs>
<filter id="filter0_f_501_2915" x="-12.6919" y="0.717041" width="261.729" height="126.095" filterUnits="userSpaceOnUse" color-interpolation-filters="sRGB">
<feFlood flood-opacity="0" result="BackgroundImageFix"/>
<feBlend mode="normal" in="SourceGraphic" in2="BackgroundImageFix" result="shape"/>
<feGaussianBlur stdDeviation="25" result="effect1_foregroundBlur_501_2915"/>
</filter>
<linearGradient id="paint0_linear_501_2915" x1="36.4224" y1="63.7683" x2="197.972" y2="63.7683" gradientUnits="userSpaceOnUse">
<stop stop-color="#44BCFF"/>
<stop offset="0.234375" stop-color="#44B0FF"/>
<stop offset="0.489583" stop-color="#FF44EC"/>
<stop offset="0.739583" stop-color="#FF44EC"/>
<stop offset="1" stop-color="#FF675E"/>
</linearGradient>
</defs>
</svg>
