<svg width="462" height="165" viewBox="0 0 462 165" fill="none" xmlns="http://www.w3.org/2000/svg">
<g filter="url(#filter0_d_1339_1142)">
<g clip-path="url(#clip0_1339_1142)">
<rect x="16" y="12" width="430" height="133" rx="16" fill="white"/>
<g filter="url(#filter1_d_1339_1142)">
<rect width="430" height="101" transform="translate(16 28)" fill="white"/>
<rect x="51" y="54" width="56" height="45" rx="3" fill="black"/>
<rect x="127" y="54" width="56" height="45" rx="3" fill="white"/>
<rect x="203" y="54" width="56" height="45" rx="3" fill="white"/>
<rect x="279" y="54" width="56" height="45" rx="3" fill="white"/>
<rect x="355" y="54" width="56" height="45" rx="3" fill="white"/>
<path d="M208.978 91.6956H208.268V84.9956H211.548C212.948 84.9956 213.898 85.7056 213.898 86.9356C213.898 88.0656 213.068 88.7656 211.828 88.7956V88.8456C212.268 88.9656 212.518 89.2556 212.748 89.6456L214.008 91.6956H213.188L211.998 89.7556C211.658 89.1956 211.308 88.9556 210.418 88.9556H208.978V91.6956ZM208.978 85.6456V88.3856H211.538C212.598 88.3856 213.158 87.9656 213.158 87.0156C213.158 86.0656 212.598 85.6456 211.538 85.6456H208.978ZM217.18 91.7956C215.59 91.7956 214.58 90.7956 214.58 89.2256C214.58 87.7256 215.58 86.6556 217.17 86.6556C218.62 86.6556 219.65 87.4956 219.65 88.9656C219.65 89.1456 219.63 89.2956 219.6 89.4256H215.25C215.29 90.5356 215.86 91.2056 217.17 91.2056C218.33 91.2056 218.87 90.7756 218.87 90.0556V89.9856H219.58V90.0556C219.58 91.0856 218.56 91.7956 217.18 91.7956ZM217.16 87.2456C215.88 87.2456 215.3 87.9056 215.25 88.9856H218.98C218.98 88.9356 218.98 88.8856 218.98 88.8356C218.98 87.7956 218.32 87.2456 217.16 87.2456ZM221.652 91.6956H220.942V87.3656H220.152V86.7556H220.952C221.032 85.5856 221.822 84.9956 223.102 84.9956H223.642V85.5556H223.002C222.102 85.5556 221.612 85.8556 221.652 86.7556H223.642V87.3656H221.652V91.6956ZM225.042 86.1256H224.332V84.9956H225.042V86.1256ZM225.042 91.6956H224.332V86.7556H225.042V91.6956ZM226.956 91.6956H226.246V86.7556H226.886V88.3056H226.936C227.106 87.4656 227.806 86.6556 229.036 86.6556C230.426 86.6556 231.116 87.6456 231.116 88.8156V91.6956H230.406V88.9156C230.406 87.8956 229.916 87.3056 228.786 87.3056C227.586 87.3056 226.956 88.0356 226.956 89.3056V91.6956ZM233.641 91.7956C232.671 91.7956 232.011 91.3356 232.011 90.5356C232.011 89.7256 232.681 89.3756 233.601 89.2756L235.951 89.0156V88.6356C235.951 87.6756 235.531 87.2956 234.451 87.2956C233.391 87.2956 232.831 87.6756 232.831 88.5456V88.5856H232.121V88.5456C232.121 87.5056 232.981 86.6556 234.501 86.6556C236.001 86.6556 236.641 87.5156 236.641 88.6056V91.6956H236.001V90.3656H235.951C235.661 91.2756 234.791 91.7956 233.641 91.7956ZM232.721 90.4856C232.721 90.9856 233.051 91.2456 233.801 91.2456C235.001 91.2456 235.951 90.7156 235.951 89.5256V89.4856L233.821 89.7256C233.081 89.7956 232.721 89.9756 232.721 90.4856ZM238.519 91.6956H237.809V86.7556H238.449V88.3056H238.499C238.669 87.4656 239.369 86.6556 240.599 86.6556C241.989 86.6556 242.679 87.6456 242.679 88.8156V91.6956H241.969V88.9156C241.969 87.8956 241.479 87.3056 240.349 87.3056C239.149 87.3056 238.519 88.0356 238.519 89.3056V91.6956ZM246.194 91.7956C244.614 91.7956 243.584 90.7256 243.584 89.2256C243.584 87.7256 244.614 86.6556 246.194 86.6556C247.574 86.6556 248.654 87.4756 248.654 88.6656V88.7456H247.954V88.6856C247.954 87.8056 247.314 87.3056 246.184 87.3056C244.864 87.3056 244.294 88.0156 244.294 89.2256C244.294 90.4356 244.864 91.1456 246.184 91.1456C247.314 91.1456 247.954 90.6456 247.954 89.7656V89.7056H248.654V89.7856C248.654 90.9756 247.574 91.7956 246.194 91.7956ZM251.955 91.7956C250.365 91.7956 249.355 90.7956 249.355 89.2256C249.355 87.7256 250.355 86.6556 251.945 86.6556C253.395 86.6556 254.425 87.4956 254.425 88.9656C254.425 89.1456 254.405 89.2956 254.375 89.4256H250.025C250.065 90.5356 250.635 91.2056 251.945 91.2056C253.105 91.2056 253.645 90.7756 253.645 90.0556V89.9856H254.355V90.0556C254.355 91.0856 253.335 91.7956 251.955 91.7956ZM251.935 87.2456C250.655 87.2456 250.075 87.9056 250.025 88.9856H253.755C253.755 88.9356 253.755 88.8856 253.755 88.8356C253.755 87.7956 253.095 87.2456 251.935 87.2456Z" fill="black"/>
<path d="M226.133 68.0255C226.132 69.3243 226.648 70.5702 227.567 71.4892C228.486 72.4078 229.732 72.9241 231.032 72.9245C232.332 72.9247 233.578 72.409 234.498 71.4907C235.417 70.5724 235.933 69.3267 235.933 68.028C235.934 66.7291 235.417 65.4833 234.498 64.5649C233.579 63.6463 232.333 63.1304 231.033 63.1304C229.734 63.1308 228.488 63.6467 227.569 64.5646C226.65 65.4826 226.133 66.7274 226.132 68.0259L226.133 68.0255ZM234.86 68.0255C234.86 69.0397 234.457 70.0125 233.739 70.7298C233.022 71.4471 232.048 71.85 231.033 71.85C230.018 71.85 229.045 71.4471 228.327 70.7298C227.609 70.0126 227.206 69.0398 227.206 68.0255C227.206 67.0112 227.609 66.0384 228.327 65.3211C229.045 64.6039 230.018 64.201 231.033 64.201C232.048 64.2005 233.022 64.6033 233.74 65.3207C234.458 66.0379 234.861 67.011 234.86 68.0255Z" fill="black"/>
<path d="M237.478 62.8925L238.164 62.2071C238.263 62.1097 238.302 61.9669 238.266 61.8329C238.231 61.6988 238.126 61.5938 237.992 61.5577L234.925 60.7404C234.791 60.7043 234.648 60.7426 234.55 60.8405C234.452 60.9385 234.414 61.0813 234.45 61.215L235.271 64.277C235.309 64.4095 235.413 64.5124 235.547 64.5476C235.68 64.5828 235.822 64.5451 235.92 64.4484L236.563 63.8058C237.49 64.9285 238.039 66.3145 238.133 67.767C238.227 69.2195 237.861 70.6647 237.087 71.8974C236.312 73.1302 235.169 74.0879 233.819 74.6347C232.47 75.1814 230.982 75.2895 229.567 74.9433L229.258 76.2027C230.946 76.6122 232.721 76.4774 234.328 75.8176C235.935 75.1578 237.291 74.0069 238.204 72.5296C239.116 71.0523 239.537 69.3245 239.407 67.5932C239.277 65.8622 238.601 64.2168 237.478 62.8925L237.478 62.8925Z" fill="black"/>
<path d="M227.159 72.159C227.122 72.0258 227.017 71.9223 226.884 71.887C226.75 71.8517 226.608 71.8901 226.51 71.9876L225.87 72.6267V72.6269C224.943 71.5042 224.394 70.1184 224.3 68.666C224.206 67.2138 224.572 65.7688 225.346 64.5362C226.12 63.3035 227.263 62.3458 228.612 61.7989C229.962 61.2519 231.449 61.1435 232.864 61.4892L233.169 60.2315C231.481 59.8226 229.706 59.9579 228.1 60.618C226.494 61.2782 225.137 62.4295 224.225 63.907C223.313 65.3844 222.893 67.1121 223.023 68.8433C223.154 70.5742 223.829 72.2195 224.953 73.5434L224.267 74.2288V74.2289C224.168 74.3263 224.129 74.469 224.164 74.6031C224.2 74.7372 224.304 74.8422 224.438 74.8783L227.501 75.6974C227.635 75.7333 227.777 75.6952 227.876 75.5972C227.973 75.4993 228.012 75.3565 227.976 75.2227L227.159 72.159Z" fill="black"/>
<path d="M232.429 68.073V67.6984H232.244V66.7792H231.869V67.6984H230.645L229.45 66.2609V67.6984H229.265V68.073H229.45V68.3951H229.265V68.7697H229.45V69.6882H229.825V68.7697H231.049L232.244 70.2073V68.7697H232.429V68.3951H232.244V68.073H232.429ZM229.825 67.2984L230.158 67.6984H229.825V67.2984ZM229.825 68.3951V68.073H230.469L230.737 68.3951H229.825ZM231.869 69.1698L231.536 68.7697H231.869V69.1698ZM231.869 68.3951H231.225L230.957 68.073H231.869L231.869 68.3951Z" fill="black"/>
<path d="M137.131 91.6957H136.351L139.381 84.9957H140.371L143.411 91.6957H142.611L141.711 89.7257H138.031L137.131 91.6957ZM139.471 86.5457L138.321 89.0857H141.421L140.261 86.5457L139.891 85.6757H139.831L139.471 86.5457ZM144.769 91.6957H144.059V86.7557H144.699V88.3057H144.749C144.919 87.4657 145.619 86.6557 146.849 86.6557C148.239 86.6557 148.929 87.6457 148.929 88.8157V91.6957H148.219V88.9157C148.219 87.8957 147.729 87.3057 146.599 87.3057C145.399 87.3057 144.769 88.0357 144.769 89.3057V91.6957ZM151.455 91.7957C150.485 91.7957 149.825 91.3357 149.825 90.5357C149.825 89.7257 150.495 89.3757 151.415 89.2757L153.765 89.0157V88.6357C153.765 87.6757 153.345 87.2957 152.265 87.2957C151.205 87.2957 150.645 87.6757 150.645 88.5457V88.5857H149.935V88.5457C149.935 87.5057 150.795 86.6557 152.315 86.6557C153.815 86.6557 154.455 87.5157 154.455 88.6057V91.6957H153.815V90.3657H153.765C153.475 91.2757 152.605 91.7957 151.455 91.7957ZM150.535 90.4857C150.535 90.9857 150.865 91.2457 151.615 91.2457C152.815 91.2457 153.765 90.7157 153.765 89.5257V89.4857L151.635 89.7257C150.895 89.7957 150.535 89.9757 150.535 90.4857ZM156.332 91.6957H155.622V84.9957H156.332V91.6957ZM158.176 93.3957H157.556V92.7457H158.306C158.806 92.7457 158.996 92.5957 159.186 92.1857L159.426 91.6857L156.976 86.7557H157.756L159.206 89.6957L159.756 90.9057H159.816L160.346 89.6857L161.716 86.7557H162.496L159.816 92.3857C159.456 93.1457 158.996 93.3957 158.176 93.3957ZM165.35 91.7957C163.83 91.7957 162.95 91.1857 162.95 90.0457V90.0257H163.66V90.0857C163.66 90.9157 164.15 91.2057 165.36 91.2057C166.47 91.2057 166.85 90.9457 166.85 90.3757C166.85 89.8557 166.54 89.6857 165.72 89.5557L164.4 89.3657C163.5 89.2457 162.93 88.8957 162.93 88.0757C162.93 87.2057 163.76 86.6557 165.12 86.6557C166.54 86.6557 167.46 87.2557 167.46 88.4157V88.4357H166.75V88.3857C166.75 87.6457 166.36 87.2457 165.1 87.2457C164.06 87.2457 163.63 87.4957 163.63 88.0857C163.63 88.5957 163.89 88.7757 164.71 88.8957L165.92 89.0657C166.98 89.2157 167.55 89.5757 167.55 90.3757C167.55 91.3057 166.63 91.7957 165.35 91.7957ZM169.193 86.1257H168.483V84.9957H169.193V86.1257ZM169.193 91.6957H168.483V86.7557H169.193V91.6957ZM172.557 91.7957C171.037 91.7957 170.157 91.1857 170.157 90.0457V90.0257H170.867V90.0857C170.867 90.9157 171.357 91.2057 172.567 91.2057C173.677 91.2057 174.057 90.9457 174.057 90.3757C174.057 89.8557 173.747 89.6857 172.927 89.5557L171.607 89.3657C170.707 89.2457 170.137 88.8957 170.137 88.0757C170.137 87.2057 170.967 86.6557 172.327 86.6557C173.747 86.6557 174.667 87.2557 174.667 88.4157V88.4357H173.957V88.3857C173.957 87.6457 173.567 87.2457 172.307 87.2457C171.267 87.2457 170.837 87.4957 170.837 88.0857C170.837 88.5957 171.097 88.7757 171.917 88.8957L173.127 89.0657C174.187 89.2157 174.757 89.5757 174.757 90.3757C174.757 91.3057 173.837 91.7957 172.557 91.7957Z" fill="black"/>
<path d="M146.517 68.8261C146.231 68.8261 146 69.0987 146 69.4348V75.8261C146 75.9875 146.054 76.1425 146.151 76.2565C146.248 76.3707 146.38 76.4348 146.517 76.4348H164.911C165.049 76.4348 165.18 76.3707 165.277 76.2565C165.374 76.1425 165.428 75.9875 165.428 75.8261V60.6086C165.428 60.2724 165.197 60 164.911 60C164.626 60 164.395 60.2724 164.395 60.6086V75.2174H160.829V65.813C160.829 65.4767 160.598 65.2042 160.313 65.2042C160.027 65.2042 159.796 65.4768 159.796 65.813V75.2174H156.231V68.9783C156.231 68.642 156 68.3696 155.714 68.3696C155.429 68.3696 155.197 68.642 155.197 68.9783V75.2174H151.632V65.2043C151.632 64.8683 151.401 64.5957 151.115 64.5957C150.83 64.5957 150.599 64.8683 150.599 65.2043V75.2174H147.034V69.4348C147.034 69.0987 146.802 68.8261 146.517 68.8261H146.517Z" fill="black"/>
<path d="M66.1157 92H65.4057V85.3H66.1157V88.3H70.4257V85.3H71.1357V92H70.4257V88.95H66.1157V92ZM74.7593 92.1C73.1493 92.1 72.0793 91.03 72.0793 89.53C72.0793 88.03 73.1493 86.96 74.7593 86.96C76.3793 86.96 77.4493 88.03 77.4493 89.53C77.4493 91.03 76.3793 92.1 74.7593 92.1ZM74.7593 91.46C76.1193 91.46 76.7493 90.73 76.7493 89.53C76.7493 88.34 76.1193 87.6 74.7593 87.6C73.3993 87.6 72.7793 88.34 72.7793 89.53C72.7793 90.73 73.3993 91.46 74.7593 91.46ZM79.1039 92H78.3939V87.06H79.0339V88.55H79.0739C79.2139 87.72 79.7839 86.96 81.0139 86.96C82.1139 86.96 82.7339 87.64 82.8939 88.6H82.9439C83.0839 87.75 83.6739 86.96 84.9139 86.96C86.2039 86.96 86.8739 87.87 86.8739 89.12V92H86.1639V89.22C86.1639 88.12 85.6939 87.61 84.6539 87.61C83.4639 87.61 82.9839 88.3 82.9839 89.61V92H82.2739V89.22C82.2739 88.12 81.8139 87.61 80.7739 87.61C79.5739 87.61 79.1039 88.3 79.1039 89.61V92ZM90.3826 92.1C88.7926 92.1 87.7826 91.1 87.7826 89.53C87.7826 88.03 88.7826 86.96 90.3726 86.96C91.8226 86.96 92.8526 87.8 92.8526 89.27C92.8526 89.45 92.8326 89.6 92.8026 89.73H88.4526C88.4926 90.84 89.0626 91.51 90.3726 91.51C91.5326 91.51 92.0726 91.08 92.0726 90.36V90.29H92.7826V90.36C92.7826 91.39 91.7626 92.1 90.3826 92.1ZM90.3626 87.55C89.0826 87.55 88.5026 88.21 88.4526 89.29H92.1826C92.1826 89.24 92.1826 89.19 92.1826 89.14C92.1826 88.1 91.5226 87.55 90.3626 87.55Z" fill="white"/>
<path d="M85.3636 65.6875L80.2727 60.5532C79.9227 60.1969 79.4696 60 79 60C78.5304 60 78.0773 60.1969 77.7273 60.5532L72.6364 65.6875C72.2308 66.1004 71.9993 66.6905 72 67.3097V73.8274C72 74.4037 72.2011 74.9562 72.5591 75.3637C72.9172 75.7711 73.4027 76 73.9091 76H76.4545C76.792 76 77.1158 75.8474 77.3545 75.5758C77.5932 75.3043 77.7273 74.9358 77.7273 74.5516V70.8728C77.7273 70.6807 77.7943 70.4965 77.9136 70.3607C78.033 70.2249 78.1949 70.1486 78.3636 70.1486H79.6364C79.8051 70.1486 79.967 70.2249 80.0864 70.3607C80.2057 70.4965 80.2727 70.6807 80.2727 70.8728V74.4938C80.2727 74.8778 80.4068 75.2463 80.6455 75.518C80.8842 75.7895 81.208 75.9421 81.5455 75.9421H84.0909C84.5973 75.9421 85.0828 75.7133 85.4409 75.3059C85.7989 74.8984 86 74.3459 86 73.7696V67.2518C85.9865 66.6529 85.7563 66.0868 85.3636 65.6875ZM84.7273 73.7695C84.7273 73.9616 84.6602 74.1458 84.5409 74.2816C84.4216 74.4174 84.2597 74.4937 84.0909 74.4937H81.5455V70.8727C81.5455 70.2964 81.3443 69.7439 80.9864 69.3364C80.6283 68.929 80.1428 68.7002 79.6364 68.7002H78.3636C77.8572 68.7002 77.3717 68.929 77.0136 69.3364C76.6557 69.7439 76.4545 70.2964 76.4545 70.8727V74.4937H73.9091C73.7403 74.4937 73.5784 74.4174 73.4591 74.2816C73.3398 74.1458 73.2727 73.9616 73.2727 73.7695V67.2518C73.2732 67.0474 73.3494 66.8528 73.4827 66.7159L78.5736 61.5816C78.6902 61.4634 78.8408 61.3981 78.9969 61.3981C79.1529 61.3981 79.3034 61.4634 79.4201 61.5816L84.511 66.7159C84.6442 66.8528 84.7205 67.0474 84.7209 67.2518L84.7273 73.7695Z" fill="white"/>
<path d="M369.234 91.6956H368.524V84.9956H371.604C373.054 84.9956 374.074 85.8256 374.074 87.2556C374.074 88.6956 373.054 89.5256 371.604 89.5256H369.234V91.6956ZM371.544 85.6456H369.234V88.8756H371.544C372.724 88.8756 373.354 88.3956 373.354 87.2556C373.354 86.1356 372.724 85.6456 371.544 85.6456ZM375.553 91.6956H374.843V86.7556H375.483V88.1056H375.533C375.683 87.3156 376.243 86.6556 377.273 86.6556C378.413 86.6556 378.913 87.4956 378.913 88.4156V88.9056H378.203V88.5256C378.203 87.6856 377.853 87.2756 376.993 87.2756C375.993 87.2756 375.553 87.9056 375.553 89.0156V91.6956ZM382.155 91.7956C380.545 91.7956 379.475 90.7256 379.475 89.2256C379.475 87.7256 380.545 86.6556 382.155 86.6556C383.775 86.6556 384.845 87.7256 384.845 89.2256C384.845 90.7256 383.775 91.7956 382.155 91.7956ZM382.155 91.1556C383.515 91.1556 384.145 90.4256 384.145 89.2256C384.145 88.0356 383.515 87.2956 382.155 87.2956C380.795 87.2956 380.175 88.0356 380.175 89.2256C380.175 90.4256 380.795 91.1556 382.155 91.1556ZM386.85 91.6956H386.14V87.3656H385.35V86.7556H386.15C386.23 85.5856 387.02 84.9956 388.3 84.9956H388.84V85.5556H388.2C387.3 85.5556 386.81 85.8556 386.85 86.7556H388.84V87.3656H386.85V91.6956ZM390.24 86.1256H389.53V84.9956H390.24V86.1256ZM390.24 91.6956H389.53V86.7556H390.24V91.6956ZM392.154 91.6956H391.444V84.9956H392.154V91.6956ZM395.699 91.7956C394.109 91.7956 393.099 90.7956 393.099 89.2256C393.099 87.7256 394.099 86.6556 395.689 86.6556C397.139 86.6556 398.169 87.4956 398.169 88.9656C398.169 89.1456 398.149 89.2956 398.119 89.4256H393.769C393.809 90.5356 394.379 91.2056 395.689 91.2056C396.849 91.2056 397.389 90.7756 397.389 90.0556V89.9856H398.099V90.0556C398.099 91.0856 397.079 91.7956 395.699 91.7956ZM395.679 87.2456C394.399 87.2456 393.819 87.9056 393.769 88.9856H397.499C397.499 88.9356 397.499 88.8856 397.499 88.8356C397.499 87.7956 396.839 87.2456 395.679 87.2456Z" fill="black"/>
<path d="M380.96 69.3533C379.822 68.5771 379.049 67.2907 378.843 65.832C378.637 64.3733 379.019 62.8882 379.889 61.7668C380.759 60.6455 382.03 60 383.367 60C384.704 60 385.975 60.6455 386.845 61.7668C387.714 62.8882 388.097 64.3732 387.891 65.832C387.685 67.2907 386.912 68.5771 385.774 69.3533C387.068 69.8198 388.229 70.6507 389.143 71.7639C390.057 72.8772 390.693 74.2344 390.986 75.7013C391.019 75.8576 390.993 76.0219 390.915 76.1571C390.837 76.2924 390.713 76.3876 390.571 76.4214C390.429 76.4551 390.281 76.4247 390.16 76.3368C390.038 76.2489 389.953 76.1109 389.925 75.9536C389.599 74.3008 388.771 72.8206 387.578 71.759C386.385 70.6975 384.899 70.1186 383.367 70.1186C381.834 70.1186 380.348 70.6975 379.155 71.759C377.962 72.8204 377.134 74.3007 376.809 75.9536C376.783 76.0877 376.716 76.2077 376.619 76.2938C376.523 76.38 376.402 76.4271 376.278 76.4271C376.24 76.427 376.201 76.4223 376.163 76.4133C376.022 76.3797 375.9 76.2858 375.822 76.1524C375.744 76.0189 375.717 75.8567 375.747 75.7013C376.041 74.2343 376.676 72.8773 377.59 71.7639C378.504 70.6507 379.666 69.8198 380.959 69.3532L380.96 69.3533ZM386.859 65.059C386.859 64.0366 386.491 63.056 385.836 62.3329C385.181 61.6098 384.293 61.2036 383.367 61.2035C382.441 61.2034 381.552 61.6094 380.897 62.3323C380.242 63.0551 379.874 64.0357 379.874 65.0582C379.874 66.0807 380.241 67.0613 380.896 67.7845C381.551 68.5077 382.439 68.9141 383.365 68.9145C384.292 68.9137 385.18 68.5073 385.835 67.7844C386.49 67.0616 386.858 66.0813 386.859 65.059V65.059Z" fill="black"/>
<path d="M307.331 62.5776C304.873 62.5776 302.872 64.8331 302.872 67.6072C302.872 69.3391 303.647 70.9276 304.947 71.8564C305.353 72.1466 305.591 72.5907 305.634 73.1142C305.422 73.1425 305.257 73.3425 305.257 73.5883V74.7594C305.257 75.023 305.447 75.2389 305.682 75.2389H305.714V75.5432C305.714 76.035 306.068 76.4349 306.504 76.4349H308.28C308.716 76.4349 309.07 76.0352 309.07 75.5432V75.2284C309.262 75.1824 309.406 74.9896 309.406 74.7596V73.5884C309.406 73.3425 309.241 73.1426 309.03 73.1144C309.072 72.5889 309.31 72.1466 309.717 71.8566C311.015 70.9278 311.792 69.3392 311.792 67.6073C311.79 64.8334 309.79 62.5778 307.331 62.5778L307.331 62.5776ZM305.712 74.7258V73.6237H308.95V74.7258H305.712ZM308.614 75.5449C308.614 75.7537 308.463 75.9234 308.278 75.9234H306.504C306.319 75.9234 306.169 75.7536 306.169 75.5449V75.2406H308.614V75.5449ZM309.472 71.4229C308.938 71.8032 308.617 72.4118 308.571 73.1105H306.093C306.048 72.4135 305.725 71.8049 305.193 71.4229C304.026 70.5896 303.329 69.162 303.329 67.607C303.329 65.1179 305.125 63.0924 307.332 63.0924C309.539 63.0924 311.335 65.118 311.335 67.607C311.335 69.1619 310.638 70.5878 309.471 71.4229H309.472ZM306.942 61.3127V60.2566C306.942 60.1151 307.044 60.0001 307.169 60.0001C307.295 60.0001 307.397 60.1151 307.397 60.2566V61.3127C307.397 61.4542 307.295 61.5692 307.169 61.5692C307.044 61.5692 306.942 61.4542 306.942 61.3127ZM310.003 62.0026L310.471 61.088C310.534 60.966 310.673 60.9235 310.781 60.9942C310.89 61.065 310.927 61.2225 310.865 61.3445L310.397 62.2591C310.355 62.3423 310.278 62.3883 310.2 62.3883C310.16 62.3883 310.121 62.3777 310.087 62.3547C309.978 62.2821 309.941 62.1247 310.003 62.0026ZM313.388 64.2423L312.577 64.7695C312.541 64.7925 312.502 64.8032 312.464 64.8032C312.386 64.8032 312.309 64.7572 312.267 64.674C312.204 64.5519 312.242 64.3945 312.35 64.3237L313.161 63.7965C313.269 63.7257 313.409 63.7682 313.471 63.8903C313.534 64.0158 313.496 64.1715 313.388 64.2423ZM303.518 61.5268C303.455 61.4048 303.493 61.2473 303.601 61.1765C303.711 61.1057 303.849 61.1483 303.912 61.2703L304.379 62.185C304.442 62.307 304.404 62.4644 304.296 62.5352C304.26 62.5582 304.221 62.5689 304.183 62.5689C304.105 62.5689 304.028 62.5229 303.985 62.4397L303.518 61.5268ZM302.235 64.9925C302.193 65.0756 302.116 65.1217 302.037 65.1217C301.998 65.1217 301.959 65.111 301.924 65.088L301.113 64.5609C301.005 64.4901 300.968 64.3326 301.03 64.2106C301.093 64.0885 301.233 64.0461 301.341 64.1168L302.152 64.644C302.262 64.713 302.299 64.8687 302.235 64.9925Z" fill="black"/>
<path d="M308.65 68.0414V67.6668H308.486V66.7476H308.154V67.6668H307.07L306.011 66.2292V67.6668H305.847V68.0414H306.011V68.3635H305.847V68.7381H306.011V69.6565H306.343V68.7381H307.427L308.486 70.1756V68.7381H308.65V68.3635H308.486V68.0414H308.65ZM306.343 67.2667L306.638 67.6668H306.343V67.2667ZM306.343 68.3635V68.0414H306.914L307.151 68.3635H306.343ZM308.154 69.1381L307.859 68.7381H308.154V69.1381ZM308.154 68.3635H307.583L307.346 68.0414H308.154L308.154 68.3635Z" fill="black"/>
<path d="M289.494 92H284.404V85.3H289.494V85.95H285.114V88.31H289.344V88.95H285.114V91.35H289.494V92ZM292.618 92.1C291.038 92.1 290.158 91.03 290.158 89.53C290.158 88.03 291.038 86.96 292.558 86.96C293.728 86.96 294.458 87.59 294.678 88.44H294.728V85.3H295.438V92H294.788V90.54H294.748C294.508 91.53 293.708 92.1 292.618 92.1ZM290.878 89.53C290.878 90.96 291.638 91.45 292.798 91.45C293.958 91.45 294.728 90.78 294.728 89.61V89.52C294.728 88.3 293.998 87.62 292.778 87.62C291.648 87.62 290.878 88.1 290.878 89.53ZM298.7 92.1C297.29 92.1 296.6 91.12 296.6 89.95V87.06H297.31V89.84C297.31 90.87 297.81 91.46 298.95 91.46C300.16 91.46 300.79 90.73 300.79 89.46V87.06H301.5V92H300.86V90.46H300.81C300.64 91.3 299.93 92.1 298.7 92.1ZM305.055 92.1C303.475 92.1 302.445 91.03 302.445 89.53C302.445 88.03 303.475 86.96 305.055 86.96C306.435 86.96 307.515 87.78 307.515 88.97V89.05H306.815V88.99C306.815 88.11 306.175 87.61 305.045 87.61C303.725 87.61 303.155 88.32 303.155 89.53C303.155 90.74 303.725 91.45 305.045 91.45C306.175 91.45 306.815 90.95 306.815 90.07V90.01H307.515V90.09C307.515 91.28 306.435 92.1 305.055 92.1ZM309.836 92.1C308.866 92.1 308.206 91.64 308.206 90.84C308.206 90.03 308.876 89.68 309.796 89.58L312.146 89.32V88.94C312.146 87.98 311.726 87.6 310.646 87.6C309.586 87.6 309.026 87.98 309.026 88.85V88.89H308.316V88.85C308.316 87.81 309.176 86.96 310.696 86.96C312.196 86.96 312.836 87.82 312.836 88.91V92H312.196V90.67H312.146C311.856 91.58 310.986 92.1 309.836 92.1ZM308.916 90.79C308.916 91.29 309.246 91.55 309.996 91.55C311.196 91.55 312.146 91.02 312.146 89.83V89.79L310.016 90.03C309.276 90.1 308.916 90.28 308.916 90.79ZM317.033 92H315.963C314.983 92 314.353 91.59 314.353 90.43V87.67H313.473V87.06H314.353V85.88H315.073V87.06H317.033V87.67H315.073V90.47C315.073 91.16 315.413 91.35 316.133 91.35H317.033V92ZM318.522 86.43H317.812V85.3H318.522V86.43ZM318.522 92H317.812V87.06H318.522V92ZM322.136 92.1C320.526 92.1 319.456 91.03 319.456 89.53C319.456 88.03 320.526 86.96 322.136 86.96C323.756 86.96 324.826 88.03 324.826 89.53C324.826 91.03 323.756 92.1 322.136 92.1ZM322.136 91.46C323.496 91.46 324.126 90.73 324.126 89.53C324.126 88.34 323.496 87.6 322.136 87.6C320.776 87.6 320.156 88.34 320.156 89.53C320.156 90.73 320.776 91.46 322.136 91.46ZM326.481 92H325.771V87.06H326.411V88.61H326.461C326.631 87.77 327.331 86.96 328.561 86.96C329.951 86.96 330.641 87.95 330.641 89.12V92H329.931V89.22C329.931 88.2 329.441 87.61 328.311 87.61C327.111 87.61 326.481 88.34 326.481 89.61V92Z" fill="black"/>
</g>
</g>
</g>
<defs>
<filter id="filter0_d_1339_1142" x="0" y="0" width="462" height="165" filterUnits="userSpaceOnUse" color-interpolation-filters="sRGB">
<feFlood flood-opacity="0" result="BackgroundImageFix"/>
<feColorMatrix in="SourceAlpha" type="matrix" values="0 0 0 0 0 0 0 0 0 0 0 0 0 0 0 0 0 0 127 0" result="hardAlpha"/>
<feOffset dy="4"/>
<feGaussianBlur stdDeviation="8"/>
<feComposite in2="hardAlpha" operator="out"/>
<feColorMatrix type="matrix" values="0 0 0 0 0.0431373 0 0 0 0 0.454902 0 0 0 0 0.596078 0 0 0 0.5 0"/>
<feBlend mode="normal" in2="BackgroundImageFix" result="effect1_dropShadow_1339_1142"/>
<feBlend mode="normal" in="SourceGraphic" in2="effect1_dropShadow_1339_1142" result="shape"/>
</filter>
<filter id="filter1_d_1339_1142" x="12" y="24" width="438" height="109" filterUnits="userSpaceOnUse" color-interpolation-filters="sRGB">
<feFlood flood-opacity="0" result="BackgroundImageFix"/>
<feColorMatrix in="SourceAlpha" type="matrix" values="0 0 0 0 0 0 0 0 0 0 0 0 0 0 0 0 0 0 127 0" result="hardAlpha"/>
<feOffset/>
<feGaussianBlur stdDeviation="2"/>
<feComposite in2="hardAlpha" operator="out"/>
<feColorMatrix type="matrix" values="0 0 0 0 0 0 0 0 0 0 0 0 0 0 0 0 0 0 0.25 0"/>
<feBlend mode="normal" in2="BackgroundImageFix" result="effect1_dropShadow_1339_1142"/>
<feBlend mode="normal" in="SourceGraphic" in2="effect1_dropShadow_1339_1142" result="shape"/>
</filter>
<clipPath id="clip0_1339_1142">
<rect x="16" y="12" width="430" height="133" rx="16" fill="white"/>
</clipPath>
</defs>
</svg>
