<svg width="25" height="17" viewBox="0 0 25 17" fill="none" xmlns="http://www.w3.org/2000/svg">
<path d="M25 2.01939C24.0806 2.35134 23.0802 2.59025 22.0496 2.68329C23.1196 2.15125 23.9208 1.31072 24.303 0.319389C23.299 0.819302 22.1991 1.16985 21.0522 1.35548C20.5728 0.926526 19.993 0.584799 19.3489 0.351597C18.7049 0.118394 18.0104 -0.00128703 17.3086 1.04374e-05C14.4694 1.04374e-05 12.186 1.92634 12.186 4.29024C12.186 4.6222 12.2341 4.95415 12.3122 5.27353C8.06093 5.08743 4.26932 3.38743 1.74859 0.784625C1.28928 1.44128 1.04859 2.18895 1.05156 2.94986C1.05156 4.43862 1.95589 5.75134 3.33494 6.52338C2.52225 6.49659 1.72859 6.30962 1.01851 5.97767V6.03048C1.01851 8.11524 2.77911 9.8429 5.12559 10.2402C4.68501 10.336 4.23178 10.385 3.77659 10.3861C3.4431 10.3861 3.12763 10.3584 2.80916 10.3207C3.45812 12.0207 5.34791 13.2555 7.59825 13.2957C5.83764 14.45 3.63238 15.129 1.23783 15.129C0.808196 15.129 0.411609 15.1164 0 15.0762C2.27136 16.2959 4.96635 17 7.86865 17C17.2906 17 22.4462 10.4666 22.4462 4.79572C22.4462 4.60962 22.4462 4.42353 22.4312 4.23743C23.4287 3.62634 24.303 2.86939 25 2.01939Z" fill="black"/>
</svg>
